%FSLAX45Y45*%
G04 Gerber Fmt 4.5, Leading zero omitted, Abs format (unit mm)*
G04 Created by KiCad (PCBNEW 6.0.0) date 2022-03-22 20:10:50*
%MOMM*%
%LPD*%
G01*
G04 APERTURE LIST*
%TA.AperFunction,Profile*%
%ADD10C,0.100000*%
%TD*%
%ADD11C,0.200000*%
%ADD12C,0.040000*%
%ADD13C,0.060000*%
%ADD14C,0.090000*%
%ADD15C,0.100000*%
%ADD16C,0.110000*%
G04 APERTURE END LIST*
D10*
X13080000Y-4099750D02*
X13080000Y-4128000D01*
X13080000Y-4128000D02*
X13080000Y-4598000D01*
X13160000Y-4678000D02*
X13790000Y-4678000D01*
X13080000Y-4598000D02*
G75*
G03*
X13160000Y-4678000I80000J0D01*
G01*
X13870000Y-4099750D02*
X16500000Y-4100000D01*
X16500000Y-16600000D02*
X10450000Y-16600000D01*
X10450000Y-4100000D02*
X10500000Y-4100000D01*
X10450000Y-16600000D02*
X10450000Y-4100000D01*
X13790000Y-4678000D02*
G75*
G03*
X13870000Y-4598000I0J80000D01*
G01*
X13870000Y-4099750D02*
X13870000Y-4128000D01*
X10500000Y-4100000D02*
X13080000Y-4099750D01*
X13870000Y-4598000D02*
X13870000Y-4128000D01*
X16500000Y-4100000D02*
X16500000Y-16600000D01*
D11*
D12*
X11110754Y-5855598D02*
X11150754Y-5895598D01*
X11150754Y-5855598D02*
X11110754Y-5895598D01*
X11330000Y-5680000D02*
X11370000Y-5720000D01*
X11370000Y-5680000D02*
X11330000Y-5720000D01*
X11480000Y-8130000D02*
X11520000Y-8170000D01*
X11520000Y-8130000D02*
X11480000Y-8170000D01*
X11480000Y-9305000D02*
X11520000Y-9345000D01*
X11520000Y-9305000D02*
X11480000Y-9345000D01*
X11480000Y-10555000D02*
X11520000Y-10595000D01*
X11520000Y-10555000D02*
X11480000Y-10595000D01*
X11480000Y-11805000D02*
X11520000Y-11845000D01*
X11520000Y-11805000D02*
X11480000Y-11845000D01*
X11555000Y-5805000D02*
X11595000Y-5845000D01*
X11595000Y-5805000D02*
X11555000Y-5845000D01*
X11660000Y-6920000D02*
X11700000Y-6960000D01*
X11700000Y-6920000D02*
X11660000Y-6960000D01*
X11905000Y-6780000D02*
X11945000Y-6820000D01*
X11945000Y-6780000D02*
X11905000Y-6820000D01*
X12687599Y-5792450D02*
X12727599Y-5832450D01*
X12727599Y-5792450D02*
X12687599Y-5832450D01*
X12936267Y-5775640D02*
X12976267Y-5815640D01*
X12976267Y-5775640D02*
X12936267Y-5815640D01*
X12980000Y-5960000D02*
X13020000Y-6000000D01*
X13020000Y-5960000D02*
X12980000Y-6000000D01*
X13011108Y-5841888D02*
X13051108Y-5881888D01*
X13051108Y-5841888D02*
X13011108Y-5881888D01*
X13027974Y-7100514D02*
X13067974Y-7140514D01*
X13067974Y-7100514D02*
X13027974Y-7140514D01*
X13030000Y-8530000D02*
X13070000Y-8570000D01*
X13070000Y-8530000D02*
X13030000Y-8570000D01*
X13220000Y-6840000D02*
X13260000Y-6880000D01*
X13260000Y-6840000D02*
X13220000Y-6880000D01*
X13280000Y-7100000D02*
X13320000Y-7140000D01*
X13320000Y-7100000D02*
X13280000Y-7140000D01*
X13455000Y-15480000D02*
X13495000Y-15520000D01*
X13495000Y-15480000D02*
X13455000Y-15520000D01*
X13460000Y-5792450D02*
X13500000Y-5832450D01*
X13500000Y-5792450D02*
X13460000Y-5832450D01*
X13460000Y-6080000D02*
X13500000Y-6120000D01*
X13500000Y-6080000D02*
X13460000Y-6120000D01*
X13550000Y-7587540D02*
X13590000Y-7627540D01*
X13590000Y-7587540D02*
X13550000Y-7627540D01*
X13564431Y-7788276D02*
X13604431Y-7828276D01*
X13604431Y-7788276D02*
X13564431Y-7828276D01*
X13600000Y-6280000D02*
X13640000Y-6320000D01*
X13640000Y-6280000D02*
X13600000Y-6320000D01*
X13607550Y-7878447D02*
X13647550Y-7918447D01*
X13647550Y-7878447D02*
X13607550Y-7918447D01*
X13620000Y-5720000D02*
X13660000Y-5760000D01*
X13660000Y-5720000D02*
X13620000Y-5760000D01*
X13620000Y-6560000D02*
X13660000Y-6600000D01*
X13660000Y-6560000D02*
X13620000Y-6600000D01*
X13680000Y-7660000D02*
X13720000Y-7700000D01*
X13720000Y-7660000D02*
X13680000Y-7700000D01*
X13716230Y-6063770D02*
X13756230Y-6103770D01*
X13756230Y-6063770D02*
X13716230Y-6103770D01*
X13723173Y-6587550D02*
X13763173Y-6627550D01*
X13763173Y-6587550D02*
X13723173Y-6627550D01*
X13775148Y-5932450D02*
X13815148Y-5972450D01*
X13815148Y-5932450D02*
X13775148Y-5972450D01*
X13780000Y-6230000D02*
X13820000Y-6270000D01*
X13820000Y-6230000D02*
X13780000Y-6270000D01*
X13860000Y-5780000D02*
X13900000Y-5820000D01*
X13900000Y-5780000D02*
X13860000Y-5820000D01*
X14055229Y-5215098D02*
X14095229Y-5255098D01*
X14095229Y-5215098D02*
X14055229Y-5255098D01*
X14138807Y-6638290D02*
X14178807Y-6678290D01*
X14178807Y-6638290D02*
X14138807Y-6678290D01*
X14217137Y-6016875D02*
X14257137Y-6056875D01*
X14257137Y-6016875D02*
X14217137Y-6056875D01*
X14220000Y-6580000D02*
X14260000Y-6620000D01*
X14260000Y-6580000D02*
X14220000Y-6620000D01*
X14255000Y-5383750D02*
X14295000Y-5423750D01*
X14295000Y-5383750D02*
X14255000Y-5423750D01*
X14317493Y-5782599D02*
X14357493Y-5822599D01*
X14357493Y-5782599D02*
X14317493Y-5822599D01*
X14440830Y-5944425D02*
X14480830Y-5984425D01*
X14480830Y-5944425D02*
X14440830Y-5984425D01*
X14805000Y-7705000D02*
X14845000Y-7745000D01*
X14845000Y-7705000D02*
X14805000Y-7745000D01*
X14805000Y-7830000D02*
X14845000Y-7870000D01*
X14845000Y-7830000D02*
X14805000Y-7870000D01*
X14930000Y-6030000D02*
X14970000Y-6070000D01*
X14970000Y-6030000D02*
X14930000Y-6070000D01*
X14930000Y-6180000D02*
X14970000Y-6220000D01*
X14970000Y-6180000D02*
X14930000Y-6220000D01*
X15030000Y-7780000D02*
X15070000Y-7820000D01*
X15070000Y-7780000D02*
X15030000Y-7820000D01*
X15105000Y-6305000D02*
X15145000Y-6345000D01*
X15145000Y-6305000D02*
X15105000Y-6345000D01*
X15380000Y-15480000D02*
X15420000Y-15520000D01*
X15420000Y-15480000D02*
X15380000Y-15520000D01*
D13*
X13010000Y-4323000D02*
G75*
G03*
X13010000Y-4323000I-30000J0D01*
G01*
D11*
X12960000Y-4263000D02*
X12960000Y-4383000D01*
X13000000Y-4263000D02*
X13000000Y-4383000D01*
X12960000Y-4383000D02*
G75*
G03*
X13000000Y-4383000I20000J0D01*
G01*
X13000000Y-4263000D02*
G75*
G03*
X12960000Y-4263000I-20000J0D01*
G01*
D13*
X13010000Y-4723000D02*
G75*
G03*
X13010000Y-4723000I-30000J0D01*
G01*
D11*
X12960000Y-4678000D02*
X12960000Y-4768000D01*
X13000000Y-4678000D02*
X13000000Y-4768000D01*
X12960000Y-4768000D02*
G75*
G03*
X13000000Y-4768000I20000J0D01*
G01*
X13000000Y-4678000D02*
G75*
G03*
X12960000Y-4678000I-20000J0D01*
G01*
D13*
X14000000Y-4323000D02*
G75*
G03*
X14000000Y-4323000I-30000J0D01*
G01*
D11*
X13950000Y-4263000D02*
X13950000Y-4383000D01*
X13990000Y-4263000D02*
X13990000Y-4383000D01*
X13950000Y-4383000D02*
G75*
G03*
X13990000Y-4383000I20000J0D01*
G01*
X13990000Y-4263000D02*
G75*
G03*
X13950000Y-4263000I-20000J0D01*
G01*
D13*
X14000000Y-4723000D02*
G75*
G03*
X14000000Y-4723000I-30000J0D01*
G01*
D11*
X13950000Y-4678000D02*
X13950000Y-4768000D01*
X13990000Y-4678000D02*
X13990000Y-4768000D01*
X13950000Y-4768000D02*
G75*
G03*
X13990000Y-4768000I20000J0D01*
G01*
X13990000Y-4678000D02*
G75*
G03*
X13950000Y-4678000I-20000J0D01*
G01*
D14*
X10814500Y-4994500D02*
X10814500Y-5084500D01*
X10769500Y-5039500D02*
X10859500Y-5039500D01*
X10814500Y-5248500D02*
X10814500Y-5338500D01*
X10769500Y-5293500D02*
X10859500Y-5293500D01*
X10814500Y-5502500D02*
X10814500Y-5592500D01*
X10769500Y-5547500D02*
X10859500Y-5547500D01*
X10814500Y-5756500D02*
X10814500Y-5846500D01*
X10769500Y-5801500D02*
X10859500Y-5801500D01*
X10814500Y-6010500D02*
X10814500Y-6100500D01*
X10769500Y-6055500D02*
X10859500Y-6055500D01*
X10814500Y-6264500D02*
X10814500Y-6354500D01*
X10769500Y-6309500D02*
X10859500Y-6309500D01*
X10814500Y-6518500D02*
X10814500Y-6608500D01*
X10769500Y-6563500D02*
X10859500Y-6563500D01*
X10814500Y-6772500D02*
X10814500Y-6862500D01*
X10769500Y-6817500D02*
X10859500Y-6817500D01*
D15*
X12356356Y-6902356D02*
X12356356Y-6831644D01*
X12285644Y-6831644D01*
X12285644Y-6902356D01*
X12356356Y-6902356D01*
X12356356Y-7156356D02*
X12356356Y-7085644D01*
X12285644Y-7085644D01*
X12285644Y-7156356D01*
X12356356Y-7156356D01*
X12356356Y-7410356D02*
X12356356Y-7339644D01*
X12285644Y-7339644D01*
X12285644Y-7410356D01*
X12356356Y-7410356D01*
X12610356Y-6902356D02*
X12610356Y-6831644D01*
X12539644Y-6831644D01*
X12539644Y-6902356D01*
X12610356Y-6902356D01*
X12610356Y-7156356D02*
X12610356Y-7085644D01*
X12539644Y-7085644D01*
X12539644Y-7156356D01*
X12610356Y-7156356D01*
X12610356Y-7410356D02*
X12610356Y-7339644D01*
X12539644Y-7339644D01*
X12539644Y-7410356D01*
X12610356Y-7410356D01*
D16*
X10700000Y-8530000D02*
X10755000Y-8475000D01*
X10700000Y-8420000D01*
X10645000Y-8475000D01*
X10700000Y-8530000D01*
X10700000Y-8980000D02*
X10755000Y-8925000D01*
X10700000Y-8870000D01*
X10645000Y-8925000D01*
X10700000Y-8980000D01*
X10700000Y-9780000D02*
X10755000Y-9725000D01*
X10700000Y-9670000D01*
X10645000Y-9725000D01*
X10700000Y-9780000D01*
X10700000Y-10230000D02*
X10755000Y-10175000D01*
X10700000Y-10120000D01*
X10645000Y-10175000D01*
X10700000Y-10230000D01*
X10700000Y-11030000D02*
X10755000Y-10975000D01*
X10700000Y-10920000D01*
X10645000Y-10975000D01*
X10700000Y-11030000D01*
X10700000Y-11480000D02*
X10755000Y-11425000D01*
X10700000Y-11370000D01*
X10645000Y-11425000D01*
X10700000Y-11480000D01*
X10700000Y-12280000D02*
X10755000Y-12225000D01*
X10700000Y-12170000D01*
X10645000Y-12225000D01*
X10700000Y-12280000D01*
X10700000Y-12730000D02*
X10755000Y-12675000D01*
X10700000Y-12620000D01*
X10645000Y-12675000D01*
X10700000Y-12730000D01*
X10700000Y-13505000D02*
X10755000Y-13450000D01*
X10700000Y-13395000D01*
X10645000Y-13450000D01*
X10700000Y-13505000D01*
X10700000Y-13955000D02*
X10755000Y-13900000D01*
X10700000Y-13845000D01*
X10645000Y-13900000D01*
X10700000Y-13955000D01*
X10700000Y-14730000D02*
X10755000Y-14675000D01*
X10700000Y-14620000D01*
X10645000Y-14675000D01*
X10700000Y-14730000D01*
X10700000Y-15180000D02*
X10755000Y-15125000D01*
X10700000Y-15070000D01*
X10645000Y-15125000D01*
X10700000Y-15180000D01*
X10700000Y-15980000D02*
X10755000Y-15925000D01*
X10700000Y-15870000D01*
X10645000Y-15925000D01*
X10700000Y-15980000D01*
X10700000Y-16430000D02*
X10755000Y-16375000D01*
X10700000Y-16320000D01*
X10645000Y-16375000D01*
X10700000Y-16430000D01*
X11350000Y-8530000D02*
X11405000Y-8475000D01*
X11350000Y-8420000D01*
X11295000Y-8475000D01*
X11350000Y-8530000D01*
X11350000Y-8980000D02*
X11405000Y-8925000D01*
X11350000Y-8870000D01*
X11295000Y-8925000D01*
X11350000Y-8980000D01*
X11350000Y-9780000D02*
X11405000Y-9725000D01*
X11350000Y-9670000D01*
X11295000Y-9725000D01*
X11350000Y-9780000D01*
X11350000Y-10230000D02*
X11405000Y-10175000D01*
X11350000Y-10120000D01*
X11295000Y-10175000D01*
X11350000Y-10230000D01*
X11350000Y-11030000D02*
X11405000Y-10975000D01*
X11350000Y-10920000D01*
X11295000Y-10975000D01*
X11350000Y-11030000D01*
X11350000Y-11480000D02*
X11405000Y-11425000D01*
X11350000Y-11370000D01*
X11295000Y-11425000D01*
X11350000Y-11480000D01*
X11350000Y-12280000D02*
X11405000Y-12225000D01*
X11350000Y-12170000D01*
X11295000Y-12225000D01*
X11350000Y-12280000D01*
X11350000Y-12730000D02*
X11405000Y-12675000D01*
X11350000Y-12620000D01*
X11295000Y-12675000D01*
X11350000Y-12730000D01*
X11350000Y-13505000D02*
X11405000Y-13450000D01*
X11350000Y-13395000D01*
X11295000Y-13450000D01*
X11350000Y-13505000D01*
X11350000Y-13955000D02*
X11405000Y-13900000D01*
X11350000Y-13845000D01*
X11295000Y-13900000D01*
X11350000Y-13955000D01*
X11350000Y-14730000D02*
X11405000Y-14675000D01*
X11350000Y-14620000D01*
X11295000Y-14675000D01*
X11350000Y-14730000D01*
X11350000Y-15180000D02*
X11405000Y-15125000D01*
X11350000Y-15070000D01*
X11295000Y-15125000D01*
X11350000Y-15180000D01*
X11350000Y-15980000D02*
X11405000Y-15925000D01*
X11350000Y-15870000D01*
X11295000Y-15925000D01*
X11350000Y-15980000D01*
X11350000Y-16430000D02*
X11405000Y-16375000D01*
X11350000Y-16320000D01*
X11295000Y-16375000D01*
X11350000Y-16430000D01*
X11675000Y-8530000D02*
X11730000Y-8475000D01*
X11675000Y-8420000D01*
X11620000Y-8475000D01*
X11675000Y-8530000D01*
X11675000Y-8980000D02*
X11730000Y-8925000D01*
X11675000Y-8870000D01*
X11620000Y-8925000D01*
X11675000Y-8980000D01*
X11675000Y-9780000D02*
X11730000Y-9725000D01*
X11675000Y-9670000D01*
X11620000Y-9725000D01*
X11675000Y-9780000D01*
X11675000Y-10230000D02*
X11730000Y-10175000D01*
X11675000Y-10120000D01*
X11620000Y-10175000D01*
X11675000Y-10230000D01*
X11675000Y-11030000D02*
X11730000Y-10975000D01*
X11675000Y-10920000D01*
X11620000Y-10975000D01*
X11675000Y-11030000D01*
X11675000Y-11480000D02*
X11730000Y-11425000D01*
X11675000Y-11370000D01*
X11620000Y-11425000D01*
X11675000Y-11480000D01*
X11675000Y-12280000D02*
X11730000Y-12225000D01*
X11675000Y-12170000D01*
X11620000Y-12225000D01*
X11675000Y-12280000D01*
X11675000Y-12730000D02*
X11730000Y-12675000D01*
X11675000Y-12620000D01*
X11620000Y-12675000D01*
X11675000Y-12730000D01*
X11675000Y-13505000D02*
X11730000Y-13450000D01*
X11675000Y-13395000D01*
X11620000Y-13450000D01*
X11675000Y-13505000D01*
X11675000Y-13955000D02*
X11730000Y-13900000D01*
X11675000Y-13845000D01*
X11620000Y-13900000D01*
X11675000Y-13955000D01*
X11675000Y-14730000D02*
X11730000Y-14675000D01*
X11675000Y-14620000D01*
X11620000Y-14675000D01*
X11675000Y-14730000D01*
X11675000Y-15180000D02*
X11730000Y-15125000D01*
X11675000Y-15070000D01*
X11620000Y-15125000D01*
X11675000Y-15180000D01*
X11675000Y-15980000D02*
X11730000Y-15925000D01*
X11675000Y-15870000D01*
X11620000Y-15925000D01*
X11675000Y-15980000D01*
X11675000Y-16430000D02*
X11730000Y-16375000D01*
X11675000Y-16320000D01*
X11620000Y-16375000D01*
X11675000Y-16430000D01*
X12325000Y-8530000D02*
X12380000Y-8475000D01*
X12325000Y-8420000D01*
X12270000Y-8475000D01*
X12325000Y-8530000D01*
X12325000Y-8980000D02*
X12380000Y-8925000D01*
X12325000Y-8870000D01*
X12270000Y-8925000D01*
X12325000Y-8980000D01*
X12325000Y-9780000D02*
X12380000Y-9725000D01*
X12325000Y-9670000D01*
X12270000Y-9725000D01*
X12325000Y-9780000D01*
X12325000Y-10230000D02*
X12380000Y-10175000D01*
X12325000Y-10120000D01*
X12270000Y-10175000D01*
X12325000Y-10230000D01*
X12325000Y-11030000D02*
X12380000Y-10975000D01*
X12325000Y-10920000D01*
X12270000Y-10975000D01*
X12325000Y-11030000D01*
X12325000Y-11480000D02*
X12380000Y-11425000D01*
X12325000Y-11370000D01*
X12270000Y-11425000D01*
X12325000Y-11480000D01*
X12325000Y-12280000D02*
X12380000Y-12225000D01*
X12325000Y-12170000D01*
X12270000Y-12225000D01*
X12325000Y-12280000D01*
X12325000Y-12730000D02*
X12380000Y-12675000D01*
X12325000Y-12620000D01*
X12270000Y-12675000D01*
X12325000Y-12730000D01*
X12325000Y-13505000D02*
X12380000Y-13450000D01*
X12325000Y-13395000D01*
X12270000Y-13450000D01*
X12325000Y-13505000D01*
X12325000Y-13955000D02*
X12380000Y-13900000D01*
X12325000Y-13845000D01*
X12270000Y-13900000D01*
X12325000Y-13955000D01*
X12325000Y-14730000D02*
X12380000Y-14675000D01*
X12325000Y-14620000D01*
X12270000Y-14675000D01*
X12325000Y-14730000D01*
X12325000Y-15180000D02*
X12380000Y-15125000D01*
X12325000Y-15070000D01*
X12270000Y-15125000D01*
X12325000Y-15180000D01*
X12325000Y-15980000D02*
X12380000Y-15925000D01*
X12325000Y-15870000D01*
X12270000Y-15925000D01*
X12325000Y-15980000D01*
X12325000Y-16430000D02*
X12380000Y-16375000D01*
X12325000Y-16320000D01*
X12270000Y-16375000D01*
X12325000Y-16430000D01*
X12650000Y-8530000D02*
X12705000Y-8475000D01*
X12650000Y-8420000D01*
X12595000Y-8475000D01*
X12650000Y-8530000D01*
X12650000Y-8980000D02*
X12705000Y-8925000D01*
X12650000Y-8870000D01*
X12595000Y-8925000D01*
X12650000Y-8980000D01*
X12650000Y-9780000D02*
X12705000Y-9725000D01*
X12650000Y-9670000D01*
X12595000Y-9725000D01*
X12650000Y-9780000D01*
X12650000Y-10230000D02*
X12705000Y-10175000D01*
X12650000Y-10120000D01*
X12595000Y-10175000D01*
X12650000Y-10230000D01*
X12650000Y-11030000D02*
X12705000Y-10975000D01*
X12650000Y-10920000D01*
X12595000Y-10975000D01*
X12650000Y-11030000D01*
X12650000Y-11480000D02*
X12705000Y-11425000D01*
X12650000Y-11370000D01*
X12595000Y-11425000D01*
X12650000Y-11480000D01*
X12650000Y-12280000D02*
X12705000Y-12225000D01*
X12650000Y-12170000D01*
X12595000Y-12225000D01*
X12650000Y-12280000D01*
X12650000Y-12730000D02*
X12705000Y-12675000D01*
X12650000Y-12620000D01*
X12595000Y-12675000D01*
X12650000Y-12730000D01*
X12650000Y-13505000D02*
X12705000Y-13450000D01*
X12650000Y-13395000D01*
X12595000Y-13450000D01*
X12650000Y-13505000D01*
X12650000Y-13955000D02*
X12705000Y-13900000D01*
X12650000Y-13845000D01*
X12595000Y-13900000D01*
X12650000Y-13955000D01*
X12650000Y-14730000D02*
X12705000Y-14675000D01*
X12650000Y-14620000D01*
X12595000Y-14675000D01*
X12650000Y-14730000D01*
X12650000Y-15180000D02*
X12705000Y-15125000D01*
X12650000Y-15070000D01*
X12595000Y-15125000D01*
X12650000Y-15180000D01*
X12650000Y-15980000D02*
X12705000Y-15925000D01*
X12650000Y-15870000D01*
X12595000Y-15925000D01*
X12650000Y-15980000D01*
X12650000Y-16430000D02*
X12705000Y-16375000D01*
X12650000Y-16320000D01*
X12595000Y-16375000D01*
X12650000Y-16430000D01*
X13300000Y-8530000D02*
X13355000Y-8475000D01*
X13300000Y-8420000D01*
X13245000Y-8475000D01*
X13300000Y-8530000D01*
X13300000Y-8980000D02*
X13355000Y-8925000D01*
X13300000Y-8870000D01*
X13245000Y-8925000D01*
X13300000Y-8980000D01*
X13300000Y-9780000D02*
X13355000Y-9725000D01*
X13300000Y-9670000D01*
X13245000Y-9725000D01*
X13300000Y-9780000D01*
X13300000Y-10230000D02*
X13355000Y-10175000D01*
X13300000Y-10120000D01*
X13245000Y-10175000D01*
X13300000Y-10230000D01*
X13300000Y-11030000D02*
X13355000Y-10975000D01*
X13300000Y-10920000D01*
X13245000Y-10975000D01*
X13300000Y-11030000D01*
X13300000Y-11480000D02*
X13355000Y-11425000D01*
X13300000Y-11370000D01*
X13245000Y-11425000D01*
X13300000Y-11480000D01*
X13300000Y-12280000D02*
X13355000Y-12225000D01*
X13300000Y-12170000D01*
X13245000Y-12225000D01*
X13300000Y-12280000D01*
X13300000Y-12730000D02*
X13355000Y-12675000D01*
X13300000Y-12620000D01*
X13245000Y-12675000D01*
X13300000Y-12730000D01*
X13300000Y-13505000D02*
X13355000Y-13450000D01*
X13300000Y-13395000D01*
X13245000Y-13450000D01*
X13300000Y-13505000D01*
X13300000Y-13955000D02*
X13355000Y-13900000D01*
X13300000Y-13845000D01*
X13245000Y-13900000D01*
X13300000Y-13955000D01*
X13300000Y-14730000D02*
X13355000Y-14675000D01*
X13300000Y-14620000D01*
X13245000Y-14675000D01*
X13300000Y-14730000D01*
X13300000Y-15180000D02*
X13355000Y-15125000D01*
X13300000Y-15070000D01*
X13245000Y-15125000D01*
X13300000Y-15180000D01*
X13300000Y-15980000D02*
X13355000Y-15925000D01*
X13300000Y-15870000D01*
X13245000Y-15925000D01*
X13300000Y-15980000D01*
X13300000Y-16430000D02*
X13355000Y-16375000D01*
X13300000Y-16320000D01*
X13245000Y-16375000D01*
X13300000Y-16430000D01*
X13625000Y-8530000D02*
X13680000Y-8475000D01*
X13625000Y-8420000D01*
X13570000Y-8475000D01*
X13625000Y-8530000D01*
X13625000Y-8980000D02*
X13680000Y-8925000D01*
X13625000Y-8870000D01*
X13570000Y-8925000D01*
X13625000Y-8980000D01*
X13625000Y-9780000D02*
X13680000Y-9725000D01*
X13625000Y-9670000D01*
X13570000Y-9725000D01*
X13625000Y-9780000D01*
X13625000Y-10230000D02*
X13680000Y-10175000D01*
X13625000Y-10120000D01*
X13570000Y-10175000D01*
X13625000Y-10230000D01*
X13625000Y-11030000D02*
X13680000Y-10975000D01*
X13625000Y-10920000D01*
X13570000Y-10975000D01*
X13625000Y-11030000D01*
X13625000Y-11480000D02*
X13680000Y-11425000D01*
X13625000Y-11370000D01*
X13570000Y-11425000D01*
X13625000Y-11480000D01*
X13625000Y-12280000D02*
X13680000Y-12225000D01*
X13625000Y-12170000D01*
X13570000Y-12225000D01*
X13625000Y-12280000D01*
X13625000Y-12730000D02*
X13680000Y-12675000D01*
X13625000Y-12620000D01*
X13570000Y-12675000D01*
X13625000Y-12730000D01*
X13625000Y-13505000D02*
X13680000Y-13450000D01*
X13625000Y-13395000D01*
X13570000Y-13450000D01*
X13625000Y-13505000D01*
X13625000Y-13955000D02*
X13680000Y-13900000D01*
X13625000Y-13845000D01*
X13570000Y-13900000D01*
X13625000Y-13955000D01*
X13625000Y-14730000D02*
X13680000Y-14675000D01*
X13625000Y-14620000D01*
X13570000Y-14675000D01*
X13625000Y-14730000D01*
X13625000Y-15180000D02*
X13680000Y-15125000D01*
X13625000Y-15070000D01*
X13570000Y-15125000D01*
X13625000Y-15180000D01*
X13625000Y-15980000D02*
X13680000Y-15925000D01*
X13625000Y-15870000D01*
X13570000Y-15925000D01*
X13625000Y-15980000D01*
X13625000Y-16430000D02*
X13680000Y-16375000D01*
X13625000Y-16320000D01*
X13570000Y-16375000D01*
X13625000Y-16430000D01*
X14275000Y-8530000D02*
X14330000Y-8475000D01*
X14275000Y-8420000D01*
X14220000Y-8475000D01*
X14275000Y-8530000D01*
X14275000Y-8980000D02*
X14330000Y-8925000D01*
X14275000Y-8870000D01*
X14220000Y-8925000D01*
X14275000Y-8980000D01*
X14275000Y-9780000D02*
X14330000Y-9725000D01*
X14275000Y-9670000D01*
X14220000Y-9725000D01*
X14275000Y-9780000D01*
X14275000Y-10230000D02*
X14330000Y-10175000D01*
X14275000Y-10120000D01*
X14220000Y-10175000D01*
X14275000Y-10230000D01*
X14275000Y-11030000D02*
X14330000Y-10975000D01*
X14275000Y-10920000D01*
X14220000Y-10975000D01*
X14275000Y-11030000D01*
X14275000Y-11480000D02*
X14330000Y-11425000D01*
X14275000Y-11370000D01*
X14220000Y-11425000D01*
X14275000Y-11480000D01*
X14275000Y-12280000D02*
X14330000Y-12225000D01*
X14275000Y-12170000D01*
X14220000Y-12225000D01*
X14275000Y-12280000D01*
X14275000Y-12730000D02*
X14330000Y-12675000D01*
X14275000Y-12620000D01*
X14220000Y-12675000D01*
X14275000Y-12730000D01*
X14275000Y-13505000D02*
X14330000Y-13450000D01*
X14275000Y-13395000D01*
X14220000Y-13450000D01*
X14275000Y-13505000D01*
X14275000Y-13955000D02*
X14330000Y-13900000D01*
X14275000Y-13845000D01*
X14220000Y-13900000D01*
X14275000Y-13955000D01*
X14275000Y-14730000D02*
X14330000Y-14675000D01*
X14275000Y-14620000D01*
X14220000Y-14675000D01*
X14275000Y-14730000D01*
X14275000Y-15180000D02*
X14330000Y-15125000D01*
X14275000Y-15070000D01*
X14220000Y-15125000D01*
X14275000Y-15180000D01*
X14275000Y-15980000D02*
X14330000Y-15925000D01*
X14275000Y-15870000D01*
X14220000Y-15925000D01*
X14275000Y-15980000D01*
X14275000Y-16430000D02*
X14330000Y-16375000D01*
X14275000Y-16320000D01*
X14220000Y-16375000D01*
X14275000Y-16430000D01*
X14600000Y-8530000D02*
X14655000Y-8475000D01*
X14600000Y-8420000D01*
X14545000Y-8475000D01*
X14600000Y-8530000D01*
X14600000Y-8980000D02*
X14655000Y-8925000D01*
X14600000Y-8870000D01*
X14545000Y-8925000D01*
X14600000Y-8980000D01*
X14600000Y-9780000D02*
X14655000Y-9725000D01*
X14600000Y-9670000D01*
X14545000Y-9725000D01*
X14600000Y-9780000D01*
X14600000Y-10230000D02*
X14655000Y-10175000D01*
X14600000Y-10120000D01*
X14545000Y-10175000D01*
X14600000Y-10230000D01*
X14600000Y-11030000D02*
X14655000Y-10975000D01*
X14600000Y-10920000D01*
X14545000Y-10975000D01*
X14600000Y-11030000D01*
X14600000Y-11480000D02*
X14655000Y-11425000D01*
X14600000Y-11370000D01*
X14545000Y-11425000D01*
X14600000Y-11480000D01*
X14600000Y-12280000D02*
X14655000Y-12225000D01*
X14600000Y-12170000D01*
X14545000Y-12225000D01*
X14600000Y-12280000D01*
X14600000Y-12730000D02*
X14655000Y-12675000D01*
X14600000Y-12620000D01*
X14545000Y-12675000D01*
X14600000Y-12730000D01*
X14600000Y-13505000D02*
X14655000Y-13450000D01*
X14600000Y-13395000D01*
X14545000Y-13450000D01*
X14600000Y-13505000D01*
X14600000Y-13955000D02*
X14655000Y-13900000D01*
X14600000Y-13845000D01*
X14545000Y-13900000D01*
X14600000Y-13955000D01*
X14600000Y-14730000D02*
X14655000Y-14675000D01*
X14600000Y-14620000D01*
X14545000Y-14675000D01*
X14600000Y-14730000D01*
X14600000Y-15180000D02*
X14655000Y-15125000D01*
X14600000Y-15070000D01*
X14545000Y-15125000D01*
X14600000Y-15180000D01*
X14600000Y-15980000D02*
X14655000Y-15925000D01*
X14600000Y-15870000D01*
X14545000Y-15925000D01*
X14600000Y-15980000D01*
X14600000Y-16430000D02*
X14655000Y-16375000D01*
X14600000Y-16320000D01*
X14545000Y-16375000D01*
X14600000Y-16430000D01*
X15250000Y-8530000D02*
X15305000Y-8475000D01*
X15250000Y-8420000D01*
X15195000Y-8475000D01*
X15250000Y-8530000D01*
X15250000Y-8980000D02*
X15305000Y-8925000D01*
X15250000Y-8870000D01*
X15195000Y-8925000D01*
X15250000Y-8980000D01*
X15250000Y-9780000D02*
X15305000Y-9725000D01*
X15250000Y-9670000D01*
X15195000Y-9725000D01*
X15250000Y-9780000D01*
X15250000Y-10230000D02*
X15305000Y-10175000D01*
X15250000Y-10120000D01*
X15195000Y-10175000D01*
X15250000Y-10230000D01*
X15250000Y-11030000D02*
X15305000Y-10975000D01*
X15250000Y-10920000D01*
X15195000Y-10975000D01*
X15250000Y-11030000D01*
X15250000Y-11480000D02*
X15305000Y-11425000D01*
X15250000Y-11370000D01*
X15195000Y-11425000D01*
X15250000Y-11480000D01*
X15250000Y-12280000D02*
X15305000Y-12225000D01*
X15250000Y-12170000D01*
X15195000Y-12225000D01*
X15250000Y-12280000D01*
X15250000Y-12730000D02*
X15305000Y-12675000D01*
X15250000Y-12620000D01*
X15195000Y-12675000D01*
X15250000Y-12730000D01*
X15250000Y-13505000D02*
X15305000Y-13450000D01*
X15250000Y-13395000D01*
X15195000Y-13450000D01*
X15250000Y-13505000D01*
X15250000Y-13955000D02*
X15305000Y-13900000D01*
X15250000Y-13845000D01*
X15195000Y-13900000D01*
X15250000Y-13955000D01*
X15250000Y-14730000D02*
X15305000Y-14675000D01*
X15250000Y-14620000D01*
X15195000Y-14675000D01*
X15250000Y-14730000D01*
X15250000Y-15180000D02*
X15305000Y-15125000D01*
X15250000Y-15070000D01*
X15195000Y-15125000D01*
X15250000Y-15180000D01*
X15250000Y-15980000D02*
X15305000Y-15925000D01*
X15250000Y-15870000D01*
X15195000Y-15925000D01*
X15250000Y-15980000D01*
X15250000Y-16430000D02*
X15305000Y-16375000D01*
X15250000Y-16320000D01*
X15195000Y-16375000D01*
X15250000Y-16430000D01*
X15575000Y-8530000D02*
X15630000Y-8475000D01*
X15575000Y-8420000D01*
X15520000Y-8475000D01*
X15575000Y-8530000D01*
X15575000Y-8980000D02*
X15630000Y-8925000D01*
X15575000Y-8870000D01*
X15520000Y-8925000D01*
X15575000Y-8980000D01*
X15575000Y-9780000D02*
X15630000Y-9725000D01*
X15575000Y-9670000D01*
X15520000Y-9725000D01*
X15575000Y-9780000D01*
X15575000Y-10230000D02*
X15630000Y-10175000D01*
X15575000Y-10120000D01*
X15520000Y-10175000D01*
X15575000Y-10230000D01*
X15575000Y-11030000D02*
X15630000Y-10975000D01*
X15575000Y-10920000D01*
X15520000Y-10975000D01*
X15575000Y-11030000D01*
X15575000Y-11480000D02*
X15630000Y-11425000D01*
X15575000Y-11370000D01*
X15520000Y-11425000D01*
X15575000Y-11480000D01*
X15575000Y-12280000D02*
X15630000Y-12225000D01*
X15575000Y-12170000D01*
X15520000Y-12225000D01*
X15575000Y-12280000D01*
X15575000Y-12730000D02*
X15630000Y-12675000D01*
X15575000Y-12620000D01*
X15520000Y-12675000D01*
X15575000Y-12730000D01*
X15575000Y-13505000D02*
X15630000Y-13450000D01*
X15575000Y-13395000D01*
X15520000Y-13450000D01*
X15575000Y-13505000D01*
X15575000Y-13955000D02*
X15630000Y-13900000D01*
X15575000Y-13845000D01*
X15520000Y-13900000D01*
X15575000Y-13955000D01*
X15575000Y-14730000D02*
X15630000Y-14675000D01*
X15575000Y-14620000D01*
X15520000Y-14675000D01*
X15575000Y-14730000D01*
X15575000Y-15180000D02*
X15630000Y-15125000D01*
X15575000Y-15070000D01*
X15520000Y-15125000D01*
X15575000Y-15180000D01*
X15575000Y-15980000D02*
X15630000Y-15925000D01*
X15575000Y-15870000D01*
X15520000Y-15925000D01*
X15575000Y-15980000D01*
X15575000Y-16430000D02*
X15630000Y-16375000D01*
X15575000Y-16320000D01*
X15520000Y-16375000D01*
X15575000Y-16430000D01*
X16225000Y-8530000D02*
X16280000Y-8475000D01*
X16225000Y-8420000D01*
X16170000Y-8475000D01*
X16225000Y-8530000D01*
X16225000Y-8980000D02*
X16280000Y-8925000D01*
X16225000Y-8870000D01*
X16170000Y-8925000D01*
X16225000Y-8980000D01*
X16225000Y-9780000D02*
X16280000Y-9725000D01*
X16225000Y-9670000D01*
X16170000Y-9725000D01*
X16225000Y-9780000D01*
X16225000Y-10230000D02*
X16280000Y-10175000D01*
X16225000Y-10120000D01*
X16170000Y-10175000D01*
X16225000Y-10230000D01*
X16225000Y-11030000D02*
X16280000Y-10975000D01*
X16225000Y-10920000D01*
X16170000Y-10975000D01*
X16225000Y-11030000D01*
X16225000Y-11480000D02*
X16280000Y-11425000D01*
X16225000Y-11370000D01*
X16170000Y-11425000D01*
X16225000Y-11480000D01*
X16225000Y-12280000D02*
X16280000Y-12225000D01*
X16225000Y-12170000D01*
X16170000Y-12225000D01*
X16225000Y-12280000D01*
X16225000Y-12730000D02*
X16280000Y-12675000D01*
X16225000Y-12620000D01*
X16170000Y-12675000D01*
X16225000Y-12730000D01*
X16225000Y-13505000D02*
X16280000Y-13450000D01*
X16225000Y-13395000D01*
X16170000Y-13450000D01*
X16225000Y-13505000D01*
X16225000Y-13955000D02*
X16280000Y-13900000D01*
X16225000Y-13845000D01*
X16170000Y-13900000D01*
X16225000Y-13955000D01*
X16225000Y-14730000D02*
X16280000Y-14675000D01*
X16225000Y-14620000D01*
X16170000Y-14675000D01*
X16225000Y-14730000D01*
X16225000Y-15180000D02*
X16280000Y-15125000D01*
X16225000Y-15070000D01*
X16170000Y-15125000D01*
X16225000Y-15180000D01*
X16225000Y-15980000D02*
X16280000Y-15925000D01*
X16225000Y-15870000D01*
X16170000Y-15925000D01*
X16225000Y-15980000D01*
X16225000Y-16430000D02*
X16280000Y-16375000D01*
X16225000Y-16320000D01*
X16170000Y-16375000D01*
X16225000Y-16430000D01*
D11*
X10702619Y-16915476D02*
X10702619Y-16715476D01*
X10750238Y-16715476D01*
X10778810Y-16725000D01*
X10797857Y-16744048D01*
X10807381Y-16763095D01*
X10816905Y-16801190D01*
X10816905Y-16829762D01*
X10807381Y-16867857D01*
X10797857Y-16886905D01*
X10778810Y-16905952D01*
X10750238Y-16915476D01*
X10702619Y-16915476D01*
X10902619Y-16915476D02*
X10902619Y-16782143D01*
X10902619Y-16820238D02*
X10912143Y-16801190D01*
X10921667Y-16791667D01*
X10940714Y-16782143D01*
X10959762Y-16782143D01*
X11026429Y-16915476D02*
X11026429Y-16782143D01*
X11026429Y-16715476D02*
X11016905Y-16725000D01*
X11026429Y-16734524D01*
X11035952Y-16725000D01*
X11026429Y-16715476D01*
X11026429Y-16734524D01*
X11150238Y-16915476D02*
X11131190Y-16905952D01*
X11121667Y-16886905D01*
X11121667Y-16715476D01*
X11255000Y-16915476D02*
X11235952Y-16905952D01*
X11226428Y-16886905D01*
X11226428Y-16715476D01*
X11483571Y-16915476D02*
X11483571Y-16715476D01*
X11550238Y-16858333D01*
X11616905Y-16715476D01*
X11616905Y-16915476D01*
X11797857Y-16915476D02*
X11797857Y-16810714D01*
X11788333Y-16791667D01*
X11769286Y-16782143D01*
X11731190Y-16782143D01*
X11712143Y-16791667D01*
X11797857Y-16905952D02*
X11778809Y-16915476D01*
X11731190Y-16915476D01*
X11712143Y-16905952D01*
X11702619Y-16886905D01*
X11702619Y-16867857D01*
X11712143Y-16848810D01*
X11731190Y-16839286D01*
X11778809Y-16839286D01*
X11797857Y-16829762D01*
X11893095Y-16782143D02*
X11893095Y-16982143D01*
X11893095Y-16791667D02*
X11912143Y-16782143D01*
X11950238Y-16782143D01*
X11969286Y-16791667D01*
X11978809Y-16801190D01*
X11988333Y-16820238D01*
X11988333Y-16877381D01*
X11978809Y-16896429D01*
X11969286Y-16905952D01*
X11950238Y-16915476D01*
X11912143Y-16915476D01*
X11893095Y-16905952D01*
X12074048Y-16896429D02*
X12083571Y-16905952D01*
X12074048Y-16915476D01*
X12064524Y-16905952D01*
X12074048Y-16896429D01*
X12074048Y-16915476D01*
X12074048Y-16791667D02*
X12083571Y-16801190D01*
X12074048Y-16810714D01*
X12064524Y-16801190D01*
X12074048Y-16791667D01*
X12074048Y-16810714D01*
D12*
X10405000Y-17225000D02*
X10445000Y-17265000D01*
X10445000Y-17225000D02*
X10405000Y-17265000D01*
D11*
X10740714Y-17135476D02*
X10759762Y-17135476D01*
X10778810Y-17145000D01*
X10788333Y-17154524D01*
X10797857Y-17173571D01*
X10807381Y-17211667D01*
X10807381Y-17259286D01*
X10797857Y-17297381D01*
X10788333Y-17316429D01*
X10778810Y-17325952D01*
X10759762Y-17335476D01*
X10740714Y-17335476D01*
X10721667Y-17325952D01*
X10712143Y-17316429D01*
X10702619Y-17297381D01*
X10693095Y-17259286D01*
X10693095Y-17211667D01*
X10702619Y-17173571D01*
X10712143Y-17154524D01*
X10721667Y-17145000D01*
X10740714Y-17135476D01*
X10893095Y-17316429D02*
X10902619Y-17325952D01*
X10893095Y-17335476D01*
X10883571Y-17325952D01*
X10893095Y-17316429D01*
X10893095Y-17335476D01*
X11074048Y-17202143D02*
X11074048Y-17335476D01*
X11026429Y-17125952D02*
X10978810Y-17268810D01*
X11102619Y-17268810D01*
X11216905Y-17135476D02*
X11235952Y-17135476D01*
X11255000Y-17145000D01*
X11264524Y-17154524D01*
X11274048Y-17173571D01*
X11283571Y-17211667D01*
X11283571Y-17259286D01*
X11274048Y-17297381D01*
X11264524Y-17316429D01*
X11255000Y-17325952D01*
X11235952Y-17335476D01*
X11216905Y-17335476D01*
X11197857Y-17325952D01*
X11188333Y-17316429D01*
X11178810Y-17297381D01*
X11169286Y-17259286D01*
X11169286Y-17211667D01*
X11178810Y-17173571D01*
X11188333Y-17154524D01*
X11197857Y-17145000D01*
X11216905Y-17135476D01*
X11407381Y-17135476D02*
X11426428Y-17135476D01*
X11445476Y-17145000D01*
X11455000Y-17154524D01*
X11464524Y-17173571D01*
X11474048Y-17211667D01*
X11474048Y-17259286D01*
X11464524Y-17297381D01*
X11455000Y-17316429D01*
X11445476Y-17325952D01*
X11426428Y-17335476D01*
X11407381Y-17335476D01*
X11388333Y-17325952D01*
X11378809Y-17316429D01*
X11369286Y-17297381D01*
X11359762Y-17259286D01*
X11359762Y-17211667D01*
X11369286Y-17173571D01*
X11378809Y-17154524D01*
X11388333Y-17145000D01*
X11407381Y-17135476D01*
X11559762Y-17335476D02*
X11559762Y-17202143D01*
X11559762Y-17221190D02*
X11569286Y-17211667D01*
X11588333Y-17202143D01*
X11616905Y-17202143D01*
X11635952Y-17211667D01*
X11645476Y-17230714D01*
X11645476Y-17335476D01*
X11645476Y-17230714D02*
X11655000Y-17211667D01*
X11674048Y-17202143D01*
X11702619Y-17202143D01*
X11721667Y-17211667D01*
X11731190Y-17230714D01*
X11731190Y-17335476D01*
X11826428Y-17335476D02*
X11826428Y-17202143D01*
X11826428Y-17221190D02*
X11835952Y-17211667D01*
X11855000Y-17202143D01*
X11883571Y-17202143D01*
X11902619Y-17211667D01*
X11912143Y-17230714D01*
X11912143Y-17335476D01*
X11912143Y-17230714D02*
X11921667Y-17211667D01*
X11940714Y-17202143D01*
X11969286Y-17202143D01*
X11988333Y-17211667D01*
X11997857Y-17230714D01*
X11997857Y-17335476D01*
X12388333Y-17125952D02*
X12216905Y-17383095D01*
X12645476Y-17135476D02*
X12664524Y-17135476D01*
X12683571Y-17145000D01*
X12693095Y-17154524D01*
X12702619Y-17173571D01*
X12712143Y-17211667D01*
X12712143Y-17259286D01*
X12702619Y-17297381D01*
X12693095Y-17316429D01*
X12683571Y-17325952D01*
X12664524Y-17335476D01*
X12645476Y-17335476D01*
X12626428Y-17325952D01*
X12616905Y-17316429D01*
X12607381Y-17297381D01*
X12597857Y-17259286D01*
X12597857Y-17211667D01*
X12607381Y-17173571D01*
X12616905Y-17154524D01*
X12626428Y-17145000D01*
X12645476Y-17135476D01*
X12797857Y-17316429D02*
X12807381Y-17325952D01*
X12797857Y-17335476D01*
X12788333Y-17325952D01*
X12797857Y-17316429D01*
X12797857Y-17335476D01*
X12931190Y-17135476D02*
X12950238Y-17135476D01*
X12969286Y-17145000D01*
X12978809Y-17154524D01*
X12988333Y-17173571D01*
X12997857Y-17211667D01*
X12997857Y-17259286D01*
X12988333Y-17297381D01*
X12978809Y-17316429D01*
X12969286Y-17325952D01*
X12950238Y-17335476D01*
X12931190Y-17335476D01*
X12912143Y-17325952D01*
X12902619Y-17316429D01*
X12893095Y-17297381D01*
X12883571Y-17259286D01*
X12883571Y-17211667D01*
X12893095Y-17173571D01*
X12902619Y-17154524D01*
X12912143Y-17145000D01*
X12931190Y-17135476D01*
X13188333Y-17335476D02*
X13074048Y-17335476D01*
X13131190Y-17335476D02*
X13131190Y-17135476D01*
X13112143Y-17164048D01*
X13093095Y-17183095D01*
X13074048Y-17192619D01*
X13369286Y-17135476D02*
X13274048Y-17135476D01*
X13264524Y-17230714D01*
X13274048Y-17221190D01*
X13293095Y-17211667D01*
X13340714Y-17211667D01*
X13359762Y-17221190D01*
X13369286Y-17230714D01*
X13378809Y-17249762D01*
X13378809Y-17297381D01*
X13369286Y-17316429D01*
X13359762Y-17325952D01*
X13340714Y-17335476D01*
X13293095Y-17335476D01*
X13274048Y-17325952D01*
X13264524Y-17316429D01*
X13445476Y-17135476D02*
X13578809Y-17135476D01*
X13493095Y-17335476D01*
X13645476Y-17135476D02*
X13645476Y-17173571D01*
X13721667Y-17135476D02*
X13721667Y-17173571D01*
X14016905Y-17411667D02*
X14007381Y-17402143D01*
X13988333Y-17373571D01*
X13978809Y-17354524D01*
X13969286Y-17325952D01*
X13959762Y-17278333D01*
X13959762Y-17240238D01*
X13969286Y-17192619D01*
X13978809Y-17164048D01*
X13988333Y-17145000D01*
X14007381Y-17116429D01*
X14016905Y-17106905D01*
X14178809Y-17202143D02*
X14178809Y-17335476D01*
X14131190Y-17125952D02*
X14083571Y-17268810D01*
X14207381Y-17268810D01*
X14369286Y-17135476D02*
X14331190Y-17135476D01*
X14312143Y-17145000D01*
X14302619Y-17154524D01*
X14283571Y-17183095D01*
X14274048Y-17221190D01*
X14274048Y-17297381D01*
X14283571Y-17316429D01*
X14293095Y-17325952D01*
X14312143Y-17335476D01*
X14350238Y-17335476D01*
X14369286Y-17325952D01*
X14378809Y-17316429D01*
X14388333Y-17297381D01*
X14388333Y-17249762D01*
X14378809Y-17230714D01*
X14369286Y-17221190D01*
X14350238Y-17211667D01*
X14312143Y-17211667D01*
X14293095Y-17221190D01*
X14283571Y-17230714D01*
X14274048Y-17249762D01*
X14626428Y-17335476D02*
X14626428Y-17135476D01*
X14712143Y-17335476D02*
X14712143Y-17230714D01*
X14702619Y-17211667D01*
X14683571Y-17202143D01*
X14655000Y-17202143D01*
X14635952Y-17211667D01*
X14626428Y-17221190D01*
X14835952Y-17335476D02*
X14816905Y-17325952D01*
X14807381Y-17316429D01*
X14797857Y-17297381D01*
X14797857Y-17240238D01*
X14807381Y-17221190D01*
X14816905Y-17211667D01*
X14835952Y-17202143D01*
X14864524Y-17202143D01*
X14883571Y-17211667D01*
X14893095Y-17221190D01*
X14902619Y-17240238D01*
X14902619Y-17297381D01*
X14893095Y-17316429D01*
X14883571Y-17325952D01*
X14864524Y-17335476D01*
X14835952Y-17335476D01*
X15016905Y-17335476D02*
X14997857Y-17325952D01*
X14988333Y-17306905D01*
X14988333Y-17135476D01*
X15169286Y-17325952D02*
X15150238Y-17335476D01*
X15112143Y-17335476D01*
X15093095Y-17325952D01*
X15083571Y-17306905D01*
X15083571Y-17230714D01*
X15093095Y-17211667D01*
X15112143Y-17202143D01*
X15150238Y-17202143D01*
X15169286Y-17211667D01*
X15178809Y-17230714D01*
X15178809Y-17249762D01*
X15083571Y-17268810D01*
X15255000Y-17325952D02*
X15274048Y-17335476D01*
X15312143Y-17335476D01*
X15331190Y-17325952D01*
X15340714Y-17306905D01*
X15340714Y-17297381D01*
X15331190Y-17278333D01*
X15312143Y-17268810D01*
X15283571Y-17268810D01*
X15264524Y-17259286D01*
X15255000Y-17240238D01*
X15255000Y-17230714D01*
X15264524Y-17211667D01*
X15283571Y-17202143D01*
X15312143Y-17202143D01*
X15331190Y-17211667D01*
X15407381Y-17411667D02*
X15416905Y-17402143D01*
X15435952Y-17373571D01*
X15445476Y-17354524D01*
X15455000Y-17325952D01*
X15464524Y-17278333D01*
X15464524Y-17240238D01*
X15455000Y-17192619D01*
X15445476Y-17164048D01*
X15435952Y-17145000D01*
X15416905Y-17116429D01*
X15407381Y-17106905D01*
D13*
X10445000Y-17509000D02*
G75*
G03*
X10445000Y-17509000I-30000J0D01*
G01*
D11*
X10740714Y-17399476D02*
X10759762Y-17399476D01*
X10778810Y-17409000D01*
X10788333Y-17418524D01*
X10797857Y-17437571D01*
X10807381Y-17475667D01*
X10807381Y-17523286D01*
X10797857Y-17561381D01*
X10788333Y-17580429D01*
X10778810Y-17589952D01*
X10759762Y-17599476D01*
X10740714Y-17599476D01*
X10721667Y-17589952D01*
X10712143Y-17580429D01*
X10702619Y-17561381D01*
X10693095Y-17523286D01*
X10693095Y-17475667D01*
X10702619Y-17437571D01*
X10712143Y-17418524D01*
X10721667Y-17409000D01*
X10740714Y-17399476D01*
X10893095Y-17580429D02*
X10902619Y-17589952D01*
X10893095Y-17599476D01*
X10883571Y-17589952D01*
X10893095Y-17580429D01*
X10893095Y-17599476D01*
X11074048Y-17399476D02*
X11035952Y-17399476D01*
X11016905Y-17409000D01*
X11007381Y-17418524D01*
X10988333Y-17447095D01*
X10978810Y-17485190D01*
X10978810Y-17561381D01*
X10988333Y-17580429D01*
X10997857Y-17589952D01*
X11016905Y-17599476D01*
X11055000Y-17599476D01*
X11074048Y-17589952D01*
X11083571Y-17580429D01*
X11093095Y-17561381D01*
X11093095Y-17513762D01*
X11083571Y-17494714D01*
X11074048Y-17485190D01*
X11055000Y-17475667D01*
X11016905Y-17475667D01*
X10997857Y-17485190D01*
X10988333Y-17494714D01*
X10978810Y-17513762D01*
X11216905Y-17399476D02*
X11235952Y-17399476D01*
X11255000Y-17409000D01*
X11264524Y-17418524D01*
X11274048Y-17437571D01*
X11283571Y-17475667D01*
X11283571Y-17523286D01*
X11274048Y-17561381D01*
X11264524Y-17580429D01*
X11255000Y-17589952D01*
X11235952Y-17599476D01*
X11216905Y-17599476D01*
X11197857Y-17589952D01*
X11188333Y-17580429D01*
X11178810Y-17561381D01*
X11169286Y-17523286D01*
X11169286Y-17475667D01*
X11178810Y-17437571D01*
X11188333Y-17418524D01*
X11197857Y-17409000D01*
X11216905Y-17399476D01*
X11407381Y-17399476D02*
X11426428Y-17399476D01*
X11445476Y-17409000D01*
X11455000Y-17418524D01*
X11464524Y-17437571D01*
X11474048Y-17475667D01*
X11474048Y-17523286D01*
X11464524Y-17561381D01*
X11455000Y-17580429D01*
X11445476Y-17589952D01*
X11426428Y-17599476D01*
X11407381Y-17599476D01*
X11388333Y-17589952D01*
X11378809Y-17580429D01*
X11369286Y-17561381D01*
X11359762Y-17523286D01*
X11359762Y-17475667D01*
X11369286Y-17437571D01*
X11378809Y-17418524D01*
X11388333Y-17409000D01*
X11407381Y-17399476D01*
X11559762Y-17599476D02*
X11559762Y-17466143D01*
X11559762Y-17485190D02*
X11569286Y-17475667D01*
X11588333Y-17466143D01*
X11616905Y-17466143D01*
X11635952Y-17475667D01*
X11645476Y-17494714D01*
X11645476Y-17599476D01*
X11645476Y-17494714D02*
X11655000Y-17475667D01*
X11674048Y-17466143D01*
X11702619Y-17466143D01*
X11721667Y-17475667D01*
X11731190Y-17494714D01*
X11731190Y-17599476D01*
X11826428Y-17599476D02*
X11826428Y-17466143D01*
X11826428Y-17485190D02*
X11835952Y-17475667D01*
X11855000Y-17466143D01*
X11883571Y-17466143D01*
X11902619Y-17475667D01*
X11912143Y-17494714D01*
X11912143Y-17599476D01*
X11912143Y-17494714D02*
X11921667Y-17475667D01*
X11940714Y-17466143D01*
X11969286Y-17466143D01*
X11988333Y-17475667D01*
X11997857Y-17494714D01*
X11997857Y-17599476D01*
X12388333Y-17389952D02*
X12216905Y-17647095D01*
X12645476Y-17399476D02*
X12664524Y-17399476D01*
X12683571Y-17409000D01*
X12693095Y-17418524D01*
X12702619Y-17437571D01*
X12712143Y-17475667D01*
X12712143Y-17523286D01*
X12702619Y-17561381D01*
X12693095Y-17580429D01*
X12683571Y-17589952D01*
X12664524Y-17599476D01*
X12645476Y-17599476D01*
X12626428Y-17589952D01*
X12616905Y-17580429D01*
X12607381Y-17561381D01*
X12597857Y-17523286D01*
X12597857Y-17475667D01*
X12607381Y-17437571D01*
X12616905Y-17418524D01*
X12626428Y-17409000D01*
X12645476Y-17399476D01*
X12797857Y-17580429D02*
X12807381Y-17589952D01*
X12797857Y-17599476D01*
X12788333Y-17589952D01*
X12797857Y-17580429D01*
X12797857Y-17599476D01*
X12931190Y-17399476D02*
X12950238Y-17399476D01*
X12969286Y-17409000D01*
X12978809Y-17418524D01*
X12988333Y-17437571D01*
X12997857Y-17475667D01*
X12997857Y-17523286D01*
X12988333Y-17561381D01*
X12978809Y-17580429D01*
X12969286Y-17589952D01*
X12950238Y-17599476D01*
X12931190Y-17599476D01*
X12912143Y-17589952D01*
X12902619Y-17580429D01*
X12893095Y-17561381D01*
X12883571Y-17523286D01*
X12883571Y-17475667D01*
X12893095Y-17437571D01*
X12902619Y-17418524D01*
X12912143Y-17409000D01*
X12931190Y-17399476D01*
X13074048Y-17418524D02*
X13083571Y-17409000D01*
X13102619Y-17399476D01*
X13150238Y-17399476D01*
X13169286Y-17409000D01*
X13178809Y-17418524D01*
X13188333Y-17437571D01*
X13188333Y-17456619D01*
X13178809Y-17485190D01*
X13064524Y-17599476D01*
X13188333Y-17599476D01*
X13255000Y-17399476D02*
X13378809Y-17399476D01*
X13312143Y-17475667D01*
X13340714Y-17475667D01*
X13359762Y-17485190D01*
X13369286Y-17494714D01*
X13378809Y-17513762D01*
X13378809Y-17561381D01*
X13369286Y-17580429D01*
X13359762Y-17589952D01*
X13340714Y-17599476D01*
X13283571Y-17599476D01*
X13264524Y-17589952D01*
X13255000Y-17580429D01*
X13550238Y-17399476D02*
X13512143Y-17399476D01*
X13493095Y-17409000D01*
X13483571Y-17418524D01*
X13464524Y-17447095D01*
X13455000Y-17485190D01*
X13455000Y-17561381D01*
X13464524Y-17580429D01*
X13474048Y-17589952D01*
X13493095Y-17599476D01*
X13531190Y-17599476D01*
X13550238Y-17589952D01*
X13559762Y-17580429D01*
X13569286Y-17561381D01*
X13569286Y-17513762D01*
X13559762Y-17494714D01*
X13550238Y-17485190D01*
X13531190Y-17475667D01*
X13493095Y-17475667D01*
X13474048Y-17485190D01*
X13464524Y-17494714D01*
X13455000Y-17513762D01*
X13645476Y-17399476D02*
X13645476Y-17437571D01*
X13721667Y-17399476D02*
X13721667Y-17437571D01*
X14016905Y-17675667D02*
X14007381Y-17666143D01*
X13988333Y-17637571D01*
X13978809Y-17618524D01*
X13969286Y-17589952D01*
X13959762Y-17542333D01*
X13959762Y-17504238D01*
X13969286Y-17456619D01*
X13978809Y-17428048D01*
X13988333Y-17409000D01*
X14007381Y-17380429D01*
X14016905Y-17370905D01*
X14131190Y-17399476D02*
X14150238Y-17399476D01*
X14169286Y-17409000D01*
X14178809Y-17418524D01*
X14188333Y-17437571D01*
X14197857Y-17475667D01*
X14197857Y-17523286D01*
X14188333Y-17561381D01*
X14178809Y-17580429D01*
X14169286Y-17589952D01*
X14150238Y-17599476D01*
X14131190Y-17599476D01*
X14112143Y-17589952D01*
X14102619Y-17580429D01*
X14093095Y-17561381D01*
X14083571Y-17523286D01*
X14083571Y-17475667D01*
X14093095Y-17437571D01*
X14102619Y-17418524D01*
X14112143Y-17409000D01*
X14131190Y-17399476D01*
X14435952Y-17599476D02*
X14435952Y-17399476D01*
X14521667Y-17599476D02*
X14521667Y-17494714D01*
X14512143Y-17475667D01*
X14493095Y-17466143D01*
X14464524Y-17466143D01*
X14445476Y-17475667D01*
X14435952Y-17485190D01*
X14645476Y-17599476D02*
X14626428Y-17589952D01*
X14616905Y-17580429D01*
X14607381Y-17561381D01*
X14607381Y-17504238D01*
X14616905Y-17485190D01*
X14626428Y-17475667D01*
X14645476Y-17466143D01*
X14674048Y-17466143D01*
X14693095Y-17475667D01*
X14702619Y-17485190D01*
X14712143Y-17504238D01*
X14712143Y-17561381D01*
X14702619Y-17580429D01*
X14693095Y-17589952D01*
X14674048Y-17599476D01*
X14645476Y-17599476D01*
X14826428Y-17599476D02*
X14807381Y-17589952D01*
X14797857Y-17570905D01*
X14797857Y-17399476D01*
X14978809Y-17589952D02*
X14959762Y-17599476D01*
X14921667Y-17599476D01*
X14902619Y-17589952D01*
X14893095Y-17570905D01*
X14893095Y-17494714D01*
X14902619Y-17475667D01*
X14921667Y-17466143D01*
X14959762Y-17466143D01*
X14978809Y-17475667D01*
X14988333Y-17494714D01*
X14988333Y-17513762D01*
X14893095Y-17532810D01*
X15064524Y-17589952D02*
X15083571Y-17599476D01*
X15121667Y-17599476D01*
X15140714Y-17589952D01*
X15150238Y-17570905D01*
X15150238Y-17561381D01*
X15140714Y-17542333D01*
X15121667Y-17532810D01*
X15093095Y-17532810D01*
X15074048Y-17523286D01*
X15064524Y-17504238D01*
X15064524Y-17494714D01*
X15074048Y-17475667D01*
X15093095Y-17466143D01*
X15121667Y-17466143D01*
X15140714Y-17475667D01*
X15388333Y-17523286D02*
X15540714Y-17523286D01*
X15464524Y-17599476D02*
X15464524Y-17447095D01*
X15874048Y-17466143D02*
X15874048Y-17599476D01*
X15826428Y-17389952D02*
X15778809Y-17532810D01*
X15902619Y-17532810D01*
X16121667Y-17589952D02*
X16140714Y-17599476D01*
X16178809Y-17599476D01*
X16197857Y-17589952D01*
X16207381Y-17570905D01*
X16207381Y-17561381D01*
X16197857Y-17542333D01*
X16178809Y-17532810D01*
X16150238Y-17532810D01*
X16131190Y-17523286D01*
X16121667Y-17504238D01*
X16121667Y-17494714D01*
X16131190Y-17475667D01*
X16150238Y-17466143D01*
X16178809Y-17466143D01*
X16197857Y-17475667D01*
X16321667Y-17599476D02*
X16302619Y-17589952D01*
X16293095Y-17570905D01*
X16293095Y-17399476D01*
X16426428Y-17599476D02*
X16407381Y-17589952D01*
X16397857Y-17580429D01*
X16388333Y-17561381D01*
X16388333Y-17504238D01*
X16397857Y-17485190D01*
X16407381Y-17475667D01*
X16426428Y-17466143D01*
X16455000Y-17466143D01*
X16474048Y-17475667D01*
X16483571Y-17485190D01*
X16493095Y-17504238D01*
X16493095Y-17561381D01*
X16483571Y-17580429D01*
X16474048Y-17589952D01*
X16455000Y-17599476D01*
X16426428Y-17599476D01*
X16550238Y-17466143D02*
X16626428Y-17466143D01*
X16578809Y-17399476D02*
X16578809Y-17570905D01*
X16588333Y-17589952D01*
X16607381Y-17599476D01*
X16626428Y-17599476D01*
X16683571Y-17589952D02*
X16702619Y-17599476D01*
X16740714Y-17599476D01*
X16759762Y-17589952D01*
X16769286Y-17570905D01*
X16769286Y-17561381D01*
X16759762Y-17542333D01*
X16740714Y-17532810D01*
X16712143Y-17532810D01*
X16693095Y-17523286D01*
X16683571Y-17504238D01*
X16683571Y-17494714D01*
X16693095Y-17475667D01*
X16712143Y-17466143D01*
X16740714Y-17466143D01*
X16759762Y-17475667D01*
X16835952Y-17675667D02*
X16845476Y-17666143D01*
X16864524Y-17637571D01*
X16874048Y-17618524D01*
X16883571Y-17589952D01*
X16893095Y-17542333D01*
X16893095Y-17504238D01*
X16883571Y-17456619D01*
X16874048Y-17428048D01*
X16864524Y-17409000D01*
X16845476Y-17380429D01*
X16835952Y-17370905D01*
D14*
X10400000Y-17728000D02*
X10400000Y-17818000D01*
X10355000Y-17773000D02*
X10445000Y-17773000D01*
D11*
X10740714Y-17663476D02*
X10759762Y-17663476D01*
X10778810Y-17673000D01*
X10788333Y-17682524D01*
X10797857Y-17701571D01*
X10807381Y-17739667D01*
X10807381Y-17787286D01*
X10797857Y-17825381D01*
X10788333Y-17844429D01*
X10778810Y-17853952D01*
X10759762Y-17863476D01*
X10740714Y-17863476D01*
X10721667Y-17853952D01*
X10712143Y-17844429D01*
X10702619Y-17825381D01*
X10693095Y-17787286D01*
X10693095Y-17739667D01*
X10702619Y-17701571D01*
X10712143Y-17682524D01*
X10721667Y-17673000D01*
X10740714Y-17663476D01*
X10893095Y-17844429D02*
X10902619Y-17853952D01*
X10893095Y-17863476D01*
X10883571Y-17853952D01*
X10893095Y-17844429D01*
X10893095Y-17863476D01*
X10997857Y-17863476D02*
X11035952Y-17863476D01*
X11055000Y-17853952D01*
X11064524Y-17844429D01*
X11083571Y-17815857D01*
X11093095Y-17777762D01*
X11093095Y-17701571D01*
X11083571Y-17682524D01*
X11074048Y-17673000D01*
X11055000Y-17663476D01*
X11016905Y-17663476D01*
X10997857Y-17673000D01*
X10988333Y-17682524D01*
X10978810Y-17701571D01*
X10978810Y-17749190D01*
X10988333Y-17768238D01*
X10997857Y-17777762D01*
X11016905Y-17787286D01*
X11055000Y-17787286D01*
X11074048Y-17777762D01*
X11083571Y-17768238D01*
X11093095Y-17749190D01*
X11216905Y-17663476D02*
X11235952Y-17663476D01*
X11255000Y-17673000D01*
X11264524Y-17682524D01*
X11274048Y-17701571D01*
X11283571Y-17739667D01*
X11283571Y-17787286D01*
X11274048Y-17825381D01*
X11264524Y-17844429D01*
X11255000Y-17853952D01*
X11235952Y-17863476D01*
X11216905Y-17863476D01*
X11197857Y-17853952D01*
X11188333Y-17844429D01*
X11178810Y-17825381D01*
X11169286Y-17787286D01*
X11169286Y-17739667D01*
X11178810Y-17701571D01*
X11188333Y-17682524D01*
X11197857Y-17673000D01*
X11216905Y-17663476D01*
X11407381Y-17663476D02*
X11426428Y-17663476D01*
X11445476Y-17673000D01*
X11455000Y-17682524D01*
X11464524Y-17701571D01*
X11474048Y-17739667D01*
X11474048Y-17787286D01*
X11464524Y-17825381D01*
X11455000Y-17844429D01*
X11445476Y-17853952D01*
X11426428Y-17863476D01*
X11407381Y-17863476D01*
X11388333Y-17853952D01*
X11378809Y-17844429D01*
X11369286Y-17825381D01*
X11359762Y-17787286D01*
X11359762Y-17739667D01*
X11369286Y-17701571D01*
X11378809Y-17682524D01*
X11388333Y-17673000D01*
X11407381Y-17663476D01*
X11559762Y-17863476D02*
X11559762Y-17730143D01*
X11559762Y-17749190D02*
X11569286Y-17739667D01*
X11588333Y-17730143D01*
X11616905Y-17730143D01*
X11635952Y-17739667D01*
X11645476Y-17758714D01*
X11645476Y-17863476D01*
X11645476Y-17758714D02*
X11655000Y-17739667D01*
X11674048Y-17730143D01*
X11702619Y-17730143D01*
X11721667Y-17739667D01*
X11731190Y-17758714D01*
X11731190Y-17863476D01*
X11826428Y-17863476D02*
X11826428Y-17730143D01*
X11826428Y-17749190D02*
X11835952Y-17739667D01*
X11855000Y-17730143D01*
X11883571Y-17730143D01*
X11902619Y-17739667D01*
X11912143Y-17758714D01*
X11912143Y-17863476D01*
X11912143Y-17758714D02*
X11921667Y-17739667D01*
X11940714Y-17730143D01*
X11969286Y-17730143D01*
X11988333Y-17739667D01*
X11997857Y-17758714D01*
X11997857Y-17863476D01*
X12388333Y-17653952D02*
X12216905Y-17911095D01*
X12645476Y-17663476D02*
X12664524Y-17663476D01*
X12683571Y-17673000D01*
X12693095Y-17682524D01*
X12702619Y-17701571D01*
X12712143Y-17739667D01*
X12712143Y-17787286D01*
X12702619Y-17825381D01*
X12693095Y-17844429D01*
X12683571Y-17853952D01*
X12664524Y-17863476D01*
X12645476Y-17863476D01*
X12626428Y-17853952D01*
X12616905Y-17844429D01*
X12607381Y-17825381D01*
X12597857Y-17787286D01*
X12597857Y-17739667D01*
X12607381Y-17701571D01*
X12616905Y-17682524D01*
X12626428Y-17673000D01*
X12645476Y-17663476D01*
X12797857Y-17844429D02*
X12807381Y-17853952D01*
X12797857Y-17863476D01*
X12788333Y-17853952D01*
X12797857Y-17844429D01*
X12797857Y-17863476D01*
X12931190Y-17663476D02*
X12950238Y-17663476D01*
X12969286Y-17673000D01*
X12978809Y-17682524D01*
X12988333Y-17701571D01*
X12997857Y-17739667D01*
X12997857Y-17787286D01*
X12988333Y-17825381D01*
X12978809Y-17844429D01*
X12969286Y-17853952D01*
X12950238Y-17863476D01*
X12931190Y-17863476D01*
X12912143Y-17853952D01*
X12902619Y-17844429D01*
X12893095Y-17825381D01*
X12883571Y-17787286D01*
X12883571Y-17739667D01*
X12893095Y-17701571D01*
X12902619Y-17682524D01*
X12912143Y-17673000D01*
X12931190Y-17663476D01*
X13064524Y-17663476D02*
X13188333Y-17663476D01*
X13121667Y-17739667D01*
X13150238Y-17739667D01*
X13169286Y-17749190D01*
X13178809Y-17758714D01*
X13188333Y-17777762D01*
X13188333Y-17825381D01*
X13178809Y-17844429D01*
X13169286Y-17853952D01*
X13150238Y-17863476D01*
X13093095Y-17863476D01*
X13074048Y-17853952D01*
X13064524Y-17844429D01*
X13369286Y-17663476D02*
X13274048Y-17663476D01*
X13264524Y-17758714D01*
X13274048Y-17749190D01*
X13293095Y-17739667D01*
X13340714Y-17739667D01*
X13359762Y-17749190D01*
X13369286Y-17758714D01*
X13378809Y-17777762D01*
X13378809Y-17825381D01*
X13369286Y-17844429D01*
X13359762Y-17853952D01*
X13340714Y-17863476D01*
X13293095Y-17863476D01*
X13274048Y-17853952D01*
X13264524Y-17844429D01*
X13550238Y-17730143D02*
X13550238Y-17863476D01*
X13502619Y-17653952D02*
X13455000Y-17796810D01*
X13578809Y-17796810D01*
X13645476Y-17663476D02*
X13645476Y-17701571D01*
X13721667Y-17663476D02*
X13721667Y-17701571D01*
X14016905Y-17939667D02*
X14007381Y-17930143D01*
X13988333Y-17901571D01*
X13978809Y-17882524D01*
X13969286Y-17853952D01*
X13959762Y-17806333D01*
X13959762Y-17768238D01*
X13969286Y-17720619D01*
X13978809Y-17692048D01*
X13988333Y-17673000D01*
X14007381Y-17644429D01*
X14016905Y-17634905D01*
X14121667Y-17749190D02*
X14102619Y-17739667D01*
X14093095Y-17730143D01*
X14083571Y-17711095D01*
X14083571Y-17701571D01*
X14093095Y-17682524D01*
X14102619Y-17673000D01*
X14121667Y-17663476D01*
X14159762Y-17663476D01*
X14178809Y-17673000D01*
X14188333Y-17682524D01*
X14197857Y-17701571D01*
X14197857Y-17711095D01*
X14188333Y-17730143D01*
X14178809Y-17739667D01*
X14159762Y-17749190D01*
X14121667Y-17749190D01*
X14102619Y-17758714D01*
X14093095Y-17768238D01*
X14083571Y-17787286D01*
X14083571Y-17825381D01*
X14093095Y-17844429D01*
X14102619Y-17853952D01*
X14121667Y-17863476D01*
X14159762Y-17863476D01*
X14178809Y-17853952D01*
X14188333Y-17844429D01*
X14197857Y-17825381D01*
X14197857Y-17787286D01*
X14188333Y-17768238D01*
X14178809Y-17758714D01*
X14159762Y-17749190D01*
X14435952Y-17863476D02*
X14435952Y-17663476D01*
X14521667Y-17863476D02*
X14521667Y-17758714D01*
X14512143Y-17739667D01*
X14493095Y-17730143D01*
X14464524Y-17730143D01*
X14445476Y-17739667D01*
X14435952Y-17749190D01*
X14645476Y-17863476D02*
X14626428Y-17853952D01*
X14616905Y-17844429D01*
X14607381Y-17825381D01*
X14607381Y-17768238D01*
X14616905Y-17749190D01*
X14626428Y-17739667D01*
X14645476Y-17730143D01*
X14674048Y-17730143D01*
X14693095Y-17739667D01*
X14702619Y-17749190D01*
X14712143Y-17768238D01*
X14712143Y-17825381D01*
X14702619Y-17844429D01*
X14693095Y-17853952D01*
X14674048Y-17863476D01*
X14645476Y-17863476D01*
X14826428Y-17863476D02*
X14807381Y-17853952D01*
X14797857Y-17834905D01*
X14797857Y-17663476D01*
X14978809Y-17853952D02*
X14959762Y-17863476D01*
X14921667Y-17863476D01*
X14902619Y-17853952D01*
X14893095Y-17834905D01*
X14893095Y-17758714D01*
X14902619Y-17739667D01*
X14921667Y-17730143D01*
X14959762Y-17730143D01*
X14978809Y-17739667D01*
X14988333Y-17758714D01*
X14988333Y-17777762D01*
X14893095Y-17796810D01*
X15064524Y-17853952D02*
X15083571Y-17863476D01*
X15121667Y-17863476D01*
X15140714Y-17853952D01*
X15150238Y-17834905D01*
X15150238Y-17825381D01*
X15140714Y-17806333D01*
X15121667Y-17796810D01*
X15093095Y-17796810D01*
X15074048Y-17787286D01*
X15064524Y-17768238D01*
X15064524Y-17758714D01*
X15074048Y-17739667D01*
X15093095Y-17730143D01*
X15121667Y-17730143D01*
X15140714Y-17739667D01*
X15216905Y-17939667D02*
X15226428Y-17930143D01*
X15245476Y-17901571D01*
X15255000Y-17882524D01*
X15264524Y-17853952D01*
X15274048Y-17806333D01*
X15274048Y-17768238D01*
X15264524Y-17720619D01*
X15255000Y-17692048D01*
X15245476Y-17673000D01*
X15226428Y-17644429D01*
X15216905Y-17634905D01*
D15*
X10430356Y-18072356D02*
X10430356Y-18001644D01*
X10359644Y-18001644D01*
X10359644Y-18072356D01*
X10430356Y-18072356D01*
D11*
X10807381Y-18127476D02*
X10693095Y-18127476D01*
X10750238Y-18127476D02*
X10750238Y-17927476D01*
X10731190Y-17956048D01*
X10712143Y-17975095D01*
X10693095Y-17984619D01*
X10893095Y-18108429D02*
X10902619Y-18117952D01*
X10893095Y-18127476D01*
X10883571Y-18117952D01*
X10893095Y-18108429D01*
X10893095Y-18127476D01*
X11026429Y-17927476D02*
X11045476Y-17927476D01*
X11064524Y-17937000D01*
X11074048Y-17946524D01*
X11083571Y-17965571D01*
X11093095Y-18003667D01*
X11093095Y-18051286D01*
X11083571Y-18089381D01*
X11074048Y-18108429D01*
X11064524Y-18117952D01*
X11045476Y-18127476D01*
X11026429Y-18127476D01*
X11007381Y-18117952D01*
X10997857Y-18108429D01*
X10988333Y-18089381D01*
X10978810Y-18051286D01*
X10978810Y-18003667D01*
X10988333Y-17965571D01*
X10997857Y-17946524D01*
X11007381Y-17937000D01*
X11026429Y-17927476D01*
X11216905Y-17927476D02*
X11235952Y-17927476D01*
X11255000Y-17937000D01*
X11264524Y-17946524D01*
X11274048Y-17965571D01*
X11283571Y-18003667D01*
X11283571Y-18051286D01*
X11274048Y-18089381D01*
X11264524Y-18108429D01*
X11255000Y-18117952D01*
X11235952Y-18127476D01*
X11216905Y-18127476D01*
X11197857Y-18117952D01*
X11188333Y-18108429D01*
X11178810Y-18089381D01*
X11169286Y-18051286D01*
X11169286Y-18003667D01*
X11178810Y-17965571D01*
X11188333Y-17946524D01*
X11197857Y-17937000D01*
X11216905Y-17927476D01*
X11407381Y-17927476D02*
X11426428Y-17927476D01*
X11445476Y-17937000D01*
X11455000Y-17946524D01*
X11464524Y-17965571D01*
X11474048Y-18003667D01*
X11474048Y-18051286D01*
X11464524Y-18089381D01*
X11455000Y-18108429D01*
X11445476Y-18117952D01*
X11426428Y-18127476D01*
X11407381Y-18127476D01*
X11388333Y-18117952D01*
X11378809Y-18108429D01*
X11369286Y-18089381D01*
X11359762Y-18051286D01*
X11359762Y-18003667D01*
X11369286Y-17965571D01*
X11378809Y-17946524D01*
X11388333Y-17937000D01*
X11407381Y-17927476D01*
X11559762Y-18127476D02*
X11559762Y-17994143D01*
X11559762Y-18013190D02*
X11569286Y-18003667D01*
X11588333Y-17994143D01*
X11616905Y-17994143D01*
X11635952Y-18003667D01*
X11645476Y-18022714D01*
X11645476Y-18127476D01*
X11645476Y-18022714D02*
X11655000Y-18003667D01*
X11674048Y-17994143D01*
X11702619Y-17994143D01*
X11721667Y-18003667D01*
X11731190Y-18022714D01*
X11731190Y-18127476D01*
X11826428Y-18127476D02*
X11826428Y-17994143D01*
X11826428Y-18013190D02*
X11835952Y-18003667D01*
X11855000Y-17994143D01*
X11883571Y-17994143D01*
X11902619Y-18003667D01*
X11912143Y-18022714D01*
X11912143Y-18127476D01*
X11912143Y-18022714D02*
X11921667Y-18003667D01*
X11940714Y-17994143D01*
X11969286Y-17994143D01*
X11988333Y-18003667D01*
X11997857Y-18022714D01*
X11997857Y-18127476D01*
X12388333Y-17917952D02*
X12216905Y-18175095D01*
X12645476Y-17927476D02*
X12664524Y-17927476D01*
X12683571Y-17937000D01*
X12693095Y-17946524D01*
X12702619Y-17965571D01*
X12712143Y-18003667D01*
X12712143Y-18051286D01*
X12702619Y-18089381D01*
X12693095Y-18108429D01*
X12683571Y-18117952D01*
X12664524Y-18127476D01*
X12645476Y-18127476D01*
X12626428Y-18117952D01*
X12616905Y-18108429D01*
X12607381Y-18089381D01*
X12597857Y-18051286D01*
X12597857Y-18003667D01*
X12607381Y-17965571D01*
X12616905Y-17946524D01*
X12626428Y-17937000D01*
X12645476Y-17927476D01*
X12797857Y-18108429D02*
X12807381Y-18117952D01*
X12797857Y-18127476D01*
X12788333Y-18117952D01*
X12797857Y-18108429D01*
X12797857Y-18127476D01*
X12931190Y-17927476D02*
X12950238Y-17927476D01*
X12969286Y-17937000D01*
X12978809Y-17946524D01*
X12988333Y-17965571D01*
X12997857Y-18003667D01*
X12997857Y-18051286D01*
X12988333Y-18089381D01*
X12978809Y-18108429D01*
X12969286Y-18117952D01*
X12950238Y-18127476D01*
X12931190Y-18127476D01*
X12912143Y-18117952D01*
X12902619Y-18108429D01*
X12893095Y-18089381D01*
X12883571Y-18051286D01*
X12883571Y-18003667D01*
X12893095Y-17965571D01*
X12902619Y-17946524D01*
X12912143Y-17937000D01*
X12931190Y-17927476D01*
X13064524Y-17927476D02*
X13188333Y-17927476D01*
X13121667Y-18003667D01*
X13150238Y-18003667D01*
X13169286Y-18013190D01*
X13178809Y-18022714D01*
X13188333Y-18041762D01*
X13188333Y-18089381D01*
X13178809Y-18108429D01*
X13169286Y-18117952D01*
X13150238Y-18127476D01*
X13093095Y-18127476D01*
X13074048Y-18117952D01*
X13064524Y-18108429D01*
X13283571Y-18127476D02*
X13321667Y-18127476D01*
X13340714Y-18117952D01*
X13350238Y-18108429D01*
X13369286Y-18079857D01*
X13378809Y-18041762D01*
X13378809Y-17965571D01*
X13369286Y-17946524D01*
X13359762Y-17937000D01*
X13340714Y-17927476D01*
X13302619Y-17927476D01*
X13283571Y-17937000D01*
X13274048Y-17946524D01*
X13264524Y-17965571D01*
X13264524Y-18013190D01*
X13274048Y-18032238D01*
X13283571Y-18041762D01*
X13302619Y-18051286D01*
X13340714Y-18051286D01*
X13359762Y-18041762D01*
X13369286Y-18032238D01*
X13378809Y-18013190D01*
X13550238Y-17994143D02*
X13550238Y-18127476D01*
X13502619Y-17917952D02*
X13455000Y-18060810D01*
X13578809Y-18060810D01*
X13645476Y-17927476D02*
X13645476Y-17965571D01*
X13721667Y-17927476D02*
X13721667Y-17965571D01*
X14016905Y-18203667D02*
X14007381Y-18194143D01*
X13988333Y-18165571D01*
X13978809Y-18146524D01*
X13969286Y-18117952D01*
X13959762Y-18070333D01*
X13959762Y-18032238D01*
X13969286Y-17984619D01*
X13978809Y-17956048D01*
X13988333Y-17937000D01*
X14007381Y-17908429D01*
X14016905Y-17898905D01*
X14178809Y-17927476D02*
X14140714Y-17927476D01*
X14121667Y-17937000D01*
X14112143Y-17946524D01*
X14093095Y-17975095D01*
X14083571Y-18013190D01*
X14083571Y-18089381D01*
X14093095Y-18108429D01*
X14102619Y-18117952D01*
X14121667Y-18127476D01*
X14159762Y-18127476D01*
X14178809Y-18117952D01*
X14188333Y-18108429D01*
X14197857Y-18089381D01*
X14197857Y-18041762D01*
X14188333Y-18022714D01*
X14178809Y-18013190D01*
X14159762Y-18003667D01*
X14121667Y-18003667D01*
X14102619Y-18013190D01*
X14093095Y-18022714D01*
X14083571Y-18041762D01*
X14435952Y-18127476D02*
X14435952Y-17927476D01*
X14521667Y-18127476D02*
X14521667Y-18022714D01*
X14512143Y-18003667D01*
X14493095Y-17994143D01*
X14464524Y-17994143D01*
X14445476Y-18003667D01*
X14435952Y-18013190D01*
X14645476Y-18127476D02*
X14626428Y-18117952D01*
X14616905Y-18108429D01*
X14607381Y-18089381D01*
X14607381Y-18032238D01*
X14616905Y-18013190D01*
X14626428Y-18003667D01*
X14645476Y-17994143D01*
X14674048Y-17994143D01*
X14693095Y-18003667D01*
X14702619Y-18013190D01*
X14712143Y-18032238D01*
X14712143Y-18089381D01*
X14702619Y-18108429D01*
X14693095Y-18117952D01*
X14674048Y-18127476D01*
X14645476Y-18127476D01*
X14826428Y-18127476D02*
X14807381Y-18117952D01*
X14797857Y-18098905D01*
X14797857Y-17927476D01*
X14978809Y-18117952D02*
X14959762Y-18127476D01*
X14921667Y-18127476D01*
X14902619Y-18117952D01*
X14893095Y-18098905D01*
X14893095Y-18022714D01*
X14902619Y-18003667D01*
X14921667Y-17994143D01*
X14959762Y-17994143D01*
X14978809Y-18003667D01*
X14988333Y-18022714D01*
X14988333Y-18041762D01*
X14893095Y-18060810D01*
X15064524Y-18117952D02*
X15083571Y-18127476D01*
X15121667Y-18127476D01*
X15140714Y-18117952D01*
X15150238Y-18098905D01*
X15150238Y-18089381D01*
X15140714Y-18070333D01*
X15121667Y-18060810D01*
X15093095Y-18060810D01*
X15074048Y-18051286D01*
X15064524Y-18032238D01*
X15064524Y-18022714D01*
X15074048Y-18003667D01*
X15093095Y-17994143D01*
X15121667Y-17994143D01*
X15140714Y-18003667D01*
X15216905Y-18203667D02*
X15226428Y-18194143D01*
X15245476Y-18165571D01*
X15255000Y-18146524D01*
X15264524Y-18117952D01*
X15274048Y-18070333D01*
X15274048Y-18032238D01*
X15264524Y-17984619D01*
X15255000Y-17956048D01*
X15245476Y-17937000D01*
X15226428Y-17908429D01*
X15216905Y-17898905D01*
D16*
X10390000Y-18356000D02*
X10445000Y-18301000D01*
X10390000Y-18246000D01*
X10335000Y-18301000D01*
X10390000Y-18356000D01*
D11*
X10807381Y-18391476D02*
X10693095Y-18391476D01*
X10750238Y-18391476D02*
X10750238Y-18191476D01*
X10731190Y-18220048D01*
X10712143Y-18239095D01*
X10693095Y-18248619D01*
X10893095Y-18372429D02*
X10902619Y-18381952D01*
X10893095Y-18391476D01*
X10883571Y-18381952D01*
X10893095Y-18372429D01*
X10893095Y-18391476D01*
X11093095Y-18391476D02*
X10978810Y-18391476D01*
X11035952Y-18391476D02*
X11035952Y-18191476D01*
X11016905Y-18220048D01*
X10997857Y-18239095D01*
X10978810Y-18248619D01*
X11216905Y-18191476D02*
X11235952Y-18191476D01*
X11255000Y-18201000D01*
X11264524Y-18210524D01*
X11274048Y-18229571D01*
X11283571Y-18267667D01*
X11283571Y-18315286D01*
X11274048Y-18353381D01*
X11264524Y-18372429D01*
X11255000Y-18381952D01*
X11235952Y-18391476D01*
X11216905Y-18391476D01*
X11197857Y-18381952D01*
X11188333Y-18372429D01*
X11178810Y-18353381D01*
X11169286Y-18315286D01*
X11169286Y-18267667D01*
X11178810Y-18229571D01*
X11188333Y-18210524D01*
X11197857Y-18201000D01*
X11216905Y-18191476D01*
X11407381Y-18191476D02*
X11426428Y-18191476D01*
X11445476Y-18201000D01*
X11455000Y-18210524D01*
X11464524Y-18229571D01*
X11474048Y-18267667D01*
X11474048Y-18315286D01*
X11464524Y-18353381D01*
X11455000Y-18372429D01*
X11445476Y-18381952D01*
X11426428Y-18391476D01*
X11407381Y-18391476D01*
X11388333Y-18381952D01*
X11378809Y-18372429D01*
X11369286Y-18353381D01*
X11359762Y-18315286D01*
X11359762Y-18267667D01*
X11369286Y-18229571D01*
X11378809Y-18210524D01*
X11388333Y-18201000D01*
X11407381Y-18191476D01*
X11559762Y-18391476D02*
X11559762Y-18258143D01*
X11559762Y-18277190D02*
X11569286Y-18267667D01*
X11588333Y-18258143D01*
X11616905Y-18258143D01*
X11635952Y-18267667D01*
X11645476Y-18286714D01*
X11645476Y-18391476D01*
X11645476Y-18286714D02*
X11655000Y-18267667D01*
X11674048Y-18258143D01*
X11702619Y-18258143D01*
X11721667Y-18267667D01*
X11731190Y-18286714D01*
X11731190Y-18391476D01*
X11826428Y-18391476D02*
X11826428Y-18258143D01*
X11826428Y-18277190D02*
X11835952Y-18267667D01*
X11855000Y-18258143D01*
X11883571Y-18258143D01*
X11902619Y-18267667D01*
X11912143Y-18286714D01*
X11912143Y-18391476D01*
X11912143Y-18286714D02*
X11921667Y-18267667D01*
X11940714Y-18258143D01*
X11969286Y-18258143D01*
X11988333Y-18267667D01*
X11997857Y-18286714D01*
X11997857Y-18391476D01*
X12388333Y-18181952D02*
X12216905Y-18439095D01*
X12645476Y-18191476D02*
X12664524Y-18191476D01*
X12683571Y-18201000D01*
X12693095Y-18210524D01*
X12702619Y-18229571D01*
X12712143Y-18267667D01*
X12712143Y-18315286D01*
X12702619Y-18353381D01*
X12693095Y-18372429D01*
X12683571Y-18381952D01*
X12664524Y-18391476D01*
X12645476Y-18391476D01*
X12626428Y-18381952D01*
X12616905Y-18372429D01*
X12607381Y-18353381D01*
X12597857Y-18315286D01*
X12597857Y-18267667D01*
X12607381Y-18229571D01*
X12616905Y-18210524D01*
X12626428Y-18201000D01*
X12645476Y-18191476D01*
X12797857Y-18372429D02*
X12807381Y-18381952D01*
X12797857Y-18391476D01*
X12788333Y-18381952D01*
X12797857Y-18372429D01*
X12797857Y-18391476D01*
X12931190Y-18191476D02*
X12950238Y-18191476D01*
X12969286Y-18201000D01*
X12978809Y-18210524D01*
X12988333Y-18229571D01*
X12997857Y-18267667D01*
X12997857Y-18315286D01*
X12988333Y-18353381D01*
X12978809Y-18372429D01*
X12969286Y-18381952D01*
X12950238Y-18391476D01*
X12931190Y-18391476D01*
X12912143Y-18381952D01*
X12902619Y-18372429D01*
X12893095Y-18353381D01*
X12883571Y-18315286D01*
X12883571Y-18267667D01*
X12893095Y-18229571D01*
X12902619Y-18210524D01*
X12912143Y-18201000D01*
X12931190Y-18191476D01*
X13169286Y-18258143D02*
X13169286Y-18391476D01*
X13121667Y-18181952D02*
X13074048Y-18324810D01*
X13197857Y-18324810D01*
X13255000Y-18191476D02*
X13378809Y-18191476D01*
X13312143Y-18267667D01*
X13340714Y-18267667D01*
X13359762Y-18277190D01*
X13369286Y-18286714D01*
X13378809Y-18305762D01*
X13378809Y-18353381D01*
X13369286Y-18372429D01*
X13359762Y-18381952D01*
X13340714Y-18391476D01*
X13283571Y-18391476D01*
X13264524Y-18381952D01*
X13255000Y-18372429D01*
X13445476Y-18191476D02*
X13569286Y-18191476D01*
X13502619Y-18267667D01*
X13531190Y-18267667D01*
X13550238Y-18277190D01*
X13559762Y-18286714D01*
X13569286Y-18305762D01*
X13569286Y-18353381D01*
X13559762Y-18372429D01*
X13550238Y-18381952D01*
X13531190Y-18391476D01*
X13474048Y-18391476D01*
X13455000Y-18381952D01*
X13445476Y-18372429D01*
X13645476Y-18191476D02*
X13645476Y-18229571D01*
X13721667Y-18191476D02*
X13721667Y-18229571D01*
X14016905Y-18467667D02*
X14007381Y-18458143D01*
X13988333Y-18429571D01*
X13978809Y-18410524D01*
X13969286Y-18381952D01*
X13959762Y-18334333D01*
X13959762Y-18296238D01*
X13969286Y-18248619D01*
X13978809Y-18220048D01*
X13988333Y-18201000D01*
X14007381Y-18172429D01*
X14016905Y-18162905D01*
X14197857Y-18391476D02*
X14083571Y-18391476D01*
X14140714Y-18391476D02*
X14140714Y-18191476D01*
X14121667Y-18220048D01*
X14102619Y-18239095D01*
X14083571Y-18248619D01*
X14369286Y-18191476D02*
X14331190Y-18191476D01*
X14312143Y-18201000D01*
X14302619Y-18210524D01*
X14283571Y-18239095D01*
X14274048Y-18277190D01*
X14274048Y-18353381D01*
X14283571Y-18372429D01*
X14293095Y-18381952D01*
X14312143Y-18391476D01*
X14350238Y-18391476D01*
X14369286Y-18381952D01*
X14378809Y-18372429D01*
X14388333Y-18353381D01*
X14388333Y-18305762D01*
X14378809Y-18286714D01*
X14369286Y-18277190D01*
X14350238Y-18267667D01*
X14312143Y-18267667D01*
X14293095Y-18277190D01*
X14283571Y-18286714D01*
X14274048Y-18305762D01*
X14502619Y-18277190D02*
X14483571Y-18267667D01*
X14474048Y-18258143D01*
X14464524Y-18239095D01*
X14464524Y-18229571D01*
X14474048Y-18210524D01*
X14483571Y-18201000D01*
X14502619Y-18191476D01*
X14540714Y-18191476D01*
X14559762Y-18201000D01*
X14569286Y-18210524D01*
X14578809Y-18229571D01*
X14578809Y-18239095D01*
X14569286Y-18258143D01*
X14559762Y-18267667D01*
X14540714Y-18277190D01*
X14502619Y-18277190D01*
X14483571Y-18286714D01*
X14474048Y-18296238D01*
X14464524Y-18315286D01*
X14464524Y-18353381D01*
X14474048Y-18372429D01*
X14483571Y-18381952D01*
X14502619Y-18391476D01*
X14540714Y-18391476D01*
X14559762Y-18381952D01*
X14569286Y-18372429D01*
X14578809Y-18353381D01*
X14578809Y-18315286D01*
X14569286Y-18296238D01*
X14559762Y-18286714D01*
X14540714Y-18277190D01*
X14816905Y-18391476D02*
X14816905Y-18191476D01*
X14902619Y-18391476D02*
X14902619Y-18286714D01*
X14893095Y-18267667D01*
X14874048Y-18258143D01*
X14845476Y-18258143D01*
X14826428Y-18267667D01*
X14816905Y-18277190D01*
X15026428Y-18391476D02*
X15007381Y-18381952D01*
X14997857Y-18372429D01*
X14988333Y-18353381D01*
X14988333Y-18296238D01*
X14997857Y-18277190D01*
X15007381Y-18267667D01*
X15026428Y-18258143D01*
X15055000Y-18258143D01*
X15074048Y-18267667D01*
X15083571Y-18277190D01*
X15093095Y-18296238D01*
X15093095Y-18353381D01*
X15083571Y-18372429D01*
X15074048Y-18381952D01*
X15055000Y-18391476D01*
X15026428Y-18391476D01*
X15207381Y-18391476D02*
X15188333Y-18381952D01*
X15178809Y-18362905D01*
X15178809Y-18191476D01*
X15359762Y-18381952D02*
X15340714Y-18391476D01*
X15302619Y-18391476D01*
X15283571Y-18381952D01*
X15274048Y-18362905D01*
X15274048Y-18286714D01*
X15283571Y-18267667D01*
X15302619Y-18258143D01*
X15340714Y-18258143D01*
X15359762Y-18267667D01*
X15369286Y-18286714D01*
X15369286Y-18305762D01*
X15274048Y-18324810D01*
X15445476Y-18381952D02*
X15464524Y-18391476D01*
X15502619Y-18391476D01*
X15521667Y-18381952D01*
X15531190Y-18362905D01*
X15531190Y-18353381D01*
X15521667Y-18334333D01*
X15502619Y-18324810D01*
X15474048Y-18324810D01*
X15455000Y-18315286D01*
X15445476Y-18296238D01*
X15445476Y-18286714D01*
X15455000Y-18267667D01*
X15474048Y-18258143D01*
X15502619Y-18258143D01*
X15521667Y-18267667D01*
X15597857Y-18467667D02*
X15607381Y-18458143D01*
X15626428Y-18429571D01*
X15635952Y-18410524D01*
X15645476Y-18381952D01*
X15655000Y-18334333D01*
X15655000Y-18296238D01*
X15645476Y-18248619D01*
X15635952Y-18220048D01*
X15626428Y-18201000D01*
X15607381Y-18172429D01*
X15597857Y-18162905D01*
M02*
