M48
; DRILL file {KiCad 6.0.0} date Tue 22 Mar 2022 08:10:52 PM CET
; FORMAT={-:-/ absolute / metric / decimal}
; #@! TF.CreationDate,2022-03-22T20:10:52+01:00
; #@! TF.GenerationSoftware,Kicad,Pcbnew,6.0.0
; #@! TF.FileFunction,Plated,1,2,PTH
FMAT,2
METRIC
; #@! TA.AperFunction,Plated,PTH,ViaDrill
T1C0.400
; #@! TA.AperFunction,Plated,PTH,ComponentDrill
T2C0.600
; #@! TA.AperFunction,Plated,PTH,ComponentDrill
T3C0.900
; #@! TA.AperFunction,Plated,PTH,ComponentDrill
T4C1.000
; #@! TA.AperFunction,Plated,PTH,ComponentDrill
T5C1.100
%
G90
G05
T1
X111.308Y-58.756
X113.5Y-57.0
X115.0Y-81.5
X115.0Y-93.25
X115.0Y-105.75
X115.0Y-118.25
X115.75Y-58.25
X116.8Y-69.4
X119.25Y-68.0
X127.076Y-58.124
X129.563Y-57.956
X130.0Y-59.8
X130.311Y-58.619
X130.48Y-71.205
X130.5Y-85.5
X132.4Y-68.6
X133.0Y-71.2
X134.75Y-155.0
X134.8Y-58.124
X134.8Y-61.0
X135.7Y-76.075
X135.844Y-78.083
X136.2Y-63.0
X136.275Y-78.984
X136.4Y-57.4
X136.4Y-65.8
X137.0Y-76.8
X137.362Y-60.838
X137.432Y-66.075
X137.951Y-59.524
X138.0Y-62.5
X138.8Y-58.0
X140.752Y-52.351
X141.588Y-66.583
X142.371Y-60.369
X142.4Y-66.0
X142.75Y-54.037
X143.375Y-58.026
X144.608Y-59.644
X148.25Y-77.25
X148.25Y-78.5
X149.5Y-60.5
X149.5Y-62.0
X150.5Y-78.0
X151.25Y-63.25
X154.0Y-155.0
T3
X108.145Y-50.395
X108.145Y-52.935
X108.145Y-55.475
X108.145Y-58.015
X108.145Y-60.555
X108.145Y-63.095
X108.145Y-65.635
X108.145Y-68.175
T4
X123.21Y-68.67
X123.21Y-71.21
X123.21Y-73.75
X125.75Y-68.67
X125.75Y-71.21
X125.75Y-73.75
T5
X107.0Y-84.75
X107.0Y-89.25
X107.0Y-97.25
X107.0Y-101.75
X107.0Y-109.75
X107.0Y-114.25
X107.0Y-122.25
X107.0Y-126.75
X107.0Y-134.5
X107.0Y-139.0
X107.0Y-146.75
X107.0Y-151.25
X107.0Y-159.25
X107.0Y-163.75
X113.5Y-84.75
X113.5Y-89.25
X113.5Y-97.25
X113.5Y-101.75
X113.5Y-109.75
X113.5Y-114.25
X113.5Y-122.25
X113.5Y-126.75
X113.5Y-134.5
X113.5Y-139.0
X113.5Y-146.75
X113.5Y-151.25
X113.5Y-159.25
X113.5Y-163.75
X116.75Y-84.75
X116.75Y-89.25
X116.75Y-97.25
X116.75Y-101.75
X116.75Y-109.75
X116.75Y-114.25
X116.75Y-122.25
X116.75Y-126.75
X116.75Y-134.5
X116.75Y-139.0
X116.75Y-146.75
X116.75Y-151.25
X116.75Y-159.25
X116.75Y-163.75
X123.25Y-84.75
X123.25Y-89.25
X123.25Y-97.25
X123.25Y-101.75
X123.25Y-109.75
X123.25Y-114.25
X123.25Y-122.25
X123.25Y-126.75
X123.25Y-134.5
X123.25Y-139.0
X123.25Y-146.75
X123.25Y-151.25
X123.25Y-159.25
X123.25Y-163.75
X126.5Y-84.75
X126.5Y-89.25
X126.5Y-97.25
X126.5Y-101.75
X126.5Y-109.75
X126.5Y-114.25
X126.5Y-122.25
X126.5Y-126.75
X126.5Y-134.5
X126.5Y-139.0
X126.5Y-146.75
X126.5Y-151.25
X126.5Y-159.25
X126.5Y-163.75
X133.0Y-84.75
X133.0Y-89.25
X133.0Y-97.25
X133.0Y-101.75
X133.0Y-109.75
X133.0Y-114.25
X133.0Y-122.25
X133.0Y-126.75
X133.0Y-134.5
X133.0Y-139.0
X133.0Y-146.75
X133.0Y-151.25
X133.0Y-159.25
X133.0Y-163.75
X136.25Y-84.75
X136.25Y-89.25
X136.25Y-97.25
X136.25Y-101.75
X136.25Y-109.75
X136.25Y-114.25
X136.25Y-122.25
X136.25Y-126.75
X136.25Y-134.5
X136.25Y-139.0
X136.25Y-146.75
X136.25Y-151.25
X136.25Y-159.25
X136.25Y-163.75
X142.75Y-84.75
X142.75Y-89.25
X142.75Y-97.25
X142.75Y-101.75
X142.75Y-109.75
X142.75Y-114.25
X142.75Y-122.25
X142.75Y-126.75
X142.75Y-134.5
X142.75Y-139.0
X142.75Y-146.75
X142.75Y-151.25
X142.75Y-159.25
X142.75Y-163.75
X146.0Y-84.75
X146.0Y-89.25
X146.0Y-97.25
X146.0Y-101.75
X146.0Y-109.75
X146.0Y-114.25
X146.0Y-122.25
X146.0Y-126.75
X146.0Y-134.5
X146.0Y-139.0
X146.0Y-146.75
X146.0Y-151.25
X146.0Y-159.25
X146.0Y-163.75
X152.5Y-84.75
X152.5Y-89.25
X152.5Y-97.25
X152.5Y-101.75
X152.5Y-109.75
X152.5Y-114.25
X152.5Y-122.25
X152.5Y-126.75
X152.5Y-134.5
X152.5Y-139.0
X152.5Y-146.75
X152.5Y-151.25
X152.5Y-159.25
X152.5Y-163.75
X155.75Y-84.75
X155.75Y-89.25
X155.75Y-97.25
X155.75Y-101.75
X155.75Y-109.75
X155.75Y-114.25
X155.75Y-122.25
X155.75Y-126.75
X155.75Y-134.5
X155.75Y-139.0
X155.75Y-146.75
X155.75Y-151.25
X155.75Y-159.25
X155.75Y-163.75
X162.25Y-84.75
X162.25Y-89.25
X162.25Y-97.25
X162.25Y-101.75
X162.25Y-109.75
X162.25Y-114.25
X162.25Y-122.25
X162.25Y-126.75
X162.25Y-134.5
X162.25Y-139.0
X162.25Y-146.75
X162.25Y-151.25
X162.25Y-159.25
X162.25Y-163.75
T2
X129.8Y-42.63G85X129.8Y-43.83
G05
X129.8Y-46.78G85X129.8Y-47.68
G05
X139.7Y-42.63G85X139.7Y-43.83
G05
X139.7Y-46.78G85X139.7Y-47.68
G05
T0
M30
