G04 #@! TF.GenerationSoftware,KiCad,Pcbnew,6.0.0*
G04 #@! TF.CreationDate,2022-03-22T20:09:41+01:00*
G04 #@! TF.ProjectId,calculator,63616c63-756c-4617-946f-722e6b696361,rev?*
G04 #@! TF.SameCoordinates,Original*
G04 #@! TF.FileFunction,Legend,Top*
G04 #@! TF.FilePolarity,Positive*
%FSLAX46Y46*%
G04 Gerber Fmt 4.6, Leading zero omitted, Abs format (unit mm)*
G04 Created by KiCad (PCBNEW 6.0.0) date 2022-03-22 20:09:41*
%MOMM*%
%LPD*%
G01*
G04 APERTURE LIST*
%ADD10C,0.250000*%
%ADD11C,0.150000*%
%ADD12C,0.300000*%
%ADD13C,0.120000*%
%ADD14C,2.000000*%
%ADD15C,3.000000*%
%ADD16O,2.500000X1.500000*%
%ADD17O,1.200000X2.400000*%
%ADD18R,1.700000X1.700000*%
%ADD19O,1.700000X1.700000*%
G04 APERTURE END LIST*
D10*
X132107142Y-107078571D02*
X131607142Y-106364285D01*
X131250000Y-107078571D02*
X131250000Y-105578571D01*
X131821428Y-105578571D01*
X131964285Y-105650000D01*
X132035714Y-105721428D01*
X132107142Y-105864285D01*
X132107142Y-106078571D01*
X132035714Y-106221428D01*
X131964285Y-106292857D01*
X131821428Y-106364285D01*
X131250000Y-106364285D01*
X132964285Y-107078571D02*
X132821428Y-107007142D01*
X132750000Y-106935714D01*
X132678571Y-106792857D01*
X132678571Y-106364285D01*
X132750000Y-106221428D01*
X132821428Y-106150000D01*
X132964285Y-106078571D01*
X133178571Y-106078571D01*
X133321428Y-106150000D01*
X133392857Y-106221428D01*
X133464285Y-106364285D01*
X133464285Y-106792857D01*
X133392857Y-106935714D01*
X133321428Y-107007142D01*
X133178571Y-107078571D01*
X132964285Y-107078571D01*
X133892857Y-106078571D02*
X134464285Y-106078571D01*
X134107142Y-105578571D02*
X134107142Y-106864285D01*
X134178571Y-107007142D01*
X134321428Y-107078571D01*
X134464285Y-107078571D01*
X135607142Y-107078571D02*
X135607142Y-106292857D01*
X135535714Y-106150000D01*
X135392857Y-106078571D01*
X135107142Y-106078571D01*
X134964285Y-106150000D01*
X135607142Y-107007142D02*
X135464285Y-107078571D01*
X135107142Y-107078571D01*
X134964285Y-107007142D01*
X134892857Y-106864285D01*
X134892857Y-106721428D01*
X134964285Y-106578571D01*
X135107142Y-106507142D01*
X135464285Y-106507142D01*
X135607142Y-106435714D01*
X136107142Y-106078571D02*
X136678571Y-106078571D01*
X136321428Y-105578571D02*
X136321428Y-106864285D01*
X136392857Y-107007142D01*
X136535714Y-107078571D01*
X136678571Y-107078571D01*
X137750000Y-107007142D02*
X137607142Y-107078571D01*
X137321428Y-107078571D01*
X137178571Y-107007142D01*
X137107142Y-106864285D01*
X137107142Y-106292857D01*
X137178571Y-106150000D01*
X137321428Y-106078571D01*
X137607142Y-106078571D01*
X137750000Y-106150000D01*
X137821428Y-106292857D01*
X137821428Y-106435714D01*
X137107142Y-106578571D01*
X132078571Y-94607142D02*
X132292857Y-94678571D01*
X132650000Y-94678571D01*
X132792857Y-94607142D01*
X132864285Y-94535714D01*
X132935714Y-94392857D01*
X132935714Y-94250000D01*
X132864285Y-94107142D01*
X132792857Y-94035714D01*
X132650000Y-93964285D01*
X132364285Y-93892857D01*
X132221428Y-93821428D01*
X132150000Y-93750000D01*
X132078571Y-93607142D01*
X132078571Y-93464285D01*
X132150000Y-93321428D01*
X132221428Y-93250000D01*
X132364285Y-93178571D01*
X132721428Y-93178571D01*
X132935714Y-93250000D01*
X133578571Y-94678571D02*
X133578571Y-93178571D01*
X134221428Y-94678571D02*
X134221428Y-93892857D01*
X134150000Y-93750000D01*
X134007142Y-93678571D01*
X133792857Y-93678571D01*
X133650000Y-93750000D01*
X133578571Y-93821428D01*
X134935714Y-94678571D02*
X134935714Y-93678571D01*
X134935714Y-93178571D02*
X134864285Y-93250000D01*
X134935714Y-93321428D01*
X135007142Y-93250000D01*
X134935714Y-93178571D01*
X134935714Y-93321428D01*
X135435714Y-93678571D02*
X136007142Y-93678571D01*
X135650000Y-94678571D02*
X135650000Y-93392857D01*
X135721428Y-93250000D01*
X135864285Y-93178571D01*
X136007142Y-93178571D01*
X136292857Y-93678571D02*
X136864285Y-93678571D01*
X136507142Y-93178571D02*
X136507142Y-94464285D01*
X136578571Y-94607142D01*
X136721428Y-94678571D01*
X136864285Y-94678571D01*
D11*
X122500000Y-79000000D02*
X116750000Y-79000000D01*
X133000000Y-79000000D02*
X127500000Y-79000000D01*
D10*
X122857142Y-79607142D02*
X123071428Y-79678571D01*
X123428571Y-79678571D01*
X123571428Y-79607142D01*
X123642857Y-79535714D01*
X123714285Y-79392857D01*
X123714285Y-79250000D01*
X123642857Y-79107142D01*
X123571428Y-79035714D01*
X123428571Y-78964285D01*
X123142857Y-78892857D01*
X123000000Y-78821428D01*
X122928571Y-78750000D01*
X122857142Y-78607142D01*
X122857142Y-78464285D01*
X122928571Y-78321428D01*
X123000000Y-78250000D01*
X123142857Y-78178571D01*
X123500000Y-78178571D01*
X123714285Y-78250000D01*
X124357142Y-79678571D02*
X124357142Y-78678571D01*
X124357142Y-78178571D02*
X124285714Y-78250000D01*
X124357142Y-78321428D01*
X124428571Y-78250000D01*
X124357142Y-78178571D01*
X124357142Y-78321428D01*
X125714285Y-78678571D02*
X125714285Y-79892857D01*
X125642857Y-80035714D01*
X125571428Y-80107142D01*
X125428571Y-80178571D01*
X125214285Y-80178571D01*
X125071428Y-80107142D01*
X125714285Y-79607142D02*
X125571428Y-79678571D01*
X125285714Y-79678571D01*
X125142857Y-79607142D01*
X125071428Y-79535714D01*
X125000000Y-79392857D01*
X125000000Y-78964285D01*
X125071428Y-78821428D01*
X125142857Y-78750000D01*
X125285714Y-78678571D01*
X125571428Y-78678571D01*
X125714285Y-78750000D01*
X126428571Y-78678571D02*
X126428571Y-79678571D01*
X126428571Y-78821428D02*
X126500000Y-78750000D01*
X126642857Y-78678571D01*
X126857142Y-78678571D01*
X127000000Y-78750000D01*
X127071428Y-78892857D01*
X127071428Y-79678571D01*
D11*
X154500000Y-79000000D02*
X162250000Y-79000000D01*
X144000000Y-79000000D02*
X136250000Y-79000000D01*
D10*
X145071428Y-78892857D02*
X145285714Y-78964285D01*
X145357142Y-79035714D01*
X145428571Y-79178571D01*
X145428571Y-79392857D01*
X145357142Y-79535714D01*
X145285714Y-79607142D01*
X145142857Y-79678571D01*
X144571428Y-79678571D01*
X144571428Y-78178571D01*
X145071428Y-78178571D01*
X145214285Y-78250000D01*
X145285714Y-78321428D01*
X145357142Y-78464285D01*
X145357142Y-78607142D01*
X145285714Y-78750000D01*
X145214285Y-78821428D01*
X145071428Y-78892857D01*
X144571428Y-78892857D01*
X146071428Y-79678571D02*
X146071428Y-78678571D01*
X146071428Y-78178571D02*
X146000000Y-78250000D01*
X146071428Y-78321428D01*
X146142857Y-78250000D01*
X146071428Y-78178571D01*
X146071428Y-78321428D01*
X146571428Y-78678571D02*
X147142857Y-78678571D01*
X146785714Y-78178571D02*
X146785714Y-79464285D01*
X146857142Y-79607142D01*
X147000000Y-79678571D01*
X147142857Y-79678571D01*
X148642857Y-78678571D02*
X148928571Y-79678571D01*
X149214285Y-78964285D01*
X149500000Y-79678571D01*
X149785714Y-78678571D01*
X150357142Y-79678571D02*
X150357142Y-78678571D01*
X150357142Y-78178571D02*
X150285714Y-78250000D01*
X150357142Y-78321428D01*
X150428571Y-78250000D01*
X150357142Y-78178571D01*
X150357142Y-78321428D01*
X151714285Y-79678571D02*
X151714285Y-78178571D01*
X151714285Y-79607142D02*
X151571428Y-79678571D01*
X151285714Y-79678571D01*
X151142857Y-79607142D01*
X151071428Y-79535714D01*
X151000000Y-79392857D01*
X151000000Y-78964285D01*
X151071428Y-78821428D01*
X151142857Y-78750000D01*
X151285714Y-78678571D01*
X151571428Y-78678571D01*
X151714285Y-78750000D01*
X152214285Y-78678571D02*
X152785714Y-78678571D01*
X152428571Y-78178571D02*
X152428571Y-79464285D01*
X152500000Y-79607142D01*
X152642857Y-79678571D01*
X152785714Y-79678571D01*
X153285714Y-79678571D02*
X153285714Y-78178571D01*
X153928571Y-79678571D02*
X153928571Y-78892857D01*
X153857142Y-78750000D01*
X153714285Y-78678571D01*
X153500000Y-78678571D01*
X153357142Y-78750000D01*
X153285714Y-78821428D01*
X140750000Y-107178571D02*
X140250000Y-106464285D01*
X139892857Y-107178571D02*
X139892857Y-105678571D01*
X140464285Y-105678571D01*
X140607142Y-105750000D01*
X140678571Y-105821428D01*
X140750000Y-105964285D01*
X140750000Y-106178571D01*
X140678571Y-106321428D01*
X140607142Y-106392857D01*
X140464285Y-106464285D01*
X139892857Y-106464285D01*
X141392857Y-106178571D02*
X142535714Y-106607142D01*
X141392857Y-107035714D01*
D12*
X130130952Y-131071428D02*
X130130952Y-132404761D01*
X129654761Y-130309523D02*
X129178571Y-131738095D01*
X130416666Y-131738095D01*
X119523809Y-94333333D02*
X120476190Y-94333333D01*
X119333333Y-94904761D02*
X120000000Y-92904761D01*
X120666666Y-94904761D01*
X159857142Y-105309523D02*
X158142857Y-107880952D01*
X129083333Y-117904761D02*
X130416666Y-117904761D01*
X129559523Y-119904761D01*
X108869047Y-93857142D02*
X109154761Y-93952380D01*
X109250000Y-94047619D01*
X109345238Y-94238095D01*
X109345238Y-94523809D01*
X109250000Y-94714285D01*
X109154761Y-94809523D01*
X108964285Y-94904761D01*
X108202380Y-94904761D01*
X108202380Y-92904761D01*
X108869047Y-92904761D01*
X109059523Y-93000000D01*
X109154761Y-93095238D01*
X109250000Y-93285714D01*
X109250000Y-93476190D01*
X109154761Y-93666666D01*
X109059523Y-93761904D01*
X108869047Y-93857142D01*
X108202380Y-93857142D01*
X110202380Y-94904761D02*
X110202380Y-92904761D01*
X111154761Y-94904761D02*
X111154761Y-92904761D01*
X112297619Y-94904761D01*
X112297619Y-92904761D01*
D10*
X128571428Y-93678571D02*
X127428571Y-94107142D01*
X128571428Y-94535714D01*
X130000000Y-94678571D02*
X129285714Y-94678571D01*
X129285714Y-93178571D01*
X117452380Y-80952380D02*
X117452380Y-81761904D01*
X117500000Y-81857142D01*
X117547619Y-81904761D01*
X117642857Y-81952380D01*
X117833333Y-81952380D01*
X117928571Y-81904761D01*
X117976190Y-81857142D01*
X118023809Y-81761904D01*
X118023809Y-80952380D01*
X118500000Y-81952380D02*
X118500000Y-80952380D01*
X119071428Y-81952380D01*
X119071428Y-80952380D01*
X119500000Y-81904761D02*
X119642857Y-81952380D01*
X119880952Y-81952380D01*
X119976190Y-81904761D01*
X120023809Y-81857142D01*
X120071428Y-81761904D01*
X120071428Y-81666666D01*
X120023809Y-81571428D01*
X119976190Y-81523809D01*
X119880952Y-81476190D01*
X119690476Y-81428571D01*
X119595238Y-81380952D01*
X119547619Y-81333333D01*
X119500000Y-81238095D01*
X119500000Y-81142857D01*
X119547619Y-81047619D01*
X119595238Y-81000000D01*
X119690476Y-80952380D01*
X119928571Y-80952380D01*
X120071428Y-81000000D01*
X120500000Y-81952380D02*
X120500000Y-80952380D01*
X121500000Y-81000000D02*
X121404761Y-80952380D01*
X121261904Y-80952380D01*
X121119047Y-81000000D01*
X121023809Y-81095238D01*
X120976190Y-81190476D01*
X120928571Y-81380952D01*
X120928571Y-81523809D01*
X120976190Y-81714285D01*
X121023809Y-81809523D01*
X121119047Y-81904761D01*
X121261904Y-81952380D01*
X121357142Y-81952380D01*
X121500000Y-81904761D01*
X121547619Y-81857142D01*
X121547619Y-81523809D01*
X121357142Y-81523809D01*
X121976190Y-81952380D02*
X121976190Y-80952380D01*
X122547619Y-81952380D01*
X122547619Y-80952380D01*
D12*
X138928571Y-142595238D02*
X139023809Y-142500000D01*
X139214285Y-142404761D01*
X139690476Y-142404761D01*
X139880952Y-142500000D01*
X139976190Y-142595238D01*
X140071428Y-142785714D01*
X140071428Y-142976190D01*
X139976190Y-143261904D01*
X138833333Y-144404761D01*
X140071428Y-144404761D01*
X158238095Y-131642857D02*
X159761904Y-131642857D01*
X107869047Y-157154761D02*
X107869047Y-155154761D01*
X109011904Y-157154761D01*
X109011904Y-155154761D01*
X110345238Y-155154761D02*
X110726190Y-155154761D01*
X110916666Y-155250000D01*
X111107142Y-155440476D01*
X111202380Y-155821428D01*
X111202380Y-156488095D01*
X111107142Y-156869047D01*
X110916666Y-157059523D01*
X110726190Y-157154761D01*
X110345238Y-157154761D01*
X110154761Y-157059523D01*
X109964285Y-156869047D01*
X109869047Y-156488095D01*
X109869047Y-155821428D01*
X109964285Y-155440476D01*
X110154761Y-155250000D01*
X110345238Y-155154761D01*
X111773809Y-155154761D02*
X112916666Y-155154761D01*
X112345238Y-157154761D02*
X112345238Y-155154761D01*
X119476190Y-132404761D02*
X119476190Y-130404761D01*
X119952380Y-130404761D01*
X120238095Y-130500000D01*
X120428571Y-130690476D01*
X120523809Y-130880952D01*
X120619047Y-131261904D01*
X120619047Y-131547619D01*
X120523809Y-131928571D01*
X120428571Y-132119047D01*
X120238095Y-132309523D01*
X119952380Y-132404761D01*
X119476190Y-132404761D01*
X148488095Y-107404761D02*
X150011904Y-105404761D01*
X148773809Y-105404761D02*
X148964285Y-105500000D01*
X149059523Y-105690476D01*
X148964285Y-105880952D01*
X148773809Y-105976190D01*
X148583333Y-105880952D01*
X148488095Y-105690476D01*
X148583333Y-105500000D01*
X148773809Y-105404761D01*
X149916666Y-107309523D02*
X150011904Y-107119047D01*
X149916666Y-106928571D01*
X149726190Y-106833333D01*
X149535714Y-106928571D01*
X149440476Y-107119047D01*
X149535714Y-107309523D01*
X149726190Y-107404761D01*
X149916666Y-107309523D01*
X107726190Y-119333333D02*
X108678571Y-119333333D01*
X107535714Y-119904761D02*
X108202380Y-117904761D01*
X108869047Y-119904761D01*
X109535714Y-119904761D02*
X109535714Y-117904761D01*
X110678571Y-119904761D01*
X110678571Y-117904761D01*
X111630952Y-119904761D02*
X111630952Y-117904761D01*
X112107142Y-117904761D01*
X112392857Y-118000000D01*
X112583333Y-118190476D01*
X112678571Y-118380952D01*
X112773809Y-118761904D01*
X112773809Y-119047619D01*
X112678571Y-119428571D01*
X112583333Y-119619047D01*
X112392857Y-119809523D01*
X112107142Y-119904761D01*
X111630952Y-119904761D01*
X126702380Y-156142857D02*
X128226190Y-156142857D01*
X127464285Y-156904761D02*
X127464285Y-155380952D01*
X130607142Y-154809523D02*
X128892857Y-157380952D01*
X131273809Y-156142857D02*
X132797619Y-156142857D01*
X109059523Y-130404761D02*
X109440476Y-130404761D01*
X109630952Y-130500000D01*
X109821428Y-130690476D01*
X109916666Y-131071428D01*
X109916666Y-131738095D01*
X109821428Y-132119047D01*
X109630952Y-132309523D01*
X109440476Y-132404761D01*
X109059523Y-132404761D01*
X108869047Y-132309523D01*
X108678571Y-132119047D01*
X108583333Y-131738095D01*
X108583333Y-131071428D01*
X108678571Y-130690476D01*
X108869047Y-130500000D01*
X109059523Y-130404761D01*
X111916666Y-132404761D02*
X111250000Y-131452380D01*
X110773809Y-132404761D02*
X110773809Y-130404761D01*
X111535714Y-130404761D01*
X111726190Y-130500000D01*
X111821428Y-130595238D01*
X111916666Y-130785714D01*
X111916666Y-131071428D01*
X111821428Y-131261904D01*
X111726190Y-131357142D01*
X111535714Y-131452380D01*
X110773809Y-131452380D01*
X107821428Y-82404761D02*
X107821428Y-80404761D01*
X107821428Y-81357142D02*
X108964285Y-81357142D01*
X108964285Y-82404761D02*
X108964285Y-80404761D01*
X109916666Y-81357142D02*
X110583333Y-81357142D01*
X110869047Y-82404761D02*
X109916666Y-82404761D01*
X109916666Y-80404761D01*
X110869047Y-80404761D01*
X111535714Y-80404761D02*
X112869047Y-82404761D01*
X112869047Y-80404761D02*
X111535714Y-82404761D01*
X158333333Y-117904761D02*
X159666666Y-119904761D01*
X159666666Y-117904761D02*
X158333333Y-119904761D01*
X158238095Y-155857142D02*
X159761904Y-155857142D01*
X159761904Y-156428571D02*
X158238095Y-156428571D01*
X158238095Y-143642857D02*
X159761904Y-143642857D01*
X159000000Y-144404761D02*
X159000000Y-142880952D01*
X156761904Y-94904761D02*
X156761904Y-92904761D01*
X157238095Y-92904761D01*
X157523809Y-93000000D01*
X157714285Y-93190476D01*
X157809523Y-93380952D01*
X157904761Y-93761904D01*
X157904761Y-94047619D01*
X157809523Y-94428571D01*
X157714285Y-94619047D01*
X157523809Y-94809523D01*
X157238095Y-94904761D01*
X156761904Y-94904761D01*
X158761904Y-93857142D02*
X159428571Y-93857142D01*
X159714285Y-94904761D02*
X158761904Y-94904761D01*
X158761904Y-92904761D01*
X159714285Y-92904761D01*
X161523809Y-94904761D02*
X160571428Y-94904761D01*
X160571428Y-92904761D01*
X148964285Y-82178571D02*
X148107142Y-82178571D01*
X148535714Y-82178571D02*
X148535714Y-80678571D01*
X148392857Y-80892857D01*
X148250000Y-81035714D01*
X148107142Y-81107142D01*
X150250000Y-80678571D02*
X149964285Y-80678571D01*
X149821428Y-80750000D01*
X149750000Y-80821428D01*
X149607142Y-81035714D01*
X149535714Y-81321428D01*
X149535714Y-81892857D01*
X149607142Y-82035714D01*
X149678571Y-82107142D01*
X149821428Y-82178571D01*
X150107142Y-82178571D01*
X150250000Y-82107142D01*
X150321428Y-82035714D01*
X150392857Y-81892857D01*
X150392857Y-81535714D01*
X150321428Y-81392857D01*
X150250000Y-81321428D01*
X150107142Y-81250000D01*
X149821428Y-81250000D01*
X149678571Y-81321428D01*
X149607142Y-81392857D01*
X149535714Y-81535714D01*
X148869047Y-119904761D02*
X149250000Y-119904761D01*
X149440476Y-119809523D01*
X149535714Y-119714285D01*
X149726190Y-119428571D01*
X149821428Y-119047619D01*
X149821428Y-118285714D01*
X149726190Y-118095238D01*
X149630952Y-118000000D01*
X149440476Y-117904761D01*
X149059523Y-117904761D01*
X148869047Y-118000000D01*
X148773809Y-118095238D01*
X148678571Y-118285714D01*
X148678571Y-118761904D01*
X148773809Y-118952380D01*
X148869047Y-119047619D01*
X149059523Y-119142857D01*
X149440476Y-119142857D01*
X149630952Y-119047619D01*
X149726190Y-118952380D01*
X149821428Y-118761904D01*
X107821428Y-107404761D02*
X107821428Y-105404761D01*
X108297619Y-105404761D01*
X108583333Y-105500000D01*
X108773809Y-105690476D01*
X108869047Y-105880952D01*
X108964285Y-106261904D01*
X108964285Y-106547619D01*
X108869047Y-106928571D01*
X108773809Y-107119047D01*
X108583333Y-107309523D01*
X108297619Y-107404761D01*
X107821428Y-107404761D01*
X109821428Y-106357142D02*
X110488095Y-106357142D01*
X110773809Y-107404761D02*
X109821428Y-107404761D01*
X109821428Y-105404761D01*
X110773809Y-105404761D01*
X112773809Y-107214285D02*
X112678571Y-107309523D01*
X112392857Y-107404761D01*
X112202380Y-107404761D01*
X111916666Y-107309523D01*
X111726190Y-107119047D01*
X111630952Y-106928571D01*
X111535714Y-106547619D01*
X111535714Y-106261904D01*
X111630952Y-105880952D01*
X111726190Y-105690476D01*
X111916666Y-105500000D01*
X112202380Y-105404761D01*
X112392857Y-105404761D01*
X112678571Y-105500000D01*
X112773809Y-105595238D01*
X130321428Y-144404761D02*
X129178571Y-144404761D01*
X129750000Y-144404761D02*
X129750000Y-142404761D01*
X129559523Y-142690476D01*
X129369047Y-142880952D01*
X129178571Y-142976190D01*
X120285714Y-155857142D02*
X119619047Y-155857142D01*
X119619047Y-156904761D02*
X119619047Y-154904761D01*
X120571428Y-154904761D01*
X157785714Y-80678571D02*
X158714285Y-80678571D01*
X158214285Y-81250000D01*
X158428571Y-81250000D01*
X158571428Y-81321428D01*
X158642857Y-81392857D01*
X158714285Y-81535714D01*
X158714285Y-81892857D01*
X158642857Y-82035714D01*
X158571428Y-82107142D01*
X158428571Y-82178571D01*
X158000000Y-82178571D01*
X157857142Y-82107142D01*
X157785714Y-82035714D01*
X159285714Y-80821428D02*
X159357142Y-80750000D01*
X159500000Y-80678571D01*
X159857142Y-80678571D01*
X160000000Y-80750000D01*
X160071428Y-80821428D01*
X160142857Y-80964285D01*
X160142857Y-81107142D01*
X160071428Y-81321428D01*
X159214285Y-82178571D01*
X160142857Y-82178571D01*
X149630952Y-130404761D02*
X149250000Y-130404761D01*
X149059523Y-130500000D01*
X148964285Y-130595238D01*
X148773809Y-130880952D01*
X148678571Y-131261904D01*
X148678571Y-132023809D01*
X148773809Y-132214285D01*
X148869047Y-132309523D01*
X149059523Y-132404761D01*
X149440476Y-132404761D01*
X149630952Y-132309523D01*
X149726190Y-132214285D01*
X149821428Y-132023809D01*
X149821428Y-131547619D01*
X149726190Y-131357142D01*
X149630952Y-131261904D01*
X149440476Y-131166666D01*
X149059523Y-131166666D01*
X148869047Y-131261904D01*
X148773809Y-131357142D01*
X148678571Y-131547619D01*
X139357142Y-81321428D02*
X139214285Y-81250000D01*
X139142857Y-81178571D01*
X139071428Y-81035714D01*
X139071428Y-80964285D01*
X139142857Y-80821428D01*
X139214285Y-80750000D01*
X139357142Y-80678571D01*
X139642857Y-80678571D01*
X139785714Y-80750000D01*
X139857142Y-80821428D01*
X139928571Y-80964285D01*
X139928571Y-81035714D01*
X139857142Y-81178571D01*
X139785714Y-81250000D01*
X139642857Y-81321428D01*
X139357142Y-81321428D01*
X139214285Y-81392857D01*
X139142857Y-81464285D01*
X139071428Y-81607142D01*
X139071428Y-81892857D01*
X139142857Y-82035714D01*
X139214285Y-82107142D01*
X139357142Y-82178571D01*
X139642857Y-82178571D01*
X139785714Y-82107142D01*
X139857142Y-82035714D01*
X139928571Y-81892857D01*
X139928571Y-81607142D01*
X139857142Y-81464285D01*
X139785714Y-81392857D01*
X139642857Y-81321428D01*
X120619047Y-119714285D02*
X120523809Y-119809523D01*
X120238095Y-119904761D01*
X120047619Y-119904761D01*
X119761904Y-119809523D01*
X119571428Y-119619047D01*
X119476190Y-119428571D01*
X119380952Y-119047619D01*
X119380952Y-118761904D01*
X119476190Y-118380952D01*
X119571428Y-118190476D01*
X119761904Y-118000000D01*
X120047619Y-117904761D01*
X120238095Y-117904761D01*
X120523809Y-118000000D01*
X120619047Y-118095238D01*
X139404761Y-154904761D02*
X139595238Y-154904761D01*
X139785714Y-155000000D01*
X139880952Y-155095238D01*
X139976190Y-155285714D01*
X140071428Y-155666666D01*
X140071428Y-156142857D01*
X139976190Y-156523809D01*
X139880952Y-156714285D01*
X139785714Y-156809523D01*
X139595238Y-156904761D01*
X139404761Y-156904761D01*
X139214285Y-156809523D01*
X139119047Y-156714285D01*
X139023809Y-156523809D01*
X138928571Y-156142857D01*
X138928571Y-155666666D01*
X139023809Y-155285714D01*
X139119047Y-155095238D01*
X139214285Y-155000000D01*
X139404761Y-154904761D01*
X148964285Y-94714285D02*
X148869047Y-94809523D01*
X148583333Y-94904761D01*
X148392857Y-94904761D01*
X148107142Y-94809523D01*
X147916666Y-94619047D01*
X147821428Y-94428571D01*
X147726190Y-94047619D01*
X147726190Y-93761904D01*
X147821428Y-93380952D01*
X147916666Y-93190476D01*
X148107142Y-93000000D01*
X148392857Y-92904761D01*
X148583333Y-92904761D01*
X148869047Y-93000000D01*
X148964285Y-93095238D01*
X149821428Y-93857142D02*
X150488095Y-93857142D01*
X150773809Y-94904761D02*
X149821428Y-94904761D01*
X149821428Y-92904761D01*
X150773809Y-92904761D01*
X120142857Y-106357142D02*
X120428571Y-106452380D01*
X120523809Y-106547619D01*
X120619047Y-106738095D01*
X120619047Y-107023809D01*
X120523809Y-107214285D01*
X120428571Y-107309523D01*
X120238095Y-107404761D01*
X119476190Y-107404761D01*
X119476190Y-105404761D01*
X120142857Y-105404761D01*
X120333333Y-105500000D01*
X120428571Y-105595238D01*
X120523809Y-105785714D01*
X120523809Y-105976190D01*
X120428571Y-106166666D01*
X120333333Y-106261904D01*
X120142857Y-106357142D01*
X119476190Y-106357142D01*
D10*
X128000000Y-106178571D02*
X126857142Y-106607142D01*
X128000000Y-107035714D01*
X129428571Y-107178571D02*
X128714285Y-107178571D01*
X128714285Y-105678571D01*
D12*
X146583333Y-156904761D02*
X146583333Y-154904761D01*
X147345238Y-154904761D01*
X147535714Y-155000000D01*
X147630952Y-155095238D01*
X147726190Y-155285714D01*
X147726190Y-155571428D01*
X147630952Y-155761904D01*
X147535714Y-155857142D01*
X147345238Y-155952380D01*
X146583333Y-155952380D01*
X148392857Y-154904761D02*
X148869047Y-156904761D01*
X149250000Y-155476190D01*
X149630952Y-156904761D01*
X150107142Y-154904761D01*
X152011904Y-156904761D02*
X151345238Y-155952380D01*
X150869047Y-156904761D02*
X150869047Y-154904761D01*
X151630952Y-154904761D01*
X151821428Y-155000000D01*
X151916666Y-155095238D01*
X152011904Y-155285714D01*
X152011904Y-155571428D01*
X151916666Y-155761904D01*
X151821428Y-155857142D01*
X151630952Y-155952380D01*
X150869047Y-155952380D01*
D10*
X140178571Y-94678571D02*
X139678571Y-93964285D01*
X139321428Y-94678571D02*
X139321428Y-93178571D01*
X139892857Y-93178571D01*
X140035714Y-93250000D01*
X140107142Y-93321428D01*
X140178571Y-93464285D01*
X140178571Y-93678571D01*
X140107142Y-93821428D01*
X140035714Y-93892857D01*
X139892857Y-93964285D01*
X139321428Y-93964285D01*
X140821428Y-93678571D02*
X141964285Y-94107142D01*
X140821428Y-94535714D01*
X126369047Y-81047619D02*
X126416666Y-81000000D01*
X126511904Y-80952380D01*
X126750000Y-80952380D01*
X126845238Y-81000000D01*
X126892857Y-81047619D01*
X126940476Y-81142857D01*
X126940476Y-81238095D01*
X126892857Y-81380952D01*
X126321428Y-81952380D01*
X126940476Y-81952380D01*
X127416666Y-80952380D02*
X127321428Y-81142857D01*
X127797619Y-81904761D02*
X127892857Y-81952380D01*
X128083333Y-81952380D01*
X128178571Y-81904761D01*
X128226190Y-81809523D01*
X128226190Y-81761904D01*
X128178571Y-81666666D01*
X128083333Y-81619047D01*
X127940476Y-81619047D01*
X127845238Y-81571428D01*
X127797619Y-81476190D01*
X127797619Y-81428571D01*
X127845238Y-81333333D01*
X127940476Y-81285714D01*
X128083333Y-81285714D01*
X128178571Y-81333333D01*
X129988095Y-81857142D02*
X129940476Y-81904761D01*
X129797619Y-81952380D01*
X129702380Y-81952380D01*
X129559523Y-81904761D01*
X129464285Y-81809523D01*
X129416666Y-81714285D01*
X129369047Y-81523809D01*
X129369047Y-81380952D01*
X129416666Y-81190476D01*
X129464285Y-81095238D01*
X129559523Y-81000000D01*
X129702380Y-80952380D01*
X129797619Y-80952380D01*
X129940476Y-81000000D01*
X129988095Y-81047619D01*
X130559523Y-81952380D02*
X130464285Y-81904761D01*
X130416666Y-81857142D01*
X130369047Y-81761904D01*
X130369047Y-81476190D01*
X130416666Y-81380952D01*
X130464285Y-81333333D01*
X130559523Y-81285714D01*
X130702380Y-81285714D01*
X130797619Y-81333333D01*
X130845238Y-81380952D01*
X130892857Y-81476190D01*
X130892857Y-81761904D01*
X130845238Y-81857142D01*
X130797619Y-81904761D01*
X130702380Y-81952380D01*
X130559523Y-81952380D01*
X131321428Y-81952380D02*
X131321428Y-81285714D01*
X131321428Y-81380952D02*
X131369047Y-81333333D01*
X131464285Y-81285714D01*
X131607142Y-81285714D01*
X131702380Y-81333333D01*
X131750000Y-81428571D01*
X131750000Y-81952380D01*
X131750000Y-81428571D02*
X131797619Y-81333333D01*
X131892857Y-81285714D01*
X132035714Y-81285714D01*
X132130952Y-81333333D01*
X132178571Y-81428571D01*
X132178571Y-81952380D01*
X132654761Y-81285714D02*
X132654761Y-82285714D01*
X132654761Y-81333333D02*
X132750000Y-81285714D01*
X132940476Y-81285714D01*
X133035714Y-81333333D01*
X133083333Y-81380952D01*
X133130952Y-81476190D01*
X133130952Y-81761904D01*
X133083333Y-81857142D01*
X133035714Y-81904761D01*
X132940476Y-81952380D01*
X132750000Y-81952380D01*
X132654761Y-81904761D01*
D12*
X119571428Y-143357142D02*
X120238095Y-143357142D01*
X120523809Y-144404761D02*
X119571428Y-144404761D01*
X119571428Y-142404761D01*
X120523809Y-142404761D01*
X139976190Y-130404761D02*
X139023809Y-130404761D01*
X138928571Y-131357142D01*
X139023809Y-131261904D01*
X139214285Y-131166666D01*
X139690476Y-131166666D01*
X139880952Y-131261904D01*
X139976190Y-131357142D01*
X140071428Y-131547619D01*
X140071428Y-132023809D01*
X139976190Y-132214285D01*
X139880952Y-132309523D01*
X139690476Y-132404761D01*
X139214285Y-132404761D01*
X139023809Y-132309523D01*
X138928571Y-132214285D01*
X139309523Y-118761904D02*
X139119047Y-118666666D01*
X139023809Y-118571428D01*
X138928571Y-118380952D01*
X138928571Y-118285714D01*
X139023809Y-118095238D01*
X139119047Y-118000000D01*
X139309523Y-117904761D01*
X139690476Y-117904761D01*
X139880952Y-118000000D01*
X139976190Y-118095238D01*
X140071428Y-118285714D01*
X140071428Y-118380952D01*
X139976190Y-118571428D01*
X139880952Y-118666666D01*
X139690476Y-118761904D01*
X139309523Y-118761904D01*
X139119047Y-118857142D01*
X139023809Y-118952380D01*
X138928571Y-119142857D01*
X138928571Y-119523809D01*
X139023809Y-119714285D01*
X139119047Y-119809523D01*
X139309523Y-119904761D01*
X139690476Y-119904761D01*
X139880952Y-119809523D01*
X139976190Y-119714285D01*
X140071428Y-119523809D01*
X140071428Y-119142857D01*
X139976190Y-118952380D01*
X139880952Y-118857142D01*
X139690476Y-118761904D01*
X148583333Y-142404761D02*
X149821428Y-142404761D01*
X149154761Y-143166666D01*
X149440476Y-143166666D01*
X149630952Y-143261904D01*
X149726190Y-143357142D01*
X149821428Y-143547619D01*
X149821428Y-144023809D01*
X149726190Y-144214285D01*
X149630952Y-144309523D01*
X149440476Y-144404761D01*
X148869047Y-144404761D01*
X148678571Y-144309523D01*
X148583333Y-144214285D01*
X107535714Y-142404761D02*
X108869047Y-144404761D01*
X108869047Y-142404761D02*
X107535714Y-144404761D01*
X110011904Y-142404761D02*
X110392857Y-142404761D01*
X110583333Y-142500000D01*
X110773809Y-142690476D01*
X110869047Y-143071428D01*
X110869047Y-143738095D01*
X110773809Y-144119047D01*
X110583333Y-144309523D01*
X110392857Y-144404761D01*
X110011904Y-144404761D01*
X109821428Y-144309523D01*
X109630952Y-144119047D01*
X109535714Y-143738095D01*
X109535714Y-143071428D01*
X109630952Y-142690476D01*
X109821428Y-142500000D01*
X110011904Y-142404761D01*
X112869047Y-144404761D02*
X112202380Y-143452380D01*
X111726190Y-144404761D02*
X111726190Y-142404761D01*
X112488095Y-142404761D01*
X112678571Y-142500000D01*
X112773809Y-142595238D01*
X112869047Y-142785714D01*
X112869047Y-143071428D01*
X112773809Y-143261904D01*
X112678571Y-143357142D01*
X112488095Y-143452380D01*
X111726190Y-143452380D01*
D11*
X133883095Y-58237380D02*
X133883095Y-59046904D01*
X133930714Y-59142142D01*
X133978333Y-59189761D01*
X134073571Y-59237380D01*
X134264047Y-59237380D01*
X134359285Y-59189761D01*
X134406904Y-59142142D01*
X134454523Y-59046904D01*
X134454523Y-58237380D01*
X134883095Y-58332619D02*
X134930714Y-58285000D01*
X135025952Y-58237380D01*
X135264047Y-58237380D01*
X135359285Y-58285000D01*
X135406904Y-58332619D01*
X135454523Y-58427857D01*
X135454523Y-58523095D01*
X135406904Y-58665952D01*
X134835476Y-59237380D01*
X135454523Y-59237380D01*
D12*
X160103333Y-70243333D02*
X160020000Y-70160000D01*
X159936666Y-69993333D01*
X159936666Y-69576666D01*
X160020000Y-69410000D01*
X160103333Y-69326666D01*
X160270000Y-69243333D01*
X160436666Y-69243333D01*
X160686666Y-69326666D01*
X161686666Y-70326666D01*
X161686666Y-69243333D01*
X161686666Y-68493333D02*
X160520000Y-68493333D01*
X159936666Y-68493333D02*
X160020000Y-68576666D01*
X160103333Y-68493333D01*
X160020000Y-68410000D01*
X159936666Y-68493333D01*
X160103333Y-68493333D01*
X160520000Y-67660000D02*
X161686666Y-67660000D01*
X160686666Y-67660000D02*
X160603333Y-67576666D01*
X160520000Y-67410000D01*
X160520000Y-67160000D01*
X160603333Y-66993333D01*
X160770000Y-66910000D01*
X161686666Y-66910000D01*
X161603333Y-65326666D02*
X161686666Y-65493333D01*
X161686666Y-65826666D01*
X161603333Y-65993333D01*
X161520000Y-66076666D01*
X161353333Y-66160000D01*
X160853333Y-66160000D01*
X160686666Y-66076666D01*
X160603333Y-65993333D01*
X160520000Y-65826666D01*
X160520000Y-65493333D01*
X160603333Y-65326666D01*
X161686666Y-64576666D02*
X159936666Y-64576666D01*
X161686666Y-63826666D02*
X160770000Y-63826666D01*
X160603333Y-63910000D01*
X160520000Y-64076666D01*
X160520000Y-64326666D01*
X160603333Y-64493333D01*
X160686666Y-64576666D01*
X161686666Y-60826666D02*
X161686666Y-61660000D01*
X159936666Y-61660000D01*
X161520000Y-59243333D02*
X161603333Y-59326666D01*
X161686666Y-59576666D01*
X161686666Y-59743333D01*
X161603333Y-59993333D01*
X161436666Y-60160000D01*
X161270000Y-60243333D01*
X160936666Y-60326666D01*
X160686666Y-60326666D01*
X160353333Y-60243333D01*
X160186666Y-60160000D01*
X160020000Y-59993333D01*
X159936666Y-59743333D01*
X159936666Y-59576666D01*
X160020000Y-59326666D01*
X160103333Y-59243333D01*
X161686666Y-58493333D02*
X159936666Y-58493333D01*
X159936666Y-58076666D01*
X160020000Y-57826666D01*
X160186666Y-57660000D01*
X160353333Y-57576666D01*
X160686666Y-57493333D01*
X160936666Y-57493333D01*
X161270000Y-57576666D01*
X161436666Y-57660000D01*
X161603333Y-57826666D01*
X161686666Y-58076666D01*
X161686666Y-58493333D01*
X161686666Y-55410000D02*
X159936666Y-55410000D01*
X161186666Y-54826666D01*
X159936666Y-54243333D01*
X161686666Y-54243333D01*
X161686666Y-53160000D02*
X161603333Y-53326666D01*
X161520000Y-53410000D01*
X161353333Y-53493333D01*
X160853333Y-53493333D01*
X160686666Y-53410000D01*
X160603333Y-53326666D01*
X160520000Y-53160000D01*
X160520000Y-52910000D01*
X160603333Y-52743333D01*
X160686666Y-52660000D01*
X160853333Y-52576666D01*
X161353333Y-52576666D01*
X161520000Y-52660000D01*
X161603333Y-52743333D01*
X161686666Y-52910000D01*
X161686666Y-53160000D01*
X161686666Y-51076666D02*
X159936666Y-51076666D01*
X161603333Y-51076666D02*
X161686666Y-51243333D01*
X161686666Y-51576666D01*
X161603333Y-51743333D01*
X161520000Y-51826666D01*
X161353333Y-51910000D01*
X160853333Y-51910000D01*
X160686666Y-51826666D01*
X160603333Y-51743333D01*
X160520000Y-51576666D01*
X160520000Y-51243333D01*
X160603333Y-51076666D01*
X160520000Y-49493333D02*
X161686666Y-49493333D01*
X160520000Y-50243333D02*
X161436666Y-50243333D01*
X161603333Y-50160000D01*
X161686666Y-49993333D01*
X161686666Y-49743333D01*
X161603333Y-49576666D01*
X161520000Y-49493333D01*
X161686666Y-48410000D02*
X161603333Y-48576666D01*
X161436666Y-48660000D01*
X159936666Y-48660000D01*
X161603333Y-47076666D02*
X161686666Y-47243333D01*
X161686666Y-47576666D01*
X161603333Y-47743333D01*
X161436666Y-47826666D01*
X160770000Y-47826666D01*
X160603333Y-47743333D01*
X160520000Y-47576666D01*
X160520000Y-47243333D01*
X160603333Y-47076666D01*
X160770000Y-46993333D01*
X160936666Y-46993333D01*
X161103333Y-47826666D01*
D11*
X110451666Y-49847380D02*
X110785000Y-50847380D01*
X111118333Y-49847380D01*
X112023095Y-50752142D02*
X111975476Y-50799761D01*
X111832619Y-50847380D01*
X111737380Y-50847380D01*
X111594523Y-50799761D01*
X111499285Y-50704523D01*
X111451666Y-50609285D01*
X111404047Y-50418809D01*
X111404047Y-50275952D01*
X111451666Y-50085476D01*
X111499285Y-49990238D01*
X111594523Y-49895000D01*
X111737380Y-49847380D01*
X111832619Y-49847380D01*
X111975476Y-49895000D01*
X112023095Y-49942619D01*
X113023095Y-50752142D02*
X112975476Y-50799761D01*
X112832619Y-50847380D01*
X112737380Y-50847380D01*
X112594523Y-50799761D01*
X112499285Y-50704523D01*
X112451666Y-50609285D01*
X112404047Y-50418809D01*
X112404047Y-50275952D01*
X112451666Y-50085476D01*
X112499285Y-49990238D01*
X112594523Y-49895000D01*
X112737380Y-49847380D01*
X112832619Y-49847380D01*
X112975476Y-49895000D01*
X113023095Y-49942619D01*
X111237380Y-66087380D02*
X110904047Y-65611190D01*
X110665952Y-66087380D02*
X110665952Y-65087380D01*
X111046904Y-65087380D01*
X111142142Y-65135000D01*
X111189761Y-65182619D01*
X111237380Y-65277857D01*
X111237380Y-65420714D01*
X111189761Y-65515952D01*
X111142142Y-65563571D01*
X111046904Y-65611190D01*
X110665952Y-65611190D01*
X111618333Y-66039761D02*
X111761190Y-66087380D01*
X111999285Y-66087380D01*
X112094523Y-66039761D01*
X112142142Y-65992142D01*
X112189761Y-65896904D01*
X112189761Y-65801666D01*
X112142142Y-65706428D01*
X112094523Y-65658809D01*
X111999285Y-65611190D01*
X111808809Y-65563571D01*
X111713571Y-65515952D01*
X111665952Y-65468333D01*
X111618333Y-65373095D01*
X111618333Y-65277857D01*
X111665952Y-65182619D01*
X111713571Y-65135000D01*
X111808809Y-65087380D01*
X112046904Y-65087380D01*
X112189761Y-65135000D01*
X112475476Y-65087380D02*
X113046904Y-65087380D01*
X112761190Y-66087380D02*
X112761190Y-65087380D01*
X110761190Y-55927380D02*
X110761190Y-54927380D01*
X110999285Y-54927380D01*
X111142142Y-54975000D01*
X111237380Y-55070238D01*
X111285000Y-55165476D01*
X111332619Y-55355952D01*
X111332619Y-55498809D01*
X111285000Y-55689285D01*
X111237380Y-55784523D01*
X111142142Y-55879761D01*
X110999285Y-55927380D01*
X110761190Y-55927380D01*
X111761190Y-55927380D02*
X111761190Y-54927380D01*
X112237380Y-55927380D02*
X112237380Y-54927380D01*
X112808809Y-55927380D01*
X112808809Y-54927380D01*
X111023095Y-52435000D02*
X110927857Y-52387380D01*
X110785000Y-52387380D01*
X110642142Y-52435000D01*
X110546904Y-52530238D01*
X110499285Y-52625476D01*
X110451666Y-52815952D01*
X110451666Y-52958809D01*
X110499285Y-53149285D01*
X110546904Y-53244523D01*
X110642142Y-53339761D01*
X110785000Y-53387380D01*
X110880238Y-53387380D01*
X111023095Y-53339761D01*
X111070714Y-53292142D01*
X111070714Y-52958809D01*
X110880238Y-52958809D01*
X111499285Y-53387380D02*
X111499285Y-52387380D01*
X112070714Y-53387380D01*
X112070714Y-52387380D01*
X112546904Y-53387380D02*
X112546904Y-52387380D01*
X112785000Y-52387380D01*
X112927857Y-52435000D01*
X113023095Y-52530238D01*
X113070714Y-52625476D01*
X113118333Y-52815952D01*
X113118333Y-52958809D01*
X113070714Y-53149285D01*
X113023095Y-53244523D01*
X112927857Y-53339761D01*
X112785000Y-53387380D01*
X112546904Y-53387380D01*
X111023095Y-63547380D02*
X111023095Y-62547380D01*
X111261190Y-62547380D01*
X111404047Y-62595000D01*
X111499285Y-62690238D01*
X111546904Y-62785476D01*
X111594523Y-62975952D01*
X111594523Y-63118809D01*
X111546904Y-63309285D01*
X111499285Y-63404523D01*
X111404047Y-63499761D01*
X111261190Y-63547380D01*
X111023095Y-63547380D01*
X112594523Y-63452142D02*
X112546904Y-63499761D01*
X112404047Y-63547380D01*
X112308809Y-63547380D01*
X112165952Y-63499761D01*
X112070714Y-63404523D01*
X112023095Y-63309285D01*
X111975476Y-63118809D01*
X111975476Y-62975952D01*
X112023095Y-62785476D01*
X112070714Y-62690238D01*
X112165952Y-62595000D01*
X112308809Y-62547380D01*
X112404047Y-62547380D01*
X112546904Y-62595000D01*
X112594523Y-62642619D01*
X111189761Y-58372142D02*
X111142142Y-58419761D01*
X110999285Y-58467380D01*
X110904047Y-58467380D01*
X110761190Y-58419761D01*
X110665952Y-58324523D01*
X110618333Y-58229285D01*
X110570714Y-58038809D01*
X110570714Y-57895952D01*
X110618333Y-57705476D01*
X110665952Y-57610238D01*
X110761190Y-57515000D01*
X110904047Y-57467380D01*
X110999285Y-57467380D01*
X111142142Y-57515000D01*
X111189761Y-57562619D01*
X112094523Y-58467380D02*
X111618333Y-58467380D01*
X111618333Y-57467380D01*
X112427857Y-58467380D02*
X112427857Y-57467380D01*
X112999285Y-58467380D02*
X112570714Y-57895952D01*
X112999285Y-57467380D02*
X112427857Y-58038809D01*
X111618333Y-60912142D02*
X111570714Y-60959761D01*
X111427857Y-61007380D01*
X111332619Y-61007380D01*
X111189761Y-60959761D01*
X111094523Y-60864523D01*
X111046904Y-60769285D01*
X110999285Y-60578809D01*
X110999285Y-60435952D01*
X111046904Y-60245476D01*
X111094523Y-60150238D01*
X111189761Y-60055000D01*
X111332619Y-60007380D01*
X111427857Y-60007380D01*
X111570714Y-60055000D01*
X111618333Y-60102619D01*
X111999285Y-60959761D02*
X112142142Y-61007380D01*
X112380238Y-61007380D01*
X112475476Y-60959761D01*
X112523095Y-60912142D01*
X112570714Y-60816904D01*
X112570714Y-60721666D01*
X112523095Y-60626428D01*
X112475476Y-60578809D01*
X112380238Y-60531190D01*
X112189761Y-60483571D01*
X112094523Y-60435952D01*
X112046904Y-60388333D01*
X111999285Y-60293095D01*
X111999285Y-60197857D01*
X112046904Y-60102619D01*
X112094523Y-60055000D01*
X112189761Y-60007380D01*
X112427857Y-60007380D01*
X112570714Y-60055000D01*
X111451666Y-68103571D02*
X111594523Y-68151190D01*
X111642142Y-68198809D01*
X111689761Y-68294047D01*
X111689761Y-68436904D01*
X111642142Y-68532142D01*
X111594523Y-68579761D01*
X111499285Y-68627380D01*
X111118333Y-68627380D01*
X111118333Y-67627380D01*
X111451666Y-67627380D01*
X111546904Y-67675000D01*
X111594523Y-67722619D01*
X111642142Y-67817857D01*
X111642142Y-67913095D01*
X111594523Y-68008333D01*
X111546904Y-68055952D01*
X111451666Y-68103571D01*
X111118333Y-68103571D01*
X112594523Y-68627380D02*
X112118333Y-68627380D01*
X112118333Y-67627380D01*
D13*
X145750000Y-86250000D02*
X145750000Y-87750000D01*
X151500000Y-83750000D02*
X147000000Y-83750000D01*
X147000000Y-90250000D02*
X151500000Y-90250000D01*
X152750000Y-87750000D02*
X152750000Y-86250000D01*
X117750000Y-90250000D02*
X122250000Y-90250000D01*
X122250000Y-83750000D02*
X117750000Y-83750000D01*
X116500000Y-86250000D02*
X116500000Y-87750000D01*
X123500000Y-87750000D02*
X123500000Y-86250000D01*
X156750000Y-102750000D02*
X161250000Y-102750000D01*
X162500000Y-100250000D02*
X162500000Y-98750000D01*
X155500000Y-98750000D02*
X155500000Y-100250000D01*
X161250000Y-96250000D02*
X156750000Y-96250000D01*
X108000000Y-140000000D02*
X112500000Y-140000000D01*
X113750000Y-137500000D02*
X113750000Y-136000000D01*
X112500000Y-133500000D02*
X108000000Y-133500000D01*
X106750000Y-136000000D02*
X106750000Y-137500000D01*
X137250000Y-90250000D02*
X141750000Y-90250000D01*
X141750000Y-83750000D02*
X137250000Y-83750000D01*
X143000000Y-87750000D02*
X143000000Y-86250000D01*
X136000000Y-86250000D02*
X136000000Y-87750000D01*
X133250000Y-100250000D02*
X133250000Y-98750000D01*
X126250000Y-98750000D02*
X126250000Y-100250000D01*
X132000000Y-96250000D02*
X127500000Y-96250000D01*
X127500000Y-102750000D02*
X132000000Y-102750000D01*
X141750000Y-133500000D02*
X137250000Y-133500000D01*
X137250000Y-140000000D02*
X141750000Y-140000000D01*
X143000000Y-137500000D02*
X143000000Y-136000000D01*
X136000000Y-136000000D02*
X136000000Y-137500000D01*
X122250000Y-108750000D02*
X117750000Y-108750000D01*
X116500000Y-111250000D02*
X116500000Y-112750000D01*
X117750000Y-115250000D02*
X122250000Y-115250000D01*
X123500000Y-112750000D02*
X123500000Y-111250000D01*
X112500000Y-145750000D02*
X108000000Y-145750000D01*
X106750000Y-148250000D02*
X106750000Y-149750000D01*
X113750000Y-149750000D02*
X113750000Y-148250000D01*
X108000000Y-152250000D02*
X112500000Y-152250000D01*
X137250000Y-127750000D02*
X141750000Y-127750000D01*
X141750000Y-121250000D02*
X137250000Y-121250000D01*
X143000000Y-125250000D02*
X143000000Y-123750000D01*
X136000000Y-123750000D02*
X136000000Y-125250000D01*
X155500000Y-136000000D02*
X155500000Y-137500000D01*
X156750000Y-140000000D02*
X161250000Y-140000000D01*
X162500000Y-137500000D02*
X162500000Y-136000000D01*
X161250000Y-133500000D02*
X156750000Y-133500000D01*
X161250000Y-121250000D02*
X156750000Y-121250000D01*
X162500000Y-125250000D02*
X162500000Y-123750000D01*
X156750000Y-127750000D02*
X161250000Y-127750000D01*
X155500000Y-123750000D02*
X155500000Y-125250000D01*
X127500000Y-140000000D02*
X132000000Y-140000000D01*
X126250000Y-136000000D02*
X126250000Y-137500000D01*
X133250000Y-137500000D02*
X133250000Y-136000000D01*
X132000000Y-133500000D02*
X127500000Y-133500000D01*
X126250000Y-123750000D02*
X126250000Y-125250000D01*
X133250000Y-125250000D02*
X133250000Y-123750000D01*
X132000000Y-121250000D02*
X127500000Y-121250000D01*
X127500000Y-127750000D02*
X132000000Y-127750000D01*
X106750000Y-86250000D02*
X106750000Y-87750000D01*
X108000000Y-90250000D02*
X112500000Y-90250000D01*
X113750000Y-87750000D02*
X113750000Y-86250000D01*
X112500000Y-83750000D02*
X108000000Y-83750000D01*
X106750000Y-160750000D02*
X106750000Y-162250000D01*
X113750000Y-162250000D02*
X113750000Y-160750000D01*
X112500000Y-158250000D02*
X108000000Y-158250000D01*
X108000000Y-164750000D02*
X112500000Y-164750000D01*
X151500000Y-121250000D02*
X147000000Y-121250000D01*
X147000000Y-127750000D02*
X151500000Y-127750000D01*
X145750000Y-123750000D02*
X145750000Y-125250000D01*
X152750000Y-125250000D02*
X152750000Y-123750000D01*
X155500000Y-111250000D02*
X155500000Y-112750000D01*
X156750000Y-115250000D02*
X161250000Y-115250000D01*
X161250000Y-108750000D02*
X156750000Y-108750000D01*
X162500000Y-112750000D02*
X162500000Y-111250000D01*
X161250000Y-158250000D02*
X156750000Y-158250000D01*
X155500000Y-160750000D02*
X155500000Y-162250000D01*
X156750000Y-164750000D02*
X161250000Y-164750000D01*
X162500000Y-162250000D02*
X162500000Y-160750000D01*
X117750000Y-102750000D02*
X122250000Y-102750000D01*
X116500000Y-98750000D02*
X116500000Y-100250000D01*
X123500000Y-100250000D02*
X123500000Y-98750000D01*
X122250000Y-96250000D02*
X117750000Y-96250000D01*
X147000000Y-152250000D02*
X151500000Y-152250000D01*
X145750000Y-148250000D02*
X145750000Y-149750000D01*
X152750000Y-149750000D02*
X152750000Y-148250000D01*
X151500000Y-145750000D02*
X147000000Y-145750000D01*
X117750000Y-164750000D02*
X122250000Y-164750000D01*
X116500000Y-160750000D02*
X116500000Y-162250000D01*
X123500000Y-162250000D02*
X123500000Y-160750000D01*
X122250000Y-158250000D02*
X117750000Y-158250000D01*
X126250000Y-111250000D02*
X126250000Y-112750000D01*
X133250000Y-112750000D02*
X133250000Y-111250000D01*
X127500000Y-115250000D02*
X132000000Y-115250000D01*
X132000000Y-108750000D02*
X127500000Y-108750000D01*
X143000000Y-149750000D02*
X143000000Y-148250000D01*
X136000000Y-148250000D02*
X136000000Y-149750000D01*
X137250000Y-152250000D02*
X141750000Y-152250000D01*
X141750000Y-145750000D02*
X137250000Y-145750000D01*
X151500000Y-133500000D02*
X147000000Y-133500000D01*
X147000000Y-140000000D02*
X151500000Y-140000000D01*
X152750000Y-137500000D02*
X152750000Y-136000000D01*
X145750000Y-136000000D02*
X145750000Y-137500000D01*
X152750000Y-162250000D02*
X152750000Y-160750000D01*
X147000000Y-164750000D02*
X151500000Y-164750000D01*
X145750000Y-160750000D02*
X145750000Y-162250000D01*
X151500000Y-158250000D02*
X147000000Y-158250000D01*
X161250000Y-145750000D02*
X156750000Y-145750000D01*
X156750000Y-152250000D02*
X161250000Y-152250000D01*
X162500000Y-149750000D02*
X162500000Y-148250000D01*
X155500000Y-148250000D02*
X155500000Y-149750000D01*
X137250000Y-115250000D02*
X141750000Y-115250000D01*
X143000000Y-112750000D02*
X143000000Y-111250000D01*
X141750000Y-108750000D02*
X137250000Y-108750000D01*
X136000000Y-111250000D02*
X136000000Y-112750000D01*
X122250000Y-121250000D02*
X117750000Y-121250000D01*
X117750000Y-127750000D02*
X122250000Y-127750000D01*
X123500000Y-125250000D02*
X123500000Y-123750000D01*
X116500000Y-123750000D02*
X116500000Y-125250000D01*
X151500000Y-96250000D02*
X147000000Y-96250000D01*
X145750000Y-98750000D02*
X145750000Y-100250000D01*
X152750000Y-100250000D02*
X152750000Y-98750000D01*
X147000000Y-102750000D02*
X151500000Y-102750000D01*
X106750000Y-98750000D02*
X106750000Y-100250000D01*
X108000000Y-102750000D02*
X112500000Y-102750000D01*
X112500000Y-96250000D02*
X108000000Y-96250000D01*
X113750000Y-100250000D02*
X113750000Y-98750000D01*
X127500000Y-164750000D02*
X132000000Y-164750000D01*
X133250000Y-162250000D02*
X133250000Y-160750000D01*
X132000000Y-158250000D02*
X127500000Y-158250000D01*
X126250000Y-160750000D02*
X126250000Y-162250000D01*
X127500000Y-152250000D02*
X132000000Y-152250000D01*
X133250000Y-149750000D02*
X133250000Y-148250000D01*
X132000000Y-145750000D02*
X127500000Y-145750000D01*
X126250000Y-148250000D02*
X126250000Y-149750000D01*
X143000000Y-162250000D02*
X143000000Y-160750000D01*
X137250000Y-164750000D02*
X141750000Y-164750000D01*
X141750000Y-158250000D02*
X137250000Y-158250000D01*
X136000000Y-160750000D02*
X136000000Y-162250000D01*
X123500000Y-137500000D02*
X123500000Y-136000000D01*
X122250000Y-133500000D02*
X117750000Y-133500000D01*
X117750000Y-140000000D02*
X122250000Y-140000000D01*
X116500000Y-136000000D02*
X116500000Y-137500000D01*
X137250000Y-102750000D02*
X141750000Y-102750000D01*
X136000000Y-98750000D02*
X136000000Y-100250000D01*
X141750000Y-96250000D02*
X137250000Y-96250000D01*
X143000000Y-100250000D02*
X143000000Y-98750000D01*
X127500000Y-90250000D02*
X132000000Y-90250000D01*
X126250000Y-86250000D02*
X126250000Y-87750000D01*
X132000000Y-83750000D02*
X127500000Y-83750000D01*
X133250000Y-87750000D02*
X133250000Y-86250000D01*
X123500000Y-149750000D02*
X123500000Y-148250000D01*
X122250000Y-145750000D02*
X117750000Y-145750000D01*
X116500000Y-148250000D02*
X116500000Y-149750000D01*
X117750000Y-152250000D02*
X122250000Y-152250000D01*
X155500000Y-86250000D02*
X155500000Y-87750000D01*
X161250000Y-83750000D02*
X156750000Y-83750000D01*
X156750000Y-90250000D02*
X161250000Y-90250000D01*
X162500000Y-87750000D02*
X162500000Y-86250000D01*
X112500000Y-121250000D02*
X108000000Y-121250000D01*
X106750000Y-123750000D02*
X106750000Y-125250000D01*
X113750000Y-125250000D02*
X113750000Y-123750000D01*
X108000000Y-127750000D02*
X112500000Y-127750000D01*
X108000000Y-115250000D02*
X112500000Y-115250000D01*
X113750000Y-112750000D02*
X113750000Y-111250000D01*
X112500000Y-108750000D02*
X108000000Y-108750000D01*
X106750000Y-111250000D02*
X106750000Y-112750000D01*
X152750000Y-112750000D02*
X152750000Y-111250000D01*
X145750000Y-111250000D02*
X145750000Y-112750000D01*
X147000000Y-115250000D02*
X151500000Y-115250000D01*
X151500000Y-108750000D02*
X147000000Y-108750000D01*
%LPC*%
D14*
X146000000Y-84750000D03*
X152500000Y-84750000D03*
X152500000Y-89250000D03*
X146000000Y-89250000D03*
X116750000Y-84750000D03*
X123250000Y-84750000D03*
X123250000Y-89250000D03*
X116750000Y-89250000D03*
X155750000Y-97250000D03*
X162250000Y-97250000D03*
X162250000Y-101750000D03*
X155750000Y-101750000D03*
X107000000Y-134500000D03*
X113500000Y-134500000D03*
X113500000Y-139000000D03*
X107000000Y-139000000D03*
X142750000Y-84750000D03*
X136250000Y-84750000D03*
X136250000Y-89250000D03*
X142750000Y-89250000D03*
X133000000Y-97250000D03*
X126500000Y-97250000D03*
X133000000Y-101750000D03*
X126500000Y-101750000D03*
X136250000Y-134500000D03*
X142750000Y-134500000D03*
X136250000Y-139000000D03*
X142750000Y-139000000D03*
X116750000Y-109750000D03*
X123250000Y-109750000D03*
X123250000Y-114250000D03*
X116750000Y-114250000D03*
X113500000Y-146750000D03*
X107000000Y-146750000D03*
X107000000Y-151250000D03*
X113500000Y-151250000D03*
X142750000Y-122250000D03*
X136250000Y-122250000D03*
X142750000Y-126750000D03*
X136250000Y-126750000D03*
X155750000Y-134500000D03*
X162250000Y-134500000D03*
X155750000Y-139000000D03*
X162250000Y-139000000D03*
X162250000Y-122250000D03*
X155750000Y-122250000D03*
X162250000Y-126750000D03*
X155750000Y-126750000D03*
X133000000Y-134500000D03*
X126500000Y-134500000D03*
X126500000Y-139000000D03*
X133000000Y-139000000D03*
X133000000Y-122250000D03*
X126500000Y-122250000D03*
X133000000Y-126750000D03*
X126500000Y-126750000D03*
X107000000Y-84750000D03*
X113500000Y-84750000D03*
X107000000Y-89250000D03*
X113500000Y-89250000D03*
X113500000Y-159250000D03*
X107000000Y-159250000D03*
X113500000Y-163750000D03*
X107000000Y-163750000D03*
X152500000Y-122250000D03*
X146000000Y-122250000D03*
X152500000Y-126750000D03*
X146000000Y-126750000D03*
X155750000Y-109750000D03*
X162250000Y-109750000D03*
X155750000Y-114250000D03*
X162250000Y-114250000D03*
X155750000Y-159250000D03*
X162250000Y-159250000D03*
X162250000Y-163750000D03*
X155750000Y-163750000D03*
X123250000Y-97250000D03*
X116750000Y-97250000D03*
X116750000Y-101750000D03*
X123250000Y-101750000D03*
X146000000Y-146750000D03*
X152500000Y-146750000D03*
X152500000Y-151250000D03*
X146000000Y-151250000D03*
X123250000Y-159250000D03*
X116750000Y-159250000D03*
X123250000Y-163750000D03*
X116750000Y-163750000D03*
X126500000Y-109750000D03*
X133000000Y-109750000D03*
X126500000Y-114250000D03*
X133000000Y-114250000D03*
X142750000Y-146750000D03*
X136250000Y-146750000D03*
X136250000Y-151250000D03*
X142750000Y-151250000D03*
X152500000Y-134500000D03*
X146000000Y-134500000D03*
X146000000Y-139000000D03*
X152500000Y-139000000D03*
X146000000Y-159250000D03*
X152500000Y-159250000D03*
X146000000Y-163750000D03*
X152500000Y-163750000D03*
X162250000Y-146750000D03*
X155750000Y-146750000D03*
X155750000Y-151250000D03*
X162250000Y-151250000D03*
X136250000Y-109750000D03*
X142750000Y-109750000D03*
X142750000Y-114250000D03*
X136250000Y-114250000D03*
X123250000Y-122250000D03*
X116750000Y-122250000D03*
X123250000Y-126750000D03*
X116750000Y-126750000D03*
X146000000Y-97250000D03*
X152500000Y-97250000D03*
X146000000Y-101750000D03*
X152500000Y-101750000D03*
X113500000Y-97250000D03*
X107000000Y-97250000D03*
X113500000Y-101750000D03*
X107000000Y-101750000D03*
X126500000Y-159250000D03*
X133000000Y-159250000D03*
X133000000Y-163750000D03*
X126500000Y-163750000D03*
X133000000Y-146750000D03*
X126500000Y-146750000D03*
X133000000Y-151250000D03*
X126500000Y-151250000D03*
X142750000Y-159250000D03*
X136250000Y-159250000D03*
X136250000Y-163750000D03*
X142750000Y-163750000D03*
X123250000Y-134500000D03*
X116750000Y-134500000D03*
X123250000Y-139000000D03*
X116750000Y-139000000D03*
X142750000Y-97250000D03*
X136250000Y-97250000D03*
X142750000Y-101750000D03*
X136250000Y-101750000D03*
X133000000Y-84750000D03*
X126500000Y-84750000D03*
X133000000Y-89250000D03*
X126500000Y-89250000D03*
X123250000Y-146750000D03*
X116750000Y-146750000D03*
X123250000Y-151250000D03*
X116750000Y-151250000D03*
X155750000Y-84750000D03*
X162250000Y-84750000D03*
X162250000Y-89250000D03*
X155750000Y-89250000D03*
X107000000Y-122250000D03*
X113500000Y-122250000D03*
X113500000Y-126750000D03*
X107000000Y-126750000D03*
X107000000Y-109750000D03*
X113500000Y-109750000D03*
X113500000Y-114250000D03*
X107000000Y-114250000D03*
X152500000Y-109750000D03*
X146000000Y-109750000D03*
X146000000Y-114250000D03*
X152500000Y-114250000D03*
D15*
X108145000Y-74285000D03*
X161145000Y-44285000D03*
X161145000Y-74285000D03*
X108145000Y-44285000D03*
D16*
X108145000Y-50395000D03*
X108145000Y-52935000D03*
X108145000Y-55475000D03*
X108145000Y-58015000D03*
X108145000Y-60555000D03*
X108145000Y-63095000D03*
X108145000Y-65635000D03*
X108145000Y-68175000D03*
D17*
X129800000Y-47230000D03*
X129800000Y-43230000D03*
X139700000Y-43230000D03*
X139700000Y-47230000D03*
D18*
X125750000Y-68670000D03*
D19*
X123210000Y-68670000D03*
X125750000Y-71210000D03*
X123210000Y-71210000D03*
X125750000Y-73750000D03*
X123210000Y-73750000D03*
M02*
