G04 #@! TF.GenerationSoftware,KiCad,Pcbnew,6.0.0*
G04 #@! TF.CreationDate,2022-03-22T20:09:41+01:00*
G04 #@! TF.ProjectId,calculator,63616c63-756c-4617-946f-722e6b696361,rev?*
G04 #@! TF.SameCoordinates,Original*
G04 #@! TF.FileFunction,Soldermask,Top*
G04 #@! TF.FilePolarity,Negative*
%FSLAX46Y46*%
G04 Gerber Fmt 4.6, Leading zero omitted, Abs format (unit mm)*
G04 Created by KiCad (PCBNEW 6.0.0) date 2022-03-22 20:09:41*
%MOMM*%
%LPD*%
G01*
G04 APERTURE LIST*
%ADD10C,2.000000*%
%ADD11C,3.000000*%
%ADD12O,2.500000X1.500000*%
%ADD13O,1.200000X2.400000*%
%ADD14R,1.700000X1.700000*%
%ADD15O,1.700000X1.700000*%
G04 APERTURE END LIST*
D10*
X146000000Y-84750000D03*
X152500000Y-84750000D03*
X152500000Y-89250000D03*
X146000000Y-89250000D03*
X116750000Y-84750000D03*
X123250000Y-84750000D03*
X123250000Y-89250000D03*
X116750000Y-89250000D03*
X155750000Y-97250000D03*
X162250000Y-97250000D03*
X162250000Y-101750000D03*
X155750000Y-101750000D03*
X107000000Y-134500000D03*
X113500000Y-134500000D03*
X113500000Y-139000000D03*
X107000000Y-139000000D03*
X142750000Y-84750000D03*
X136250000Y-84750000D03*
X136250000Y-89250000D03*
X142750000Y-89250000D03*
X133000000Y-97250000D03*
X126500000Y-97250000D03*
X133000000Y-101750000D03*
X126500000Y-101750000D03*
X136250000Y-134500000D03*
X142750000Y-134500000D03*
X136250000Y-139000000D03*
X142750000Y-139000000D03*
X116750000Y-109750000D03*
X123250000Y-109750000D03*
X123250000Y-114250000D03*
X116750000Y-114250000D03*
X113500000Y-146750000D03*
X107000000Y-146750000D03*
X107000000Y-151250000D03*
X113500000Y-151250000D03*
X142750000Y-122250000D03*
X136250000Y-122250000D03*
X142750000Y-126750000D03*
X136250000Y-126750000D03*
X155750000Y-134500000D03*
X162250000Y-134500000D03*
X155750000Y-139000000D03*
X162250000Y-139000000D03*
X162250000Y-122250000D03*
X155750000Y-122250000D03*
X162250000Y-126750000D03*
X155750000Y-126750000D03*
X133000000Y-134500000D03*
X126500000Y-134500000D03*
X126500000Y-139000000D03*
X133000000Y-139000000D03*
X133000000Y-122250000D03*
X126500000Y-122250000D03*
X133000000Y-126750000D03*
X126500000Y-126750000D03*
X107000000Y-84750000D03*
X113500000Y-84750000D03*
X107000000Y-89250000D03*
X113500000Y-89250000D03*
X113500000Y-159250000D03*
X107000000Y-159250000D03*
X113500000Y-163750000D03*
X107000000Y-163750000D03*
X152500000Y-122250000D03*
X146000000Y-122250000D03*
X152500000Y-126750000D03*
X146000000Y-126750000D03*
X155750000Y-109750000D03*
X162250000Y-109750000D03*
X155750000Y-114250000D03*
X162250000Y-114250000D03*
X155750000Y-159250000D03*
X162250000Y-159250000D03*
X162250000Y-163750000D03*
X155750000Y-163750000D03*
X123250000Y-97250000D03*
X116750000Y-97250000D03*
X116750000Y-101750000D03*
X123250000Y-101750000D03*
X146000000Y-146750000D03*
X152500000Y-146750000D03*
X152500000Y-151250000D03*
X146000000Y-151250000D03*
X123250000Y-159250000D03*
X116750000Y-159250000D03*
X123250000Y-163750000D03*
X116750000Y-163750000D03*
X126500000Y-109750000D03*
X133000000Y-109750000D03*
X126500000Y-114250000D03*
X133000000Y-114250000D03*
X142750000Y-146750000D03*
X136250000Y-146750000D03*
X136250000Y-151250000D03*
X142750000Y-151250000D03*
X152500000Y-134500000D03*
X146000000Y-134500000D03*
X146000000Y-139000000D03*
X152500000Y-139000000D03*
X146000000Y-159250000D03*
X152500000Y-159250000D03*
X146000000Y-163750000D03*
X152500000Y-163750000D03*
X162250000Y-146750000D03*
X155750000Y-146750000D03*
X155750000Y-151250000D03*
X162250000Y-151250000D03*
X136250000Y-109750000D03*
X142750000Y-109750000D03*
X142750000Y-114250000D03*
X136250000Y-114250000D03*
X123250000Y-122250000D03*
X116750000Y-122250000D03*
X123250000Y-126750000D03*
X116750000Y-126750000D03*
X146000000Y-97250000D03*
X152500000Y-97250000D03*
X146000000Y-101750000D03*
X152500000Y-101750000D03*
X113500000Y-97250000D03*
X107000000Y-97250000D03*
X113500000Y-101750000D03*
X107000000Y-101750000D03*
X126500000Y-159250000D03*
X133000000Y-159250000D03*
X133000000Y-163750000D03*
X126500000Y-163750000D03*
X133000000Y-146750000D03*
X126500000Y-146750000D03*
X133000000Y-151250000D03*
X126500000Y-151250000D03*
X142750000Y-159250000D03*
X136250000Y-159250000D03*
X136250000Y-163750000D03*
X142750000Y-163750000D03*
X123250000Y-134500000D03*
X116750000Y-134500000D03*
X123250000Y-139000000D03*
X116750000Y-139000000D03*
X142750000Y-97250000D03*
X136250000Y-97250000D03*
X142750000Y-101750000D03*
X136250000Y-101750000D03*
X133000000Y-84750000D03*
X126500000Y-84750000D03*
X133000000Y-89250000D03*
X126500000Y-89250000D03*
X123250000Y-146750000D03*
X116750000Y-146750000D03*
X123250000Y-151250000D03*
X116750000Y-151250000D03*
X155750000Y-84750000D03*
X162250000Y-84750000D03*
X162250000Y-89250000D03*
X155750000Y-89250000D03*
X107000000Y-122250000D03*
X113500000Y-122250000D03*
X113500000Y-126750000D03*
X107000000Y-126750000D03*
X107000000Y-109750000D03*
X113500000Y-109750000D03*
X113500000Y-114250000D03*
X107000000Y-114250000D03*
X152500000Y-109750000D03*
X146000000Y-109750000D03*
X146000000Y-114250000D03*
X152500000Y-114250000D03*
D11*
X108145000Y-74285000D03*
X161145000Y-44285000D03*
X161145000Y-74285000D03*
X108145000Y-44285000D03*
D12*
X108145000Y-50395000D03*
X108145000Y-52935000D03*
X108145000Y-55475000D03*
X108145000Y-58015000D03*
X108145000Y-60555000D03*
X108145000Y-63095000D03*
X108145000Y-65635000D03*
X108145000Y-68175000D03*
D13*
X129800000Y-47230000D03*
X129800000Y-43230000D03*
X139700000Y-43230000D03*
X139700000Y-47230000D03*
D14*
X125750000Y-68670000D03*
D15*
X123210000Y-68670000D03*
X125750000Y-71210000D03*
X123210000Y-71210000D03*
X125750000Y-73750000D03*
X123210000Y-73750000D03*
M02*
