G04 #@! TF.GenerationSoftware,KiCad,Pcbnew,6.0.0*
G04 #@! TF.CreationDate,2022-03-22T20:09:41+01:00*
G04 #@! TF.ProjectId,calculator,63616c63-756c-4617-946f-722e6b696361,rev?*
G04 #@! TF.SameCoordinates,Original*
G04 #@! TF.FileFunction,Legend,Bot*
G04 #@! TF.FilePolarity,Positive*
%FSLAX46Y46*%
G04 Gerber Fmt 4.6, Leading zero omitted, Abs format (unit mm)*
G04 Created by KiCad (PCBNEW 6.0.0) date 2022-03-22 20:09:41*
%MOMM*%
%LPD*%
G01*
G04 APERTURE LIST*
G04 Aperture macros list*
%AMRoundRect*
0 Rectangle with rounded corners*
0 $1 Rounding radius*
0 $2 $3 $4 $5 $6 $7 $8 $9 X,Y pos of 4 corners*
0 Add a 4 corners polygon primitive as box body*
4,1,4,$2,$3,$4,$5,$6,$7,$8,$9,$2,$3,0*
0 Add four circle primitives for the rounded corners*
1,1,$1+$1,$2,$3*
1,1,$1+$1,$4,$5*
1,1,$1+$1,$6,$7*
1,1,$1+$1,$8,$9*
0 Add four rect primitives between the rounded corners*
20,1,$1+$1,$2,$3,$4,$5,0*
20,1,$1+$1,$4,$5,$6,$7,0*
20,1,$1+$1,$6,$7,$8,$9,0*
20,1,$1+$1,$8,$9,$2,$3,0*%
G04 Aperture macros list end*
%ADD10C,0.150000*%
%ADD11C,0.125000*%
%ADD12C,0.250000*%
%ADD13C,0.120000*%
%ADD14C,0.127000*%
%ADD15C,0.200000*%
%ADD16C,2.000000*%
%ADD17C,3.000000*%
%ADD18O,2.500000X1.500000*%
%ADD19RoundRect,0.250000X-0.337500X-0.475000X0.337500X-0.475000X0.337500X0.475000X-0.337500X0.475000X0*%
%ADD20R,1.600000X0.550000*%
%ADD21R,0.550000X1.600000*%
%ADD22RoundRect,0.250000X-0.475000X0.337500X-0.475000X-0.337500X0.475000X-0.337500X0.475000X0.337500X0*%
%ADD23RoundRect,0.250000X0.350000X0.450000X-0.350000X0.450000X-0.350000X-0.450000X0.350000X-0.450000X0*%
%ADD24R,0.450000X1.100000*%
%ADD25O,1.200000X2.400000*%
%ADD26RoundRect,0.250000X-0.450000X0.350000X-0.450000X-0.350000X0.450000X-0.350000X0.450000X0.350000X0*%
%ADD27R,1.700000X1.700000*%
%ADD28O,1.700000X1.700000*%
G04 APERTURE END LIST*
D10*
X130607142Y-37802380D02*
X130416666Y-37802380D01*
X130321428Y-37850000D01*
X130273809Y-37897619D01*
X130178571Y-38040476D01*
X130130952Y-38230952D01*
X130130952Y-38611904D01*
X130178571Y-38707142D01*
X130226190Y-38754761D01*
X130321428Y-38802380D01*
X130511904Y-38802380D01*
X130607142Y-38754761D01*
X130654761Y-38707142D01*
X130702380Y-38611904D01*
X130702380Y-38373809D01*
X130654761Y-38278571D01*
X130607142Y-38230952D01*
X130511904Y-38183333D01*
X130321428Y-38183333D01*
X130226190Y-38230952D01*
X130178571Y-38278571D01*
X130130952Y-38373809D01*
X131321428Y-37802380D02*
X131416666Y-37802380D01*
X131511904Y-37850000D01*
X131559523Y-37897619D01*
X131607142Y-37992857D01*
X131654761Y-38183333D01*
X131654761Y-38421428D01*
X131607142Y-38611904D01*
X131559523Y-38707142D01*
X131511904Y-38754761D01*
X131416666Y-38802380D01*
X131321428Y-38802380D01*
X131226190Y-38754761D01*
X131178571Y-38707142D01*
X131130952Y-38611904D01*
X131083333Y-38421428D01*
X131083333Y-38183333D01*
X131130952Y-37992857D01*
X131178571Y-37897619D01*
X131226190Y-37850000D01*
X131321428Y-37802380D01*
X132130952Y-38754761D02*
X132130952Y-38802380D01*
X132083333Y-38897619D01*
X132035714Y-38945238D01*
X133035714Y-37802380D02*
X132559523Y-37802380D01*
X132511904Y-38278571D01*
X132559523Y-38230952D01*
X132654761Y-38183333D01*
X132892857Y-38183333D01*
X132988095Y-38230952D01*
X133035714Y-38278571D01*
X133083333Y-38373809D01*
X133083333Y-38611904D01*
X133035714Y-38707142D01*
X132988095Y-38754761D01*
X132892857Y-38802380D01*
X132654761Y-38802380D01*
X132559523Y-38754761D01*
X132511904Y-38707142D01*
X133702380Y-37802380D02*
X133797619Y-37802380D01*
X133892857Y-37850000D01*
X133940476Y-37897619D01*
X133988095Y-37992857D01*
X134035714Y-38183333D01*
X134035714Y-38421428D01*
X133988095Y-38611904D01*
X133940476Y-38707142D01*
X133892857Y-38754761D01*
X133797619Y-38802380D01*
X133702380Y-38802380D01*
X133607142Y-38754761D01*
X133559523Y-38707142D01*
X133511904Y-38611904D01*
X133464285Y-38421428D01*
X133464285Y-38183333D01*
X133511904Y-37992857D01*
X133559523Y-37897619D01*
X133607142Y-37850000D01*
X133702380Y-37802380D01*
X134654761Y-37802380D02*
X134750000Y-37802380D01*
X134845238Y-37850000D01*
X134892857Y-37897619D01*
X134940476Y-37992857D01*
X134988095Y-38183333D01*
X134988095Y-38421428D01*
X134940476Y-38611904D01*
X134892857Y-38707142D01*
X134845238Y-38754761D01*
X134750000Y-38802380D01*
X134654761Y-38802380D01*
X134559523Y-38754761D01*
X134511904Y-38707142D01*
X134464285Y-38611904D01*
X134416666Y-38421428D01*
X134416666Y-38183333D01*
X134464285Y-37992857D01*
X134511904Y-37897619D01*
X134559523Y-37850000D01*
X134654761Y-37802380D01*
X135607142Y-37802380D02*
X135702380Y-37802380D01*
X135797619Y-37850000D01*
X135845238Y-37897619D01*
X135892857Y-37992857D01*
X135940476Y-38183333D01*
X135940476Y-38421428D01*
X135892857Y-38611904D01*
X135845238Y-38707142D01*
X135797619Y-38754761D01*
X135702380Y-38802380D01*
X135607142Y-38802380D01*
X135511904Y-38754761D01*
X135464285Y-38707142D01*
X135416666Y-38611904D01*
X135369047Y-38421428D01*
X135369047Y-38183333D01*
X135416666Y-37992857D01*
X135464285Y-37897619D01*
X135511904Y-37850000D01*
X135607142Y-37802380D01*
X137130952Y-38802380D02*
X137130952Y-38135714D01*
X137130952Y-38230952D02*
X137178571Y-38183333D01*
X137273809Y-38135714D01*
X137416666Y-38135714D01*
X137511904Y-38183333D01*
X137559523Y-38278571D01*
X137559523Y-38802380D01*
X137559523Y-38278571D02*
X137607142Y-38183333D01*
X137702380Y-38135714D01*
X137845238Y-38135714D01*
X137940476Y-38183333D01*
X137988095Y-38278571D01*
X137988095Y-38802380D01*
X138464285Y-38802380D02*
X138464285Y-38135714D01*
X138464285Y-38230952D02*
X138511904Y-38183333D01*
X138607142Y-38135714D01*
X138750000Y-38135714D01*
X138845238Y-38183333D01*
X138892857Y-38278571D01*
X138892857Y-38802380D01*
X138892857Y-38278571D02*
X138940476Y-38183333D01*
X139035714Y-38135714D01*
X139178571Y-38135714D01*
X139273809Y-38183333D01*
X139321428Y-38278571D01*
X139321428Y-38802380D01*
X104500000Y-39500000D02*
X104500000Y-39500000D01*
X165000000Y-39500000D02*
X165000000Y-39500000D01*
X104500000Y-39500000D02*
X129365476Y-39500000D01*
X140134524Y-39500000D02*
X165000000Y-39500000D01*
X104500000Y-39500000D02*
X105626504Y-40086421D01*
X104500000Y-39500000D02*
X105626504Y-38913579D01*
X165000000Y-39500000D02*
X163873496Y-38913579D01*
X165000000Y-39500000D02*
X163873496Y-40086421D01*
X102052380Y-108023809D02*
X102052380Y-108595238D01*
X102052380Y-108309523D02*
X101052380Y-108309523D01*
X101195238Y-108404761D01*
X101290476Y-108500000D01*
X101338095Y-108595238D01*
X101147619Y-107642857D02*
X101100000Y-107595238D01*
X101052380Y-107500000D01*
X101052380Y-107261904D01*
X101100000Y-107166666D01*
X101147619Y-107119047D01*
X101242857Y-107071428D01*
X101338095Y-107071428D01*
X101480952Y-107119047D01*
X102052380Y-107690476D01*
X102052380Y-107071428D01*
X101052380Y-106166666D02*
X101052380Y-106642857D01*
X101528571Y-106690476D01*
X101480952Y-106642857D01*
X101433333Y-106547619D01*
X101433333Y-106309523D01*
X101480952Y-106214285D01*
X101528571Y-106166666D01*
X101623809Y-106119047D01*
X101861904Y-106119047D01*
X101957142Y-106166666D01*
X102004761Y-106214285D01*
X102052380Y-106309523D01*
X102052380Y-106547619D01*
X102004761Y-106642857D01*
X101957142Y-106690476D01*
X102004761Y-105642857D02*
X102052380Y-105642857D01*
X102147619Y-105690476D01*
X102195238Y-105738095D01*
X101052380Y-105023809D02*
X101052380Y-104928571D01*
X101100000Y-104833333D01*
X101147619Y-104785714D01*
X101242857Y-104738095D01*
X101433333Y-104690476D01*
X101671428Y-104690476D01*
X101861904Y-104738095D01*
X101957142Y-104785714D01*
X102004761Y-104833333D01*
X102052380Y-104928571D01*
X102052380Y-105023809D01*
X102004761Y-105119047D01*
X101957142Y-105166666D01*
X101861904Y-105214285D01*
X101671428Y-105261904D01*
X101433333Y-105261904D01*
X101242857Y-105214285D01*
X101147619Y-105166666D01*
X101100000Y-105119047D01*
X101052380Y-105023809D01*
X101052380Y-104071428D02*
X101052380Y-103976190D01*
X101100000Y-103880952D01*
X101147619Y-103833333D01*
X101242857Y-103785714D01*
X101433333Y-103738095D01*
X101671428Y-103738095D01*
X101861904Y-103785714D01*
X101957142Y-103833333D01*
X102004761Y-103880952D01*
X102052380Y-103976190D01*
X102052380Y-104071428D01*
X102004761Y-104166666D01*
X101957142Y-104214285D01*
X101861904Y-104261904D01*
X101671428Y-104309523D01*
X101433333Y-104309523D01*
X101242857Y-104261904D01*
X101147619Y-104214285D01*
X101100000Y-104166666D01*
X101052380Y-104071428D01*
X101052380Y-103119047D02*
X101052380Y-103023809D01*
X101100000Y-102928571D01*
X101147619Y-102880952D01*
X101242857Y-102833333D01*
X101433333Y-102785714D01*
X101671428Y-102785714D01*
X101861904Y-102833333D01*
X101957142Y-102880952D01*
X102004761Y-102928571D01*
X102052380Y-103023809D01*
X102052380Y-103119047D01*
X102004761Y-103214285D01*
X101957142Y-103261904D01*
X101861904Y-103309523D01*
X101671428Y-103357142D01*
X101433333Y-103357142D01*
X101242857Y-103309523D01*
X101147619Y-103261904D01*
X101100000Y-103214285D01*
X101052380Y-103119047D01*
X101052380Y-102166666D02*
X101052380Y-102071428D01*
X101100000Y-101976190D01*
X101147619Y-101928571D01*
X101242857Y-101880952D01*
X101433333Y-101833333D01*
X101671428Y-101833333D01*
X101861904Y-101880952D01*
X101957142Y-101928571D01*
X102004761Y-101976190D01*
X102052380Y-102071428D01*
X102052380Y-102166666D01*
X102004761Y-102261904D01*
X101957142Y-102309523D01*
X101861904Y-102357142D01*
X101671428Y-102404761D01*
X101433333Y-102404761D01*
X101242857Y-102357142D01*
X101147619Y-102309523D01*
X101100000Y-102261904D01*
X101052380Y-102166666D01*
X102052380Y-100642857D02*
X101385714Y-100642857D01*
X101480952Y-100642857D02*
X101433333Y-100595238D01*
X101385714Y-100500000D01*
X101385714Y-100357142D01*
X101433333Y-100261904D01*
X101528571Y-100214285D01*
X102052380Y-100214285D01*
X101528571Y-100214285D02*
X101433333Y-100166666D01*
X101385714Y-100071428D01*
X101385714Y-99928571D01*
X101433333Y-99833333D01*
X101528571Y-99785714D01*
X102052380Y-99785714D01*
X102052380Y-99309523D02*
X101385714Y-99309523D01*
X101480952Y-99309523D02*
X101433333Y-99261904D01*
X101385714Y-99166666D01*
X101385714Y-99023809D01*
X101433333Y-98928571D01*
X101528571Y-98880952D01*
X102052380Y-98880952D01*
X101528571Y-98880952D02*
X101433333Y-98833333D01*
X101385714Y-98738095D01*
X101385714Y-98595238D01*
X101433333Y-98500000D01*
X101528571Y-98452380D01*
X102052380Y-98452380D01*
X102750000Y-41000000D02*
X102750000Y-41000000D01*
X102750000Y-166000000D02*
X102750000Y-166000000D01*
X102750000Y-41000000D02*
X102750000Y-97639285D01*
X102750000Y-109360714D02*
X102750000Y-166000000D01*
X102750000Y-41000000D02*
X102163579Y-42126504D01*
X102750000Y-41000000D02*
X103336421Y-42126504D01*
X102750000Y-166000000D02*
X103336421Y-164873496D01*
X102750000Y-166000000D02*
X102163579Y-164873496D01*
D11*
X128523809Y-73976190D02*
X128690476Y-73738095D01*
X128809523Y-73976190D02*
X128809523Y-73476190D01*
X128619047Y-73476190D01*
X128571428Y-73500000D01*
X128547619Y-73523809D01*
X128523809Y-73571428D01*
X128523809Y-73642857D01*
X128547619Y-73690476D01*
X128571428Y-73714285D01*
X128619047Y-73738095D01*
X128809523Y-73738095D01*
X128333333Y-73952380D02*
X128261904Y-73976190D01*
X128142857Y-73976190D01*
X128095238Y-73952380D01*
X128071428Y-73928571D01*
X128047619Y-73880952D01*
X128047619Y-73833333D01*
X128071428Y-73785714D01*
X128095238Y-73761904D01*
X128142857Y-73738095D01*
X128238095Y-73714285D01*
X128285714Y-73690476D01*
X128309523Y-73666666D01*
X128333333Y-73619047D01*
X128333333Y-73571428D01*
X128309523Y-73523809D01*
X128285714Y-73500000D01*
X128238095Y-73476190D01*
X128119047Y-73476190D01*
X128047619Y-73500000D01*
X127904761Y-73476190D02*
X127619047Y-73476190D01*
X127761904Y-73976190D02*
X127761904Y-73476190D01*
X128892857Y-71452380D02*
X128821428Y-71476190D01*
X128702380Y-71476190D01*
X128654761Y-71452380D01*
X128630952Y-71428571D01*
X128607142Y-71380952D01*
X128607142Y-71333333D01*
X128630952Y-71285714D01*
X128654761Y-71261904D01*
X128702380Y-71238095D01*
X128797619Y-71214285D01*
X128845238Y-71190476D01*
X128869047Y-71166666D01*
X128892857Y-71119047D01*
X128892857Y-71071428D01*
X128869047Y-71023809D01*
X128845238Y-71000000D01*
X128797619Y-70976190D01*
X128678571Y-70976190D01*
X128607142Y-71000000D01*
X128107142Y-71428571D02*
X128130952Y-71452380D01*
X128202380Y-71476190D01*
X128250000Y-71476190D01*
X128321428Y-71452380D01*
X128369047Y-71404761D01*
X128392857Y-71357142D01*
X128416666Y-71261904D01*
X128416666Y-71190476D01*
X128392857Y-71095238D01*
X128369047Y-71047619D01*
X128321428Y-71000000D01*
X128250000Y-70976190D01*
X128202380Y-70976190D01*
X128130952Y-71000000D01*
X128107142Y-71023809D01*
X127892857Y-71476190D02*
X127892857Y-70976190D01*
X127607142Y-71476190D02*
X127821428Y-71190476D01*
X127607142Y-70976190D02*
X127892857Y-71261904D01*
D12*
X155071071Y-42792857D02*
X153571071Y-42792857D01*
X153571071Y-43364285D01*
X153642500Y-43507142D01*
X153713928Y-43578571D01*
X153856785Y-43650000D01*
X154071071Y-43650000D01*
X154213928Y-43578571D01*
X154285357Y-43507142D01*
X154356785Y-43364285D01*
X154356785Y-42792857D01*
X155071071Y-44292857D02*
X154071071Y-44292857D01*
X154356785Y-44292857D02*
X154213928Y-44364285D01*
X154142500Y-44435714D01*
X154071071Y-44578571D01*
X154071071Y-44721428D01*
X155071071Y-45435714D02*
X154999642Y-45292857D01*
X154928214Y-45221428D01*
X154785357Y-45150000D01*
X154356785Y-45150000D01*
X154213928Y-45221428D01*
X154142500Y-45292857D01*
X154071071Y-45435714D01*
X154071071Y-45650000D01*
X154142500Y-45792857D01*
X154213928Y-45864285D01*
X154356785Y-45935714D01*
X154785357Y-45935714D01*
X154928214Y-45864285D01*
X154999642Y-45792857D01*
X155071071Y-45650000D01*
X155071071Y-45435714D01*
X154071071Y-47221428D02*
X155285357Y-47221428D01*
X155428214Y-47150000D01*
X155499642Y-47078571D01*
X155571071Y-46935714D01*
X155571071Y-46721428D01*
X155499642Y-46578571D01*
X154999642Y-47221428D02*
X155071071Y-47078571D01*
X155071071Y-46792857D01*
X154999642Y-46650000D01*
X154928214Y-46578571D01*
X154785357Y-46507142D01*
X154356785Y-46507142D01*
X154213928Y-46578571D01*
X154142500Y-46650000D01*
X154071071Y-46792857D01*
X154071071Y-47078571D01*
X154142500Y-47221428D01*
X155071071Y-47935714D02*
X154071071Y-47935714D01*
X154356785Y-47935714D02*
X154213928Y-48007142D01*
X154142500Y-48078571D01*
X154071071Y-48221428D01*
X154071071Y-48364285D01*
X155071071Y-49507142D02*
X154285357Y-49507142D01*
X154142500Y-49435714D01*
X154071071Y-49292857D01*
X154071071Y-49007142D01*
X154142500Y-48864285D01*
X154999642Y-49507142D02*
X155071071Y-49364285D01*
X155071071Y-49007142D01*
X154999642Y-48864285D01*
X154856785Y-48792857D01*
X154713928Y-48792857D01*
X154571071Y-48864285D01*
X154499642Y-49007142D01*
X154499642Y-49364285D01*
X154428214Y-49507142D01*
X155071071Y-50221428D02*
X154071071Y-50221428D01*
X154213928Y-50221428D02*
X154142500Y-50292857D01*
X154071071Y-50435714D01*
X154071071Y-50650000D01*
X154142500Y-50792857D01*
X154285357Y-50864285D01*
X155071071Y-50864285D01*
X154285357Y-50864285D02*
X154142500Y-50935714D01*
X154071071Y-51078571D01*
X154071071Y-51292857D01*
X154142500Y-51435714D01*
X154285357Y-51507142D01*
X155071071Y-51507142D01*
X155071071Y-52221428D02*
X154071071Y-52221428D01*
X154213928Y-52221428D02*
X154142500Y-52292857D01*
X154071071Y-52435714D01*
X154071071Y-52650000D01*
X154142500Y-52792857D01*
X154285357Y-52864285D01*
X155071071Y-52864285D01*
X154285357Y-52864285D02*
X154142500Y-52935714D01*
X154071071Y-53078571D01*
X154071071Y-53292857D01*
X154142500Y-53435714D01*
X154285357Y-53507142D01*
X155071071Y-53507142D01*
X154999642Y-54792857D02*
X155071071Y-54650000D01*
X155071071Y-54364285D01*
X154999642Y-54221428D01*
X154856785Y-54150000D01*
X154285357Y-54150000D01*
X154142500Y-54221428D01*
X154071071Y-54364285D01*
X154071071Y-54650000D01*
X154142500Y-54792857D01*
X154285357Y-54864285D01*
X154428214Y-54864285D01*
X154571071Y-54150000D01*
X155071071Y-55507142D02*
X154071071Y-55507142D01*
X154356785Y-55507142D02*
X154213928Y-55578571D01*
X154142500Y-55650000D01*
X154071071Y-55792857D01*
X154071071Y-55935714D01*
X153571071Y-56507142D02*
X153856785Y-56364285D01*
X154999642Y-57078571D02*
X155071071Y-57221428D01*
X155071071Y-57507142D01*
X154999642Y-57650000D01*
X154856785Y-57721428D01*
X154785357Y-57721428D01*
X154642500Y-57650000D01*
X154571071Y-57507142D01*
X154571071Y-57292857D01*
X154499642Y-57150000D01*
X154356785Y-57078571D01*
X154285357Y-57078571D01*
X154142500Y-57150000D01*
X154071071Y-57292857D01*
X154071071Y-57507142D01*
X154142500Y-57650000D01*
X154999642Y-60150000D02*
X155071071Y-60007142D01*
X155071071Y-59721428D01*
X154999642Y-59578571D01*
X154928214Y-59507142D01*
X154785357Y-59435714D01*
X154356785Y-59435714D01*
X154213928Y-59507142D01*
X154142500Y-59578571D01*
X154071071Y-59721428D01*
X154071071Y-60007142D01*
X154142500Y-60150000D01*
X155071071Y-61435714D02*
X154285357Y-61435714D01*
X154142500Y-61364285D01*
X154071071Y-61221428D01*
X154071071Y-60935714D01*
X154142500Y-60792857D01*
X154999642Y-61435714D02*
X155071071Y-61292857D01*
X155071071Y-60935714D01*
X154999642Y-60792857D01*
X154856785Y-60721428D01*
X154713928Y-60721428D01*
X154571071Y-60792857D01*
X154499642Y-60935714D01*
X154499642Y-61292857D01*
X154428214Y-61435714D01*
X155071071Y-62364285D02*
X154999642Y-62221428D01*
X154856785Y-62150000D01*
X153571071Y-62150000D01*
X154999642Y-63578571D02*
X155071071Y-63435714D01*
X155071071Y-63150000D01*
X154999642Y-63007142D01*
X154928214Y-62935714D01*
X154785357Y-62864285D01*
X154356785Y-62864285D01*
X154213928Y-62935714D01*
X154142500Y-63007142D01*
X154071071Y-63150000D01*
X154071071Y-63435714D01*
X154142500Y-63578571D01*
X154071071Y-64864285D02*
X155071071Y-64864285D01*
X154071071Y-64221428D02*
X154856785Y-64221428D01*
X154999642Y-64292857D01*
X155071071Y-64435714D01*
X155071071Y-64650000D01*
X154999642Y-64792857D01*
X154928214Y-64864285D01*
X155071071Y-65792857D02*
X154999642Y-65650000D01*
X154856785Y-65578571D01*
X153571071Y-65578571D01*
X155071071Y-67007142D02*
X154285357Y-67007142D01*
X154142500Y-66935714D01*
X154071071Y-66792857D01*
X154071071Y-66507142D01*
X154142500Y-66364285D01*
X154999642Y-67007142D02*
X155071071Y-66864285D01*
X155071071Y-66507142D01*
X154999642Y-66364285D01*
X154856785Y-66292857D01*
X154713928Y-66292857D01*
X154571071Y-66364285D01*
X154499642Y-66507142D01*
X154499642Y-66864285D01*
X154428214Y-67007142D01*
X154071071Y-67507142D02*
X154071071Y-68078571D01*
X153571071Y-67721428D02*
X154856785Y-67721428D01*
X154999642Y-67792857D01*
X155071071Y-67935714D01*
X155071071Y-68078571D01*
X155071071Y-68792857D02*
X154999642Y-68650000D01*
X154928214Y-68578571D01*
X154785357Y-68507142D01*
X154356785Y-68507142D01*
X154213928Y-68578571D01*
X154142500Y-68650000D01*
X154071071Y-68792857D01*
X154071071Y-69007142D01*
X154142500Y-69150000D01*
X154213928Y-69221428D01*
X154356785Y-69292857D01*
X154785357Y-69292857D01*
X154928214Y-69221428D01*
X154999642Y-69150000D01*
X155071071Y-69007142D01*
X155071071Y-68792857D01*
X155071071Y-69935714D02*
X154071071Y-69935714D01*
X154356785Y-69935714D02*
X154213928Y-70007142D01*
X154142500Y-70078571D01*
X154071071Y-70221428D01*
X154071071Y-70364285D01*
X154071071Y-71864285D02*
X155071071Y-72221428D01*
X154071071Y-72578571D01*
X155071071Y-73935714D02*
X155071071Y-73078571D01*
X155071071Y-73507142D02*
X153571071Y-73507142D01*
X153785357Y-73364285D01*
X153928214Y-73221428D01*
X153999642Y-73078571D01*
X154928214Y-74578571D02*
X154999642Y-74650000D01*
X155071071Y-74578571D01*
X154999642Y-74507142D01*
X154928214Y-74578571D01*
X155071071Y-74578571D01*
X153571071Y-75578571D02*
X153571071Y-75721428D01*
X153642500Y-75864285D01*
X153713928Y-75935714D01*
X153856785Y-76007142D01*
X154142500Y-76078571D01*
X154499642Y-76078571D01*
X154785357Y-76007142D01*
X154928214Y-75935714D01*
X154999642Y-75864285D01*
X155071071Y-75721428D01*
X155071071Y-75578571D01*
X154999642Y-75435714D01*
X154928214Y-75364285D01*
X154785357Y-75292857D01*
X154499642Y-75221428D01*
X154142500Y-75221428D01*
X153856785Y-75292857D01*
X153713928Y-75364285D01*
X153642500Y-75435714D01*
X153571071Y-75578571D01*
X158057500Y-46578571D02*
X157986071Y-46507142D01*
X157771785Y-46364285D01*
X157628928Y-46292857D01*
X157414642Y-46221428D01*
X157057500Y-46150000D01*
X156771785Y-46150000D01*
X156414642Y-46221428D01*
X156200357Y-46292857D01*
X156057500Y-46364285D01*
X155843214Y-46507142D01*
X155771785Y-46578571D01*
X157414642Y-47792857D02*
X157486071Y-47650000D01*
X157486071Y-47364285D01*
X157414642Y-47221428D01*
X157343214Y-47150000D01*
X157200357Y-47078571D01*
X156771785Y-47078571D01*
X156628928Y-47150000D01*
X156557500Y-47221428D01*
X156486071Y-47364285D01*
X156486071Y-47650000D01*
X156557500Y-47792857D01*
X158057500Y-48292857D02*
X157986071Y-48364285D01*
X157771785Y-48507142D01*
X157628928Y-48578571D01*
X157414642Y-48650000D01*
X157057500Y-48721428D01*
X156771785Y-48721428D01*
X156414642Y-48650000D01*
X156200357Y-48578571D01*
X156057500Y-48507142D01*
X155843214Y-48364285D01*
X155771785Y-48292857D01*
X156128928Y-49364285D02*
X156057500Y-49435714D01*
X155986071Y-49578571D01*
X155986071Y-49935714D01*
X156057500Y-50078571D01*
X156128928Y-50150000D01*
X156271785Y-50221428D01*
X156414642Y-50221428D01*
X156628928Y-50150000D01*
X157486071Y-49292857D01*
X157486071Y-50221428D01*
X155986071Y-51150000D02*
X155986071Y-51292857D01*
X156057500Y-51435714D01*
X156128928Y-51507142D01*
X156271785Y-51578571D01*
X156557500Y-51650000D01*
X156914642Y-51650000D01*
X157200357Y-51578571D01*
X157343214Y-51507142D01*
X157414642Y-51435714D01*
X157486071Y-51292857D01*
X157486071Y-51150000D01*
X157414642Y-51007142D01*
X157343214Y-50935714D01*
X157200357Y-50864285D01*
X156914642Y-50792857D01*
X156557500Y-50792857D01*
X156271785Y-50864285D01*
X156128928Y-50935714D01*
X156057500Y-51007142D01*
X155986071Y-51150000D01*
X156128928Y-52221428D02*
X156057500Y-52292857D01*
X155986071Y-52435714D01*
X155986071Y-52792857D01*
X156057500Y-52935714D01*
X156128928Y-53007142D01*
X156271785Y-53078571D01*
X156414642Y-53078571D01*
X156628928Y-53007142D01*
X157486071Y-52150000D01*
X157486071Y-53078571D01*
X156128928Y-53650000D02*
X156057500Y-53721428D01*
X155986071Y-53864285D01*
X155986071Y-54221428D01*
X156057500Y-54364285D01*
X156128928Y-54435714D01*
X156271785Y-54507142D01*
X156414642Y-54507142D01*
X156628928Y-54435714D01*
X157486071Y-53578571D01*
X157486071Y-54507142D01*
X155986071Y-56721428D02*
X157057500Y-56721428D01*
X157271785Y-56650000D01*
X157414642Y-56507142D01*
X157486071Y-56292857D01*
X157486071Y-56150000D01*
X157414642Y-58007142D02*
X157486071Y-57864285D01*
X157486071Y-57578571D01*
X157414642Y-57435714D01*
X157271785Y-57364285D01*
X156700357Y-57364285D01*
X156557500Y-57435714D01*
X156486071Y-57578571D01*
X156486071Y-57864285D01*
X156557500Y-58007142D01*
X156700357Y-58078571D01*
X156843214Y-58078571D01*
X156986071Y-57364285D01*
X157486071Y-58721428D02*
X156486071Y-58721428D01*
X156771785Y-58721428D02*
X156628928Y-58792857D01*
X156557500Y-58864285D01*
X156486071Y-59007142D01*
X156486071Y-59150000D01*
X157486071Y-59864285D02*
X157414642Y-59721428D01*
X157343214Y-59650000D01*
X157200357Y-59578571D01*
X156771785Y-59578571D01*
X156628928Y-59650000D01*
X156557500Y-59721428D01*
X156486071Y-59864285D01*
X156486071Y-60078571D01*
X156557500Y-60221428D01*
X156628928Y-60292857D01*
X156771785Y-60364285D01*
X157200357Y-60364285D01*
X157343214Y-60292857D01*
X157414642Y-60221428D01*
X157486071Y-60078571D01*
X157486071Y-59864285D01*
X157414642Y-61578571D02*
X157486071Y-61435714D01*
X157486071Y-61150000D01*
X157414642Y-61007142D01*
X157271785Y-60935714D01*
X156700357Y-60935714D01*
X156557500Y-61007142D01*
X156486071Y-61150000D01*
X156486071Y-61435714D01*
X156557500Y-61578571D01*
X156700357Y-61650000D01*
X156843214Y-61650000D01*
X156986071Y-60935714D01*
X156486071Y-62292857D02*
X157486071Y-62292857D01*
X156628928Y-62292857D02*
X156557500Y-62364285D01*
X156486071Y-62507142D01*
X156486071Y-62721428D01*
X156557500Y-62864285D01*
X156700357Y-62935714D01*
X157486071Y-62935714D01*
X155986071Y-64578571D02*
X157486071Y-65078571D01*
X155986071Y-65578571D01*
X157414642Y-66650000D02*
X157486071Y-66507142D01*
X157486071Y-66221428D01*
X157414642Y-66078571D01*
X157271785Y-66007142D01*
X156700357Y-66007142D01*
X156557500Y-66078571D01*
X156486071Y-66221428D01*
X156486071Y-66507142D01*
X156557500Y-66650000D01*
X156700357Y-66721428D01*
X156843214Y-66721428D01*
X156986071Y-66007142D01*
X156486071Y-67364285D02*
X157486071Y-67364285D01*
X156628928Y-67364285D02*
X156557500Y-67435714D01*
X156486071Y-67578571D01*
X156486071Y-67792857D01*
X156557500Y-67935714D01*
X156700357Y-68007142D01*
X157486071Y-68007142D01*
X157414642Y-69292857D02*
X157486071Y-69150000D01*
X157486071Y-68864285D01*
X157414642Y-68721428D01*
X157271785Y-68650000D01*
X156700357Y-68650000D01*
X156557500Y-68721428D01*
X156486071Y-68864285D01*
X156486071Y-69150000D01*
X156557500Y-69292857D01*
X156700357Y-69364285D01*
X156843214Y-69364285D01*
X156986071Y-68650000D01*
X157486071Y-70007142D02*
X156486071Y-70007142D01*
X156628928Y-70007142D02*
X156557500Y-70078571D01*
X156486071Y-70221428D01*
X156486071Y-70435714D01*
X156557500Y-70578571D01*
X156700357Y-70650000D01*
X157486071Y-70650000D01*
X156700357Y-70650000D02*
X156557500Y-70721428D01*
X156486071Y-70864285D01*
X156486071Y-71078571D01*
X156557500Y-71221428D01*
X156700357Y-71292857D01*
X157486071Y-71292857D01*
X157486071Y-72650000D02*
X156700357Y-72650000D01*
X156557500Y-72578571D01*
X156486071Y-72435714D01*
X156486071Y-72150000D01*
X156557500Y-72007142D01*
X157414642Y-72650000D02*
X157486071Y-72507142D01*
X157486071Y-72150000D01*
X157414642Y-72007142D01*
X157271785Y-71935714D01*
X157128928Y-71935714D01*
X156986071Y-72007142D01*
X156914642Y-72150000D01*
X156914642Y-72507142D01*
X156843214Y-72650000D01*
D11*
X127607142Y-67726190D02*
X127892857Y-67726190D01*
X127750000Y-67726190D02*
X127750000Y-67226190D01*
X127797619Y-67297619D01*
X127845238Y-67345238D01*
X127892857Y-67369047D01*
X121535714Y-71476190D02*
X121535714Y-70976190D01*
X121369047Y-71333333D01*
X121202380Y-70976190D01*
X121202380Y-71476190D01*
X120869047Y-70976190D02*
X120773809Y-70976190D01*
X120726190Y-71000000D01*
X120678571Y-71047619D01*
X120654761Y-71142857D01*
X120654761Y-71309523D01*
X120678571Y-71404761D01*
X120726190Y-71452380D01*
X120773809Y-71476190D01*
X120869047Y-71476190D01*
X120916666Y-71452380D01*
X120964285Y-71404761D01*
X120988095Y-71309523D01*
X120988095Y-71142857D01*
X120964285Y-71047619D01*
X120916666Y-71000000D01*
X120869047Y-70976190D01*
X120464285Y-71452380D02*
X120392857Y-71476190D01*
X120273809Y-71476190D01*
X120226190Y-71452380D01*
X120202380Y-71428571D01*
X120178571Y-71380952D01*
X120178571Y-71333333D01*
X120202380Y-71285714D01*
X120226190Y-71261904D01*
X120273809Y-71238095D01*
X120369047Y-71214285D01*
X120416666Y-71190476D01*
X120440476Y-71166666D01*
X120464285Y-71119047D01*
X120464285Y-71071428D01*
X120440476Y-71023809D01*
X120416666Y-71000000D01*
X120369047Y-70976190D01*
X120250000Y-70976190D01*
X120178571Y-71000000D01*
X119964285Y-71476190D02*
X119964285Y-70976190D01*
X129035714Y-68976190D02*
X129035714Y-68476190D01*
X128869047Y-68833333D01*
X128702380Y-68476190D01*
X128702380Y-68976190D01*
X128464285Y-68976190D02*
X128464285Y-68476190D01*
X128250000Y-68952380D02*
X128178571Y-68976190D01*
X128059523Y-68976190D01*
X128011904Y-68952380D01*
X127988095Y-68928571D01*
X127964285Y-68880952D01*
X127964285Y-68833333D01*
X127988095Y-68785714D01*
X128011904Y-68761904D01*
X128059523Y-68738095D01*
X128154761Y-68714285D01*
X128202380Y-68690476D01*
X128226190Y-68666666D01*
X128250000Y-68619047D01*
X128250000Y-68571428D01*
X128226190Y-68523809D01*
X128202380Y-68500000D01*
X128154761Y-68476190D01*
X128035714Y-68476190D01*
X127964285Y-68500000D01*
X127654761Y-68476190D02*
X127559523Y-68476190D01*
X127511904Y-68500000D01*
X127464285Y-68547619D01*
X127440476Y-68642857D01*
X127440476Y-68809523D01*
X127464285Y-68904761D01*
X127511904Y-68952380D01*
X127559523Y-68976190D01*
X127654761Y-68976190D01*
X127702380Y-68952380D01*
X127750000Y-68904761D01*
X127773809Y-68809523D01*
X127773809Y-68642857D01*
X127750000Y-68547619D01*
X127702380Y-68500000D01*
X127654761Y-68476190D01*
X121130952Y-73500000D02*
X121178571Y-73476190D01*
X121250000Y-73476190D01*
X121321428Y-73500000D01*
X121369047Y-73547619D01*
X121392857Y-73595238D01*
X121416666Y-73690476D01*
X121416666Y-73761904D01*
X121392857Y-73857142D01*
X121369047Y-73904761D01*
X121321428Y-73952380D01*
X121250000Y-73976190D01*
X121202380Y-73976190D01*
X121130952Y-73952380D01*
X121107142Y-73928571D01*
X121107142Y-73761904D01*
X121202380Y-73761904D01*
X120892857Y-73976190D02*
X120892857Y-73476190D01*
X120607142Y-73976190D01*
X120607142Y-73476190D01*
X120369047Y-73976190D02*
X120369047Y-73476190D01*
X120250000Y-73476190D01*
X120178571Y-73500000D01*
X120130952Y-73547619D01*
X120107142Y-73595238D01*
X120083333Y-73690476D01*
X120083333Y-73761904D01*
X120107142Y-73857142D01*
X120130952Y-73904761D01*
X120178571Y-73952380D01*
X120250000Y-73976190D01*
X120369047Y-73976190D01*
X121666666Y-68476190D02*
X121500000Y-68976190D01*
X121333333Y-68476190D01*
X120880952Y-68928571D02*
X120904761Y-68952380D01*
X120976190Y-68976190D01*
X121023809Y-68976190D01*
X121095238Y-68952380D01*
X121142857Y-68904761D01*
X121166666Y-68857142D01*
X121190476Y-68761904D01*
X121190476Y-68690476D01*
X121166666Y-68595238D01*
X121142857Y-68547619D01*
X121095238Y-68500000D01*
X121023809Y-68476190D01*
X120976190Y-68476190D01*
X120904761Y-68500000D01*
X120880952Y-68523809D01*
X120380952Y-68928571D02*
X120404761Y-68952380D01*
X120476190Y-68976190D01*
X120523809Y-68976190D01*
X120595238Y-68952380D01*
X120642857Y-68904761D01*
X120666666Y-68857142D01*
X120690476Y-68761904D01*
X120690476Y-68690476D01*
X120666666Y-68595238D01*
X120642857Y-68547619D01*
X120595238Y-68500000D01*
X120523809Y-68476190D01*
X120476190Y-68476190D01*
X120404761Y-68500000D01*
X120380952Y-68523809D01*
D10*
X131916666Y-50607142D02*
X131964285Y-50654761D01*
X132107142Y-50702380D01*
X132202380Y-50702380D01*
X132345238Y-50654761D01*
X132440476Y-50559523D01*
X132488095Y-50464285D01*
X132535714Y-50273809D01*
X132535714Y-50130952D01*
X132488095Y-49940476D01*
X132440476Y-49845238D01*
X132345238Y-49750000D01*
X132202380Y-49702380D01*
X132107142Y-49702380D01*
X131964285Y-49750000D01*
X131916666Y-49797619D01*
X130964285Y-50702380D02*
X131535714Y-50702380D01*
X131250000Y-50702380D02*
X131250000Y-49702380D01*
X131345238Y-49845238D01*
X131440476Y-49940476D01*
X131535714Y-49988095D01*
X136761904Y-53652380D02*
X136761904Y-54461904D01*
X136714285Y-54557142D01*
X136666666Y-54604761D01*
X136571428Y-54652380D01*
X136380952Y-54652380D01*
X136285714Y-54604761D01*
X136238095Y-54557142D01*
X136190476Y-54461904D01*
X136190476Y-53652380D01*
X135190476Y-54652380D02*
X135761904Y-54652380D01*
X135476190Y-54652380D02*
X135476190Y-53652380D01*
X135571428Y-53795238D01*
X135666666Y-53890476D01*
X135761904Y-53938095D01*
X143107142Y-49833333D02*
X143154761Y-49785714D01*
X143202380Y-49642857D01*
X143202380Y-49547619D01*
X143154761Y-49404761D01*
X143059523Y-49309523D01*
X142964285Y-49261904D01*
X142773809Y-49214285D01*
X142630952Y-49214285D01*
X142440476Y-49261904D01*
X142345238Y-49309523D01*
X142250000Y-49404761D01*
X142202380Y-49547619D01*
X142202380Y-49642857D01*
X142250000Y-49785714D01*
X142297619Y-49833333D01*
X142297619Y-50214285D02*
X142250000Y-50261904D01*
X142202380Y-50357142D01*
X142202380Y-50595238D01*
X142250000Y-50690476D01*
X142297619Y-50738095D01*
X142392857Y-50785714D01*
X142488095Y-50785714D01*
X142630952Y-50738095D01*
X143202380Y-50166666D01*
X143202380Y-50785714D01*
X114166666Y-68452380D02*
X114500000Y-67976190D01*
X114738095Y-68452380D02*
X114738095Y-67452380D01*
X114357142Y-67452380D01*
X114261904Y-67500000D01*
X114214285Y-67547619D01*
X114166666Y-67642857D01*
X114166666Y-67785714D01*
X114214285Y-67880952D01*
X114261904Y-67928571D01*
X114357142Y-67976190D01*
X114738095Y-67976190D01*
X113214285Y-68452380D02*
X113785714Y-68452380D01*
X113500000Y-68452380D02*
X113500000Y-67452380D01*
X113595238Y-67595238D01*
X113690476Y-67690476D01*
X113785714Y-67738095D01*
X142583333Y-42702380D02*
X142583333Y-43416666D01*
X142630952Y-43559523D01*
X142726190Y-43654761D01*
X142869047Y-43702380D01*
X142964285Y-43702380D01*
X142154761Y-42797619D02*
X142107142Y-42750000D01*
X142011904Y-42702380D01*
X141773809Y-42702380D01*
X141678571Y-42750000D01*
X141630952Y-42797619D01*
X141583333Y-42892857D01*
X141583333Y-42988095D01*
X141630952Y-43130952D01*
X142202380Y-43702380D01*
X141583333Y-43702380D01*
X139952380Y-49833333D02*
X139476190Y-49500000D01*
X139952380Y-49261904D02*
X138952380Y-49261904D01*
X138952380Y-49642857D01*
X139000000Y-49738095D01*
X139047619Y-49785714D01*
X139142857Y-49833333D01*
X139285714Y-49833333D01*
X139380952Y-49785714D01*
X139428571Y-49738095D01*
X139476190Y-49642857D01*
X139476190Y-49261904D01*
X139047619Y-50214285D02*
X139000000Y-50261904D01*
X138952380Y-50357142D01*
X138952380Y-50595238D01*
X139000000Y-50690476D01*
X139047619Y-50738095D01*
X139142857Y-50785714D01*
X139238095Y-50785714D01*
X139380952Y-50738095D01*
X139952380Y-50166666D01*
X139952380Y-50785714D01*
X114166666Y-64702380D02*
X114500000Y-64226190D01*
X114738095Y-64702380D02*
X114738095Y-63702380D01*
X114357142Y-63702380D01*
X114261904Y-63750000D01*
X114214285Y-63797619D01*
X114166666Y-63892857D01*
X114166666Y-64035714D01*
X114214285Y-64130952D01*
X114261904Y-64178571D01*
X114357142Y-64226190D01*
X114738095Y-64226190D01*
X113309523Y-64035714D02*
X113309523Y-64702380D01*
X113547619Y-63654761D02*
X113785714Y-64369047D01*
X113166666Y-64369047D01*
X124813333Y-65792380D02*
X124813333Y-66506666D01*
X124860952Y-66649523D01*
X124956190Y-66744761D01*
X125099047Y-66792380D01*
X125194285Y-66792380D01*
X123813333Y-66792380D02*
X124384761Y-66792380D01*
X124099047Y-66792380D02*
X124099047Y-65792380D01*
X124194285Y-65935238D01*
X124289523Y-66030476D01*
X124384761Y-66078095D01*
X114166666Y-71952380D02*
X114500000Y-71476190D01*
X114738095Y-71952380D02*
X114738095Y-70952380D01*
X114357142Y-70952380D01*
X114261904Y-71000000D01*
X114214285Y-71047619D01*
X114166666Y-71142857D01*
X114166666Y-71285714D01*
X114214285Y-71380952D01*
X114261904Y-71428571D01*
X114357142Y-71476190D01*
X114738095Y-71476190D01*
X113833333Y-70952380D02*
X113214285Y-70952380D01*
X113547619Y-71333333D01*
X113404761Y-71333333D01*
X113309523Y-71380952D01*
X113261904Y-71428571D01*
X113214285Y-71523809D01*
X113214285Y-71761904D01*
X113261904Y-71857142D01*
X113309523Y-71904761D01*
X113404761Y-71952380D01*
X113690476Y-71952380D01*
X113785714Y-71904761D01*
X113833333Y-71857142D01*
D13*
X134451248Y-49515000D02*
X134973752Y-49515000D01*
X134451248Y-50985000D02*
X134973752Y-50985000D01*
D10*
X132375000Y-63875000D02*
X132700000Y-63875000D01*
X139625000Y-63875000D02*
X139625000Y-63550000D01*
X132375000Y-56625000D02*
X132375000Y-56950000D01*
X139625000Y-63875000D02*
X139300000Y-63875000D01*
X139625000Y-56625000D02*
X139300000Y-56625000D01*
X132375000Y-56625000D02*
X132700000Y-56625000D01*
X132375000Y-63875000D02*
X132375000Y-63550000D01*
X139625000Y-56850000D02*
X141050000Y-56850000D01*
X139625000Y-56625000D02*
X139625000Y-56850000D01*
D13*
X142015000Y-52738748D02*
X142015000Y-53261252D01*
X143485000Y-52738748D02*
X143485000Y-53261252D01*
X116977064Y-67265000D02*
X116522936Y-67265000D01*
X116977064Y-68735000D02*
X116522936Y-68735000D01*
D14*
X136590000Y-47780000D02*
X138750000Y-47780000D01*
X130750000Y-47780000D02*
X132910000Y-47780000D01*
D15*
X133550000Y-49000000D02*
G75*
G03*
X133550000Y-49000000I-100000J0D01*
G01*
D13*
X138765000Y-52772936D02*
X138765000Y-53227064D01*
X140235000Y-52772936D02*
X140235000Y-53227064D01*
X116977064Y-63515000D02*
X116522936Y-63515000D01*
X116977064Y-64985000D02*
X116522936Y-64985000D01*
X127080000Y-68670000D02*
X127080000Y-67340000D01*
X124480000Y-69940000D02*
X124480000Y-67340000D01*
X127080000Y-67340000D02*
X125750000Y-67340000D01*
X127080000Y-75080000D02*
X121880000Y-75080000D01*
X127080000Y-69940000D02*
X124480000Y-69940000D01*
X121880000Y-67340000D02*
X121880000Y-75080000D01*
X127080000Y-69940000D02*
X127080000Y-75080000D01*
X124480000Y-67340000D02*
X121880000Y-67340000D01*
X116977064Y-72235000D02*
X116522936Y-72235000D01*
X116977064Y-70765000D02*
X116522936Y-70765000D01*
%LPC*%
D16*
X146000000Y-84750000D03*
X152500000Y-84750000D03*
X152500000Y-89250000D03*
X146000000Y-89250000D03*
X116750000Y-84750000D03*
X123250000Y-84750000D03*
X123250000Y-89250000D03*
X116750000Y-89250000D03*
X155750000Y-97250000D03*
X162250000Y-97250000D03*
X162250000Y-101750000D03*
X155750000Y-101750000D03*
X107000000Y-134500000D03*
X113500000Y-134500000D03*
X113500000Y-139000000D03*
X107000000Y-139000000D03*
X142750000Y-84750000D03*
X136250000Y-84750000D03*
X136250000Y-89250000D03*
X142750000Y-89250000D03*
X133000000Y-97250000D03*
X126500000Y-97250000D03*
X133000000Y-101750000D03*
X126500000Y-101750000D03*
X136250000Y-134500000D03*
X142750000Y-134500000D03*
X136250000Y-139000000D03*
X142750000Y-139000000D03*
X116750000Y-109750000D03*
X123250000Y-109750000D03*
X123250000Y-114250000D03*
X116750000Y-114250000D03*
X113500000Y-146750000D03*
X107000000Y-146750000D03*
X107000000Y-151250000D03*
X113500000Y-151250000D03*
X142750000Y-122250000D03*
X136250000Y-122250000D03*
X142750000Y-126750000D03*
X136250000Y-126750000D03*
X155750000Y-134500000D03*
X162250000Y-134500000D03*
X155750000Y-139000000D03*
X162250000Y-139000000D03*
X162250000Y-122250000D03*
X155750000Y-122250000D03*
X162250000Y-126750000D03*
X155750000Y-126750000D03*
X133000000Y-134500000D03*
X126500000Y-134500000D03*
X126500000Y-139000000D03*
X133000000Y-139000000D03*
X133000000Y-122250000D03*
X126500000Y-122250000D03*
X133000000Y-126750000D03*
X126500000Y-126750000D03*
X107000000Y-84750000D03*
X113500000Y-84750000D03*
X107000000Y-89250000D03*
X113500000Y-89250000D03*
X113500000Y-159250000D03*
X107000000Y-159250000D03*
X113500000Y-163750000D03*
X107000000Y-163750000D03*
X152500000Y-122250000D03*
X146000000Y-122250000D03*
X152500000Y-126750000D03*
X146000000Y-126750000D03*
X155750000Y-109750000D03*
X162250000Y-109750000D03*
X155750000Y-114250000D03*
X162250000Y-114250000D03*
X155750000Y-159250000D03*
X162250000Y-159250000D03*
X162250000Y-163750000D03*
X155750000Y-163750000D03*
X123250000Y-97250000D03*
X116750000Y-97250000D03*
X116750000Y-101750000D03*
X123250000Y-101750000D03*
X146000000Y-146750000D03*
X152500000Y-146750000D03*
X152500000Y-151250000D03*
X146000000Y-151250000D03*
X123250000Y-159250000D03*
X116750000Y-159250000D03*
X123250000Y-163750000D03*
X116750000Y-163750000D03*
X126500000Y-109750000D03*
X133000000Y-109750000D03*
X126500000Y-114250000D03*
X133000000Y-114250000D03*
X142750000Y-146750000D03*
X136250000Y-146750000D03*
X136250000Y-151250000D03*
X142750000Y-151250000D03*
X152500000Y-134500000D03*
X146000000Y-134500000D03*
X146000000Y-139000000D03*
X152500000Y-139000000D03*
X146000000Y-159250000D03*
X152500000Y-159250000D03*
X146000000Y-163750000D03*
X152500000Y-163750000D03*
X162250000Y-146750000D03*
X155750000Y-146750000D03*
X155750000Y-151250000D03*
X162250000Y-151250000D03*
X136250000Y-109750000D03*
X142750000Y-109750000D03*
X142750000Y-114250000D03*
X136250000Y-114250000D03*
X123250000Y-122250000D03*
X116750000Y-122250000D03*
X123250000Y-126750000D03*
X116750000Y-126750000D03*
X146000000Y-97250000D03*
X152500000Y-97250000D03*
X146000000Y-101750000D03*
X152500000Y-101750000D03*
X113500000Y-97250000D03*
X107000000Y-97250000D03*
X113500000Y-101750000D03*
X107000000Y-101750000D03*
X126500000Y-159250000D03*
X133000000Y-159250000D03*
X133000000Y-163750000D03*
X126500000Y-163750000D03*
X133000000Y-146750000D03*
X126500000Y-146750000D03*
X133000000Y-151250000D03*
X126500000Y-151250000D03*
X142750000Y-159250000D03*
X136250000Y-159250000D03*
X136250000Y-163750000D03*
X142750000Y-163750000D03*
X123250000Y-134500000D03*
X116750000Y-134500000D03*
X123250000Y-139000000D03*
X116750000Y-139000000D03*
X142750000Y-97250000D03*
X136250000Y-97250000D03*
X142750000Y-101750000D03*
X136250000Y-101750000D03*
X133000000Y-84750000D03*
X126500000Y-84750000D03*
X133000000Y-89250000D03*
X126500000Y-89250000D03*
X123250000Y-146750000D03*
X116750000Y-146750000D03*
X123250000Y-151250000D03*
X116750000Y-151250000D03*
X155750000Y-84750000D03*
X162250000Y-84750000D03*
X162250000Y-89250000D03*
X155750000Y-89250000D03*
X107000000Y-122250000D03*
X113500000Y-122250000D03*
X113500000Y-126750000D03*
X107000000Y-126750000D03*
X107000000Y-109750000D03*
X113500000Y-109750000D03*
X113500000Y-114250000D03*
X107000000Y-114250000D03*
X152500000Y-109750000D03*
X146000000Y-109750000D03*
X146000000Y-114250000D03*
X152500000Y-114250000D03*
D17*
X108145000Y-74285000D03*
X161145000Y-44285000D03*
X161145000Y-74285000D03*
X108145000Y-44285000D03*
D18*
X108145000Y-50395000D03*
X108145000Y-52935000D03*
X108145000Y-55475000D03*
X108145000Y-58015000D03*
X108145000Y-60555000D03*
X108145000Y-63095000D03*
X108145000Y-65635000D03*
X108145000Y-68175000D03*
D19*
X133675000Y-50250000D03*
X135750000Y-50250000D03*
D20*
X140250000Y-57450000D03*
X140250000Y-58250000D03*
X140250000Y-59050000D03*
X140250000Y-59850000D03*
X140250000Y-60650000D03*
X140250000Y-61450000D03*
X140250000Y-62250000D03*
X140250000Y-63050000D03*
D21*
X138800000Y-64500000D03*
X138000000Y-64500000D03*
X137200000Y-64500000D03*
X136400000Y-64500000D03*
X135600000Y-64500000D03*
X134800000Y-64500000D03*
X134000000Y-64500000D03*
X133200000Y-64500000D03*
D20*
X131750000Y-63050000D03*
X131750000Y-62250000D03*
X131750000Y-61450000D03*
X131750000Y-60650000D03*
X131750000Y-59850000D03*
X131750000Y-59050000D03*
X131750000Y-58250000D03*
X131750000Y-57450000D03*
D21*
X133200000Y-56000000D03*
X134000000Y-56000000D03*
X134800000Y-56000000D03*
X135600000Y-56000000D03*
X136400000Y-56000000D03*
X137200000Y-56000000D03*
X138000000Y-56000000D03*
X138800000Y-56000000D03*
D22*
X142750000Y-51962500D03*
X142750000Y-54037500D03*
D23*
X117750000Y-68000000D03*
X115750000Y-68000000D03*
D24*
X133450000Y-47750000D03*
X134100000Y-47750000D03*
X134750000Y-47750000D03*
X135400000Y-47750000D03*
X136050000Y-47750000D03*
D25*
X129800000Y-47230000D03*
X129800000Y-43230000D03*
X139700000Y-43230000D03*
X139700000Y-47230000D03*
D26*
X139500000Y-52000000D03*
X139500000Y-54000000D03*
D23*
X117750000Y-64250000D03*
X115750000Y-64250000D03*
D27*
X125750000Y-68670000D03*
D28*
X123210000Y-68670000D03*
X125750000Y-71210000D03*
X123210000Y-71210000D03*
X125750000Y-73750000D03*
X123210000Y-73750000D03*
D23*
X117750000Y-71500000D03*
X115750000Y-71500000D03*
M02*
