G04 #@! TF.GenerationSoftware,KiCad,Pcbnew,6.0.0*
G04 #@! TF.CreationDate,2022-03-22T20:09:41+01:00*
G04 #@! TF.ProjectId,calculator,63616c63-756c-4617-946f-722e6b696361,rev?*
G04 #@! TF.SameCoordinates,Original*
G04 #@! TF.FileFunction,Paste,Bot*
G04 #@! TF.FilePolarity,Positive*
%FSLAX46Y46*%
G04 Gerber Fmt 4.6, Leading zero omitted, Abs format (unit mm)*
G04 Created by KiCad (PCBNEW 6.0.0) date 2022-03-22 20:09:41*
%MOMM*%
%LPD*%
G01*
G04 APERTURE LIST*
G04 Aperture macros list*
%AMRoundRect*
0 Rectangle with rounded corners*
0 $1 Rounding radius*
0 $2 $3 $4 $5 $6 $7 $8 $9 X,Y pos of 4 corners*
0 Add a 4 corners polygon primitive as box body*
4,1,4,$2,$3,$4,$5,$6,$7,$8,$9,$2,$3,0*
0 Add four circle primitives for the rounded corners*
1,1,$1+$1,$2,$3*
1,1,$1+$1,$4,$5*
1,1,$1+$1,$6,$7*
1,1,$1+$1,$8,$9*
0 Add four rect primitives between the rounded corners*
20,1,$1+$1,$2,$3,$4,$5,0*
20,1,$1+$1,$4,$5,$6,$7,0*
20,1,$1+$1,$6,$7,$8,$9,0*
20,1,$1+$1,$8,$9,$2,$3,0*%
G04 Aperture macros list end*
%ADD10RoundRect,0.250000X-0.337500X-0.475000X0.337500X-0.475000X0.337500X0.475000X-0.337500X0.475000X0*%
%ADD11R,1.600000X0.550000*%
%ADD12R,0.550000X1.600000*%
%ADD13RoundRect,0.250000X-0.475000X0.337500X-0.475000X-0.337500X0.475000X-0.337500X0.475000X0.337500X0*%
%ADD14RoundRect,0.250000X0.350000X0.450000X-0.350000X0.450000X-0.350000X-0.450000X0.350000X-0.450000X0*%
%ADD15R,0.450000X1.100000*%
%ADD16RoundRect,0.250000X-0.450000X0.350000X-0.450000X-0.350000X0.450000X-0.350000X0.450000X0.350000X0*%
G04 APERTURE END LIST*
D10*
X133675000Y-50250000D03*
X135750000Y-50250000D03*
D11*
X140250000Y-57450000D03*
X140250000Y-58250000D03*
X140250000Y-59050000D03*
X140250000Y-59850000D03*
X140250000Y-60650000D03*
X140250000Y-61450000D03*
X140250000Y-62250000D03*
X140250000Y-63050000D03*
D12*
X138800000Y-64500000D03*
X138000000Y-64500000D03*
X137200000Y-64500000D03*
X136400000Y-64500000D03*
X135600000Y-64500000D03*
X134800000Y-64500000D03*
X134000000Y-64500000D03*
X133200000Y-64500000D03*
D11*
X131750000Y-63050000D03*
X131750000Y-62250000D03*
X131750000Y-61450000D03*
X131750000Y-60650000D03*
X131750000Y-59850000D03*
X131750000Y-59050000D03*
X131750000Y-58250000D03*
X131750000Y-57450000D03*
D12*
X133200000Y-56000000D03*
X134000000Y-56000000D03*
X134800000Y-56000000D03*
X135600000Y-56000000D03*
X136400000Y-56000000D03*
X137200000Y-56000000D03*
X138000000Y-56000000D03*
X138800000Y-56000000D03*
D13*
X142750000Y-51962500D03*
X142750000Y-54037500D03*
D14*
X117750000Y-68000000D03*
X115750000Y-68000000D03*
D15*
X133450000Y-47750000D03*
X134100000Y-47750000D03*
X134750000Y-47750000D03*
X135400000Y-47750000D03*
X136050000Y-47750000D03*
D16*
X139500000Y-52000000D03*
X139500000Y-54000000D03*
D14*
X117750000Y-64250000D03*
X115750000Y-64250000D03*
X117750000Y-71500000D03*
X115750000Y-71500000D03*
M02*
